<?xml version="1.0" encoding="UTF-8"?>
<svg width="1933px" height="1067px" viewBox="0 0 1933 1067" version="1.1" xmlns="http://www.w3.org/2000/svg" xmlns:xlink="http://www.w3.org/1999/xlink">
    <title>Rectangle</title>
    <g id="Page-1" stroke="none" stroke-width="1" fill="none" fill-rule="evenodd">
        <g id="Group-5">
            <g id="Group-4">
                <rect id="Rectangle" x="0" y="0" width="1933" height="1067"></rect>
            </g>
            <g id="Group-2" transform="translate(1401.000000, 547.000000)" fill-rule="nonzero">
                <path d="M177.448622,440.649351 C186.790613,431.757576 198.665072,426.467532 210.314423,421.177489 C223.708362,415.099567 237.214856,410.428571 252.015722,414.311688 C253.084986,414.593074 253.535202,412.961039 252.465938,412.679654 C238.002735,408.852814 224.608795,412.961039 211.32741,418.87013 C198.946457,424.385281 186.227843,429.95671 176.266804,439.411255 C175.422648,440.199134 176.660743,441.380952 177.448622,440.649351 L177.448622,440.649351 Z" id="Path" stroke="#000000" stroke-width="2.25108225" fill="#000000"></path>
                <path d="M47.6737302,393.601732 C57.2408298,392.251082 66.9204835,394.727273 76.0373666,397.484848 C83.2971068,399.679654 90.9507865,402.774892 94.7213493,409.809524 C95.2278428,410.766234 96.6910462,409.922078 96.1845527,408.965368 C92.3014358,401.818182 84.7040332,398.385281 77.2754618,396.134199 C67.5958081,393.151515 57.3533839,390.619048 47.2235138,392.025974 C46.1542497,392.082251 46.6044661,393.714286 47.6737302,393.601732 L47.6737302,393.601732 Z" id="Path" stroke="#000000" stroke-width="2.25108225" fill="#000000"></path>
                <path d="M128.825245,388.142857 C139.06767,377.450216 153.474596,371.541126 168.219185,372.047619 C169.288449,372.103896 169.288449,370.415584 168.219185,370.359307 C153.02438,369.852814 138.11096,375.930736 127.58715,386.961039 C126.855548,387.748918 128.037367,388.987013 128.825245,388.142857 L128.825245,388.142857 Z" id="Path" stroke="#000000" stroke-width="2.25108225" fill="#000000"></path>
                <path d="M129.781955,323.255411 C141.093644,325.168831 151.11096,331.865801 157.188882,341.658009 C157.751652,342.558442 159.214856,341.714286 158.652085,340.813853 C152.349055,330.683983 141.994077,323.649351 130.288449,321.679654 C129.162908,321.454545 128.712691,323.08658 129.781955,323.255411 L129.781955,323.255411 Z" id="Path" stroke="#000000" stroke-width="2.25108225" fill="#000000"></path>
                <path d="M188.76031,312.056277 C200.972432,299.844156 217.968103,293.25974 235.245159,293.991342 C236.314423,294.047619 236.314423,292.359307 235.245159,292.30303 C217.574163,291.515152 200.128276,298.324675 187.578492,310.874459 C186.790613,311.662338 187.972432,312.844156 188.76031,312.056277 L188.76031,312.056277 Z" id="Path" stroke="#000000" stroke-width="2.25108225" fill="#000000"></path>
                <path d="M241.71702,349.649351 C250.158579,342.164502 260.288449,336.818182 271.206198,334.004329 C276.552518,332.65368 282.06767,331.865801 287.639098,331.809524 C290.059012,331.753247 296.530873,333.329004 297.262475,329.670996 C297.487583,328.601732 295.855548,328.151515 295.63044,329.220779 C295.292778,331.134199 289.496241,330.121212 288.145592,330.121212 C285.556847,330.121212 282.968103,330.290043 280.435635,330.627706 C275.539531,331.190476 270.699704,332.25974 266.028709,333.835498 C256.63044,336.930736 248.020051,341.939394 240.591479,348.52381 C239.691046,349.199134 240.872864,350.380952 241.71702,349.649351 L241.71702,349.649351 Z" id="Path" stroke="#000000" stroke-width="2.25108225" fill="#000000"></path>
                <path d="M255.279791,288.025974 C262.483254,287.125541 269.292778,292.30303 270.305765,299.506494 C270.474596,300.575758 272.106631,300.125541 271.937799,299.056277 C270.812258,291.177489 263.158579,285.380952 255.279791,286.337662 C254.210527,286.450216 254.210527,288.138528 255.279791,288.025974 L255.279791,288.025974 Z" id="Path" stroke="#000000" stroke-width="2.25108225" fill="#000000"></path>
                <path d="M279.985419,299.844156 C292.591479,284.987013 312.794942,277.727273 331.929141,281.21645 C332.998406,281.385281 333.448622,279.809524 332.379358,279.584416 C312.682388,275.982684 291.8036,283.298701 278.8036,298.662338 C278.071999,299.450216 279.253817,300.632035 279.985419,299.844156 L279.985419,299.844156 Z" id="Path" stroke="#000000" stroke-width="2.25108225" fill="#000000"></path>
                <path d="M320.67373,405.757576 C338.626111,394.277056 360.574163,389.493506 381.678059,392.757576 C387.02438,393.601732 392.314423,394.896104 397.71702,395.064935 C402.781955,395.233766 407.396674,393.939394 412.011393,391.969697 C422.366371,387.636364 432.777626,384.597403 444.089315,384.203463 C456.41399,383.753247 468.794942,386.116883 480.106631,391.069264 C481.119618,391.519481 481.963774,390.056277 480.950786,389.606061 C461.422648,380.995671 438.799271,380.095238 418.708362,387.411255 C413.193211,389.437229 407.903167,392.532468 401.937799,393.207792 C395.634769,393.939394 389.388016,392.307359 383.19754,391.294372 C373.180224,389.662338 362.937799,389.662338 352.920483,391.406926 C341.158579,393.4329 329.903167,397.878788 319.829574,404.294372 C318.929141,404.91342 319.773297,406.376623 320.67373,405.757576 L320.67373,405.757576 Z" id="Path" stroke="#000000" stroke-width="2.25108225" fill="#000000"></path>
                <path d="M406.271133,366.645022 C424.561176,358.766234 444.539531,350.324675 464.911825,352.969697 C469.357713,353.532468 473.916154,355.502165 478.418319,354.995671 C482.582821,354.545455 486.409661,352.294372 490.517886,351.393939 C500.028709,349.311688 510.046025,350.831169 518.54386,355.38961 C519.50057,355.896104 520.344726,354.4329 519.388016,353.926407 C511.452951,349.649351 502.448622,347.961039 493.50057,349.142857 C488.885851,349.761905 484.946457,351.619048 480.50057,352.857143 C475.210527,354.320346 469.751652,351.900433 464.461609,351.225108 C443.864206,348.748918 423.885851,357.190476 405.3707,365.181818 C404.470267,365.632035 405.314423,367.095238 406.271133,366.645022 L406.271133,366.645022 Z" id="Path" stroke="#000000" stroke-width="2.25108225" fill="#000000"></path>
                <g id="pillows" transform="translate(334.742994, 62.467532)">
                    <path d="M23.974026,4.16450216 C20.7662338,7.2034632 19.7532468,10.8614719 19.3030303,12.4935065 C15.3073593,27.4632035 15.2510823,36.1298701 15.2510823,36.1298701 C15.1385281,54.025974 12.9437229,49.3549784 12.04329,74.7359307 C11.7056277,84.4718615 11.6493506,96.4588745 12.3246753,110.134199 C10.1298701,113.398268 7.03463203,118.632035 4.67099567,125.554113 C1.85714286,133.658009 -0.0562770563,139.116883 2.36363636,144.632035 C5.45887446,151.779221 13.8441558,154.424242 15.9264069,155.099567 C20.2034632,156.450216 22.004329,155.718615 32.1904762,157.294372 C35.6796537,157.857143 38.4935065,158.419913 40.4069264,158.813853 C38.7748918,162.190476 36.3549784,167.142857 34.7229437,170.519481 C31.1212121,177.948052 27.5194805,185.376623 23.9177489,192.805195 C27.4069264,194.831169 32.4155844,197.701299 38.5497835,200.965368 C51.6060606,207.943723 58.1341991,211.4329 65.2813853,213.852814 C69.8961039,215.428571 80.3636364,218.580087 93.982684,218.974026 C103.268398,219.255411 109.965368,218.12987 120.4329,216.385281 C130.900433,214.640693 139.454545,212.502165 145.419913,210.813853 C146.545455,204.961039 148.008658,197.532468 149.922078,189.034632 C150.428571,186.727273 152.904762,175.978355 156.844156,161.233766 C159.4329,151.666667 162.753247,139.961039 167.030303,126.510823 C161.74026,125.666667 156.450216,124.766234 151.160173,123.922078 C155.04329,117.281385 158.419913,111.991342 160.727273,108.333333 C163.316017,104.281385 168.268398,96.6839827 172.658009,86.3852814 C174.402597,82.2770563 175.471861,79.0692641 174.290043,75.6926407 C172.770563,71.4155844 168.437229,69.4458874 167.480519,68.995671 C163.65368,67.2510823 160.220779,67.7575758 155.380952,68.3203463 C149.584416,68.995671 143.675325,69.1082251 137.878788,69.8961039 C131.519481,70.7402597 122.34632,71.2467532 110.359307,69.3896104 C109.74026,59.2034632 109.627706,50.8744589 109.683983,45.021645 C109.796537,33.2597403 110.415584,26.9004329 106.307359,23.8614719 C105.463203,23.2424242 104.675325,22.9047619 96.0649351,21.7229437 C90.7748918,20.991342 88.1298701,20.6536797 83.3463203,20.1471861 C77.9437229,19.5844156 70.4025974,18.7965368 62.1861472,16.4329004 C51.0995671,13.2813853 45.5844156,11.7056277 40.4632035,6.92207792 C37.3116883,3.93939394 35.2857143,0.675324675 31.4588745,0.562770563 C27.969697,0.393939394 24.9307359,3.26406926 23.974026,4.16450216 Z" id="Path" fill="#FFFFFF"></path>
                    <path d="M61.2857143,168.831169 C62.6363636,173.839827 65.5627706,181.943723 72.5411255,188.809524 C83.4025974,199.558442 97.5844156,200.965368 113.116883,202.484848 C121.051948,203.272727 132.926407,203.722944 147.333333,201.30303 C148.515152,195.619048 150.090909,188.640693 152.004329,180.649351 C153.242424,175.415584 155.831169,164.891775 159.601732,151.61039 C161.683983,144.294372 164.160173,135.852814 167.142857,126.454545 C162.30303,125.329004 157.463203,124.203463 152.623377,123.077922 C147.670996,131.519481 143.675325,138.441558 140.917749,143.225108 C132.982684,157.238095 129.04329,164.61039 121.333333,177.441558 C118.463203,182.225108 116.04329,186.164502 114.467532,188.69697 C112.047619,188.865801 108.670996,188.978355 104.675325,188.69697 C101.805195,188.471861 89.7619048,187.402597 76.3116883,179.917749 C72.3722944,177.722944 66.9134199,174.233766 61.2857143,168.831169 Z" id="Path" fill="#898989" opacity="0.2"></path>
                    <path d="M107.939394,73.7229437 C110.978355,76.0865801 115.199134,79.9134199 119.025974,85.6536797 C119.813853,86.8354978 124.316017,93.7575758 126.341991,103.268398 C129.380952,117.506494 125.160173,129.549784 121.952381,138.497835 C114.242424,159.82684 101.017316,174.852814 91.1125541,183.969697 C93.025974,185.376623 95.8398268,187.064935 99.4415584,188.190476 C105.969697,190.272727 111.65368,189.484848 114.580087,188.865801 C128.930736,164.835498 140.748918,145.025974 150.766234,128.705628 C155.212121,121.445887 162.584416,109.515152 169.675325,92.2380952 C172.151515,86.2727273 173.896104,81.2077922 175.021645,77.8311688 C174.064935,75.4112554 171.982684,71.1341991 167.593074,69.0519481 C164.441558,67.5324675 161.402597,67.7575758 159.939394,67.8701299 C142.380952,69.4458874 133.601732,70.2337662 132.082251,70.4588745 C125.666667,71.3593074 116.099567,71.6406926 103.662338,68.0952381 C105.181818,69.952381 106.532468,71.8095238 107.939394,73.7229437 Z" id="Path" fill="#898989" opacity="0.22"></path>
                    <path d="M15.2510823,39.6753247 C18.1212121,49.8051948 20.991342,59.9350649 23.8614719,70.1212121 C37.5930736,58.7532468 51.3246753,47.3290043 65.0562771,35.961039 C56.3333333,44.6839827 49.3549784,52.8441558 43.8961039,59.7662338 C41.4199134,62.9177489 33.3722944,73.3290043 24.4242424,88.1861472 C19.3030303,96.6839827 15.3636364,104.225108 12.3809524,110.246753 C11.987013,102.874459 11.7619048,95.1645022 11.8744589,87.1168831 C12.04329,69.8398268 13.3376623,53.969697 15.2510823,39.6753247 Z" id="Path" fill="#898989" opacity="0.18"></path>
                    <path d="M28.1948052,84.3030303 C33.0909091,76.2554113 38.3809524,68.4329004 44.0649351,60.8917749 C49.7489177,53.3506494 55.7142857,45.3030303 62.5800866,38.8311688 C71.4718615,30.5021645 80.0822511,41.2510823 85.5411255,48.004329 C90.9437229,54.7012987 96.1212121,61.5670996 101.692641,68.0952381 C107.82684,75.1861472 114.467532,81.8268398 122.177489,87.2294372 C123.077922,87.8484848 123.922078,86.3852814 123.021645,85.7662338 C107.489177,74.961039 96.7965368,59.0909091 84.9220779,44.6277056 C80.4199134,39.1125541 73.2727273,31.2337662 65.3376623,34.7792208 C61.5108225,36.4675325 58.6969697,40.4069264 55.995671,43.4458874 C52.6190476,47.3290043 49.2987013,51.2683983 46.1471861,55.3203463 C39.1125541,64.2683983 32.6406926,73.6666667 26.6753247,83.4025974 C26.1688312,84.3593074 27.6320346,85.2034632 28.1948052,84.3030303 L28.1948052,84.3030303 Z" id="Path" fill="#000000"></path>
                    <path d="M103.549784,68.8831169 C115.705628,71.7532468 128.255411,72.4848485 140.580087,70.965368 C146.714286,70.1774892 152.848485,68.3203463 159.038961,68.2640693 C164.948052,68.2077922 171.982684,70.6839827 173.952381,76.9307359 C174.965368,80.2510823 173.558442,83.1774892 172.038961,86.047619 C170.519481,88.974026 168.943723,91.8441558 167.367965,94.7142857 C164.21645,100.510823 161.064935,106.251082 157.91342,112.047619 C151.554113,123.584416 145.082251,135.008658 138.497835,146.376623 C131.012987,159.320346 123.359307,172.207792 115.593074,185.038961 C115.030303,185.995671 116.493506,186.839827 117.056277,185.883117 C131.857143,161.515152 146.151515,136.865801 159.939394,111.878788 C163.316017,105.800866 166.636364,99.7229437 169.900433,93.5887446 C172.376623,89.030303 176.709957,83.5151515 175.922078,78 C175.30303,73.4415584 171.645022,69.8398268 167.593074,68.038961 C162.584416,65.7878788 156.900433,66.4069264 151.666667,67.3073593 C143.731602,68.6580087 135.965368,70.008658 127.861472,70.008658 C119.813853,70.008658 111.766234,69.0519481 103.943723,67.1948052 C102.987013,67.025974 102.536797,68.6580087 103.549784,68.8831169 L103.549784,68.8831169 Z" id="Path" fill="#000000"></path>
                    <path d="M29.038961,79.012987 C21.2164502,91.4502165 14.012987,104.281385 7.5974026,117.506494 C2.64502165,127.748918 -4.61471861,141.818182 6.07792208,150.991342 C15.8701299,159.376623 30.0519481,156.506494 41.5887446,160.051948 C54.5324675,163.991342 65.0562771,172.883117 76.5367965,179.636364 C88.3549784,186.614719 102.818182,192.017316 116.380952,187.008658 C117.393939,186.614719 116.943723,184.982684 115.930736,185.376623 C90.7748918,194.549784 69.6709957,170.238095 48.7359307,160.952381 C43.6147186,158.645022 38.2683983,157.181818 32.6969697,156.562771 C26.1688312,155.774892 19.4155844,155.831169 13.2813853,153.354978 C7.09090909,150.878788 2.25108225,145.982684 2.13852814,139.004329 C2.02597403,132.082251 5.68398268,125.441558 8.61038961,119.363636 C15.1385281,105.800866 22.4545455,92.6320346 30.5021645,79.9134199 C31.0649351,78.95671 29.6017316,78.0562771 29.038961,79.012987 L29.038961,79.012987 Z" id="Path" fill="#000000"></path>
                    <path d="M13.2813853,110.134199 C12.4372294,93.3073593 12.6060606,76.4242424 13.7878788,59.6536797 C14.4069264,50.987013 15.3073593,42.3203463 16.4891775,33.6536797 C17.4458874,26.5064935 18.1212121,18.9090909 20.3722944,12.04329 C21.2164502,9.45454545 22.4545455,6.6969697 24.5367965,4.78354978 C27.8571429,1.68831169 32.021645,2.53246753 35.6796537,4.55844156 C42.1515152,8.04761905 48.3982684,11.5930736 55.2640693,14.2380952 C62.3549784,16.995671 69.7835498,19.021645 77.2683983,20.3160173 C84.0779221,21.4978355 90.8311688,21.6103896 97.6969697,22.1168831 C101.186147,22.3419913 105.463203,23.017316 107.545455,26.1688312 C109.909091,29.8268398 108.896104,36.4112554 108.952381,40.5757576 C109.064935,50.2554113 109.177489,59.991342 109.290043,69.6709957 C109.290043,70.7402597 110.978355,70.7402597 110.978355,69.6709957 C110.865801,60.3290043 110.753247,50.987013 110.640693,41.7012987 C110.584416,35.5108225 112.329004,26.1688312 105.91342,22.4545455 C100.398268,19.2467532 92.8571429,20.3722944 86.7792208,19.8658009 C78.2813853,19.1341991 69.8398268,17.3896104 61.6796537,14.8008658 C53.5194805,12.1558442 45.7532468,8.61038961 38.3809524,4.27705628 C33.2597403,1.29437229 27.4069264,-0.844155844 22.7359307,4.10822511 C18.4588745,8.61038961 17.5584416,15.4199134 16.5454545,21.2727273 C15.0822511,29.995671 13.9004329,38.7748918 13,47.6103896 C10.9177489,68.3766234 10.4112554,89.3116883 11.4242424,110.134199 C11.6493506,111.25974 13.3376623,111.25974 13.2813853,110.134199 L13.2813853,110.134199 Z" id="Path" fill="#000000"></path>
                    <path d="M39.3376623,160.108225 C36.5800866,165.454545 33.7662338,170.744589 31.008658,176.090909 C29.6017316,178.735931 28.2510823,181.437229 26.8441558,184.082251 C25.6623377,186.333333 24.030303,188.640693 23.2987013,191.060606 C22.961039,192.242424 23.017316,193.255411 23.974026,194.099567 C25.7748918,195.787879 28.7575758,196.744589 30.8961039,197.87013 C36.0735931,200.571429 41.2510823,203.329004 46.4285714,206.030303 C55.995671,211.038961 65.8441558,215.766234 76.4805195,218.017316 C87.1731602,220.268398 98.2034632,220.268398 109.064935,219.030303 C121.502165,217.623377 133.714286,214.640693 145.813853,211.658009 C146.883117,211.376623 146.4329,209.744589 145.363636,210.025974 C125.554113,214.922078 105.012987,219.930736 84.4718615,217.623377 C63.5930736,215.25974 45.0779221,203.497835 26.8441558,193.818182 C27.012987,193.874459 25.4372294,193.199134 25.3246753,192.974026 C24.7056277,192.12987 25.4372294,190.666667 25.7748918,189.878788 C26.3939394,188.359307 27.3506494,186.839827 28.1385281,185.376623 C29.5454545,182.731602 30.8961039,180.030303 32.3030303,177.385281 C35.1731602,171.87013 38.04329,166.411255 40.8571429,160.896104 C41.3073593,159.995671 39.8441558,159.151515 39.3376623,160.108225 L39.3376623,160.108225 Z" id="Path" fill="#000000"></path>
                    <path d="M151.047619,123.978355 C156.619048,124.090909 161.909091,125.21645 167.030303,127.354978 C166.861472,127.017316 166.636364,126.679654 166.467532,126.341991 C157.688312,153.917749 150.428571,181.943723 144.744589,210.251082 C144.519481,211.320346 146.151515,211.770563 146.376623,210.701299 C152.060606,182.337662 159.320346,154.311688 168.099567,126.792208 C168.268398,126.341991 167.930736,125.948052 167.536797,125.779221 C162.30303,123.584416 156.787879,122.458874 151.103896,122.34632 C149.922078,122.233766 149.922078,123.922078 151.047619,123.978355 L151.047619,123.978355 Z" id="Path" fill="#000000"></path>
                </g>
                <path d="M156.513557,462.484848 C162.872864,453.930736 175.872864,452.242424 184.3707,458.601732 C185.214856,459.277056 186.059012,457.813853 185.214856,457.138528 C175.929141,450.160173 161.972432,452.411255 155.050354,461.640693 C154.375029,462.541126 155.838232,463.385281 156.513557,462.484848 L156.513557,462.484848 Z" id="Path" stroke="#000000" stroke-width="2.25108225" fill="#000000"></path>
                <g id="robot" transform="translate(47.730007, 0.000000)">
                    <g id="leg_right" transform="translate(0.000000, 230.735931)">
                        <path d="M182.281385,0.0562770563 C167.818182,19.2467532 153.298701,38.3809524 138.779221,57.4588745 C101.636364,106.307359 64.2683983,154.930736 26.6753247,203.441558 C29.2640693,203.891775 33.1471861,204.961039 37.3116883,207.437229 C41.025974,209.632035 43.6709957,212.220779 45.2467532,214.077922 C99.3290043,144.125541 153.411255,74.1168831 207.549784,4.16450216 C199.108225,2.75757576 190.722944,1.40692641 182.281385,0.0562770563 Z" id="Path" stroke="#000000" stroke-width="1.68831169" fill="#FFFFFF"></path>
                        <path d="M1.51948052,169.95671 C-0.619047619,171.194805 0.45021645,176.822511 0.844155844,179.017316 C3.15151515,191.116883 6.97835498,213.177489 12.04329,242.61039 C18.8528139,243.5671 25.7186147,244.580087 32.5281385,245.536797 C37.3679654,236.701299 42.2640693,227.865801 47.1038961,218.974026 C46.4848485,217.398268 45.5281385,215.034632 44.1212121,212.333333 C40.9134199,206.367965 37.5367965,202.709957 33.8225108,198.658009 C22.2294372,186.108225 19.3593074,182.731602 12.4935065,176.709957 C5.57142857,170.575758 2.98268398,169.112554 1.51948052,169.95671 Z" id="Path" stroke="#000000" stroke-width="1.68831169" fill="#FFFFFF"></path>
                        <path d="M3.65800866,175.528139 C11.5367965,184.138528 14.5194805,196.406926 18.3463203,207.099567 C22.7359307,219.255411 27.0692641,231.354978 31.4588745,243.510823 C31.7965368,244.52381 33.4285714,244.073593 33.0909091,243.060606 C28.4761905,230.229437 23.8614719,217.398268 19.2467532,204.510823 C15.5324675,194.155844 12.4935065,182.619048 4.8961039,174.290043 C4.16450216,173.502165 2.92640693,174.683983 3.65800866,175.528139 L3.65800866,175.528139 Z" id="Path" fill="#000000"></path>
                        <path d="M39.8441558,187.683983 C46.9350649,186.220779 54.1948052,190.722944 56.1082251,197.645022 C56.3896104,198.714286 58.021645,198.264069 57.7402597,197.194805 C55.5454545,189.316017 47.3290043,184.419913 39.3939394,186.051948 C38.3246753,186.277056 38.7748918,187.909091 39.8441558,187.683983 L39.8441558,187.683983 Z" id="Path" fill="#000000"></path>
                        <path d="M52.1688312,172.095238 C58.978355,171.025974 65.6190476,175.809524 66.9134199,182.562771 C67.1385281,183.632035 68.7705628,183.181818 68.5454545,182.112554 C67.0822511,174.402597 59.4285714,169.225108 51.7186147,170.463203 C50.6493506,170.632035 51.0995671,172.264069 52.1688312,172.095238 L52.1688312,172.095238 Z" id="Path" fill="#000000"></path>
                        <path d="M65.6190476,154.705628 C72.9350649,151.610381 80.9264069,156.393939 81.7142857,164.272727 C81.8268398,165.341991 83.5151515,165.341991 83.4025974,164.272727 C82.5021645,154.987013 73.3290043,149.640693 64.7748918,153.242424 C63.7619048,153.692641 64.6060606,155.155844 65.6190476,154.705628 L65.6190476,154.705628 Z" id="Path" fill="#000000"></path>
                        <path d="M76.1428571,140.411255 C80.1948052,139.116883 84.1341991,138.61039 87.5670996,141.649351 C90.1558442,143.95671 91.2813853,147.277056 91.7878788,150.65368 C91.95671,151.722944 93.5887446,151.272727 93.4199134,150.203463 C92.8571429,146.207792 91.2813853,142.268398 87.9047619,139.792208 C84.0779221,136.922078 80.025974,137.428571 75.6926407,138.779221 C74.6796537,139.116883 75.1298701,140.748918 76.1428571,140.411255 L76.1428571,140.411255 Z" id="Path" fill="#000000"></path>
                        <path d="M87.7359307,124.428571 C95.5021645,121.78355 103.606061,126.679654 104.450216,134.896104 C104.562771,135.965368 106.251082,135.965368 106.138528,134.896104 C105.181818,125.61039 96.1774892,119.701299 87.2857143,122.796537 C86.2727273,123.134199 86.7229437,124.766234 87.7359307,124.428571 L87.7359307,124.428571 Z" id="Path" fill="#000000"></path>
                        <path d="M101.242424,107.489177 C108.896104,105.519481 116.155844,110.415584 117.337662,118.181818 C117.506494,119.251082 119.138528,118.800866 118.969697,117.731602 C117.675325,109.008658 109.290043,103.662338 100.792208,105.857143 C99.7792208,106.138528 100.229437,107.770563 101.242424,107.489177 L101.242424,107.489177 Z" id="Path" fill="#000000"></path>
                        <path d="M111.822511,93.5324675 C115.142857,91.2251082 119.419913,92.012987 122.402597,94.4891775 C125.497835,97.0779221 127.017316,100.904762 128.255411,104.675325 C128.593074,105.688312 130.225108,105.238095 129.887446,104.225108 C128.424242,99.7792208 126.454545,95.0519481 122.34632,92.3506494 C118.91342,90.0995671 114.354978,89.7056277 110.922078,92.0692641 C110.077922,92.6883117 110.922078,94.1515152 111.822511,93.5324675 L111.822511,93.5324675 Z" id="Path" fill="#000000"></path>
                        <path d="M123.359307,80.0822511 C126.454545,78.1688312 130.281385,79.5757576 133.264069,81.0952381 C136.528139,82.7835498 138.554113,85.5974026 139.285714,89.1428571 C139.510823,90.2121212 141.142857,89.7619048 140.917749,88.6926407 C140.017316,84.4155844 137.316017,81.1515152 133.376623,79.2943723 C129.943723,77.6623377 125.948052,76.4805195 122.458874,78.6190476 C121.614719,79.1818182 122.458874,80.6450216 123.359307,80.0822511 L123.359307,80.0822511 Z" id="Path" fill="#000000"></path>
                        <path d="M135.177489,63.6493506 C142.493506,61.3419913 150.090909,64.7186147 153.017316,71.9220779 C153.411255,71.5844156 153.861472,71.3030303 154.255411,70.965368 C154.08658,70.8528139 153.917749,70.7965368 153.692641,70.6839827 C152.735931,70.2337662 151.835498,71.6406926 152.848485,72.1471861 C153.017316,72.2597403 153.186147,72.3160173 153.411255,72.4285714 C153.974026,72.7099567 154.930736,72.2034632 154.649351,71.4718615 C151.441558,63.4805195 143,59.4285714 134.727273,62.0735931 C133.714286,62.3549784 134.164502,63.987013 135.177489,63.6493506 L135.177489,63.6493506 Z" id="Path" fill="#000000"></path>
                        <path d="M147.277056,47.4415584 C155.380952,45.8095238 162.69697,51.6623377 163.034632,59.8787879 C163.090909,60.9480519 164.779221,60.9480519 164.722944,59.8787879 C164.329004,50.4805195 156.056277,44.008658 146.82684,45.8095238 C145.757576,46.034632 146.207792,47.6666667 147.277056,47.4415584 L147.277056,47.4415584 Z" id="Path" fill="#000000"></path>
                        <path d="M157.294372,33.5974026 C165.229437,30.6709957 173.502165,35.1731602 175.30303,43.5021645 C175.528139,44.5714286 177.160173,44.1212121 176.935065,43.0519481 C175.021645,33.9350649 165.623377,28.7575758 156.844156,31.965368 C155.831169,32.3030303 156.281385,33.9350649 157.294372,33.5974026 L157.294372,33.5974026 Z" id="Path" fill="#000000"></path>
                        <path d="M167.761905,21.7792208 C175.584416,19.1341991 183.463203,23.6363636 185.095238,31.7402597 C185.320346,32.8095238 186.952381,32.3593074 186.727273,31.2900433 C184.926407,22.3419913 175.922078,17.2207792 167.311688,20.1471861 C166.298701,20.4848485 166.748918,22.1168831 167.761905,21.7792208 L167.761905,21.7792208 Z" id="Path" fill="#000000"></path>
                        <path d="M176.65368,8.44155844 C184.025974,7.09090909 193.08658,9.06060606 195.281385,17.2770563 C195.562771,18.3463203 197.194805,17.8961039 196.91342,16.8268398 C194.437229,7.65367965 184.47619,5.34632035 176.203463,6.80952381 C175.134199,7.03463203 175.584416,8.66666667 176.65368,8.44155844 L176.65368,8.44155844 Z" id="Path" fill="#000000"></path>
                        <path d="M195.731602,2.19480519 C175.978355,28.8701299 156.112554,55.4329004 136.077922,81.8831169 C104.506494,123.584416 72.5411255,165.004329 40.2943723,206.142857 C31.6839827,193.142857 22.7922078,185.095238 16.3203463,180.08658 C15.5324675,179.52381 4.44588745,171.025974 3.03896104,172.489177 C1.96969697,173.614719 6.86580087,179.917749 10.9177489,184.87013 C16.3203463,198.376623 21.5541126,212.502165 26.5627706,227.134199 C28.6450216,233.268398 30.6709957,239.402597 32.5844156,245.424242 C39.1125541,232.593074 45.5844156,219.761905 52.1125541,206.987013 C63.3116883,192.298701 80.1948052,170.181818 91.4502165,155.493506 C130.112554,104.95671 168.774892,54.4761905 207.549784,4.05194805 C203.554113,3.48917749 199.670996,2.87012987 195.731602,2.19480519 Z" id="Path" fill="#828282" opacity="0.29"></path>
                    </g>
                    <g id="leg_left" transform="translate(69.783550, 246.493506)">
                        <path d="M182.450216,0.112554113 C167.987013,19.3030303 153.467532,38.4372294 138.948052,57.5151515 C101.805195,106.363636 64.4372294,154.987013 26.8441558,203.497835 C29.4329004,203.948052 33.3160173,205.017316 37.4805195,207.493506 C41.1948052,209.688312 43.8398268,212.277056 45.4155844,214.134199 C99.4978355,144.181818 153.580087,74.1731602 207.718615,4.22077922 C199.220779,2.81385281 190.835498,1.46320346 182.450216,0.112554113 Z" id="Path" stroke="#000000" stroke-width="1.68831169" fill="#FFFFFF"></path>
                        <path d="M1.63203463,170.012987 C-0.506493506,171.251082 0.562770563,176.878788 0.956709957,179.073593 C3.26406926,191.17316 7.09090909,213.233766 12.1558442,242.666667 C18.965368,243.623377 25.8311688,244.636364 32.6406926,245.593074 C37.4805195,236.757576 42.3766234,227.922078 47.2164502,219.030303 C46.5974026,217.454545 45.6406926,215.090909 44.2337662,212.38961 C41.025974,206.424242 37.6493506,202.766234 33.9350649,198.714286 C22.3419913,186.164502 19.4718615,182.787879 12.6060606,176.766234 C5.68398268,170.575758 3.0952381,169.168831 1.63203463,170.012987 Z" id="Path" stroke="#000000" stroke-width="1.68831169" fill="#FFFFFF"></path>
                        <path d="M3.82683983,175.528139 C11.7056277,184.138528 14.6883117,196.406926 18.5151515,207.099567 C22.9047619,219.255411 27.2380952,231.354978 31.6277056,243.510823 C31.965368,244.52381 33.5974026,244.073593 33.2597403,243.060606 C28.6450216,230.229437 24.030303,217.398268 19.4155844,204.510823 C15.7012987,194.155844 12.6623377,182.619048 5.06493506,174.290043 C4.27705628,173.558442 3.0952381,174.74026 3.82683983,175.528139 L3.82683983,175.528139 Z" id="Path" fill="#000000"></path>
                        <path d="M39.95671,187.74026 C47.047619,186.277056 54.3073593,190.779221 56.2207792,197.701299 C56.5021645,198.770563 58.1341991,198.320346 57.8528139,197.251082 C55.6580087,189.372294 47.4415584,184.47619 39.5064935,186.108225 C38.4372294,186.333333 38.8874459,187.909091 39.95671,187.74026 L39.95671,187.74026 Z" id="Path" fill="#000000"></path>
                        <path d="M52.2813853,172.095238 C59.0909091,171.025974 65.7316017,175.809524 67.025974,182.562771 C67.2510823,183.632035 68.8831169,183.181818 68.6580087,182.112554 C67.1948052,174.402597 59.5411255,169.225108 51.8311688,170.463203 C50.7619048,170.632035 51.2121212,172.264069 52.2813853,172.095238 L52.2813853,172.095238 Z" id="Path" fill="#000000"></path>
                        <path d="M65.7316017,154.761905 C73.047619,151.666658 81.038961,156.450216 81.8268398,164.329004 C81.9393939,165.398268 83.6277056,165.398268 83.5151515,164.329004 C82.6147186,155.04329 73.4415584,149.69697 64.8874459,153.298701 C63.8744589,153.748918 64.7186147,155.212121 65.7316017,154.761905 L65.7316017,154.761905 Z" id="Path" fill="#000000"></path>
                        <path d="M76.3116883,140.467532 C80.3636364,139.17316 84.3030303,138.666667 87.7359307,141.705628 C90.3246753,144.012987 91.4502165,147.333333 91.95671,150.709957 C92.1255411,151.779221 93.7575758,151.329004 93.5887446,150.25974 C93.025974,146.264069 91.4502165,142.324675 88.0735931,139.848485 C84.2467532,136.978355 80.1948052,137.484848 75.8614719,138.835498 C74.7922078,139.17316 75.2424242,140.805195 76.3116883,140.467532 L76.3116883,140.467532 Z" id="Path" fill="#000000"></path>
                        <path d="M87.8484848,124.428571 C95.6147186,121.78355 103.718615,126.679654 104.562771,134.896104 C104.675325,135.965368 106.363636,135.965368 106.251082,134.896104 C105.294372,125.61039 96.2900433,119.701299 87.3982684,122.796537 C86.3852814,123.190476 86.8354978,124.822511 87.8484848,124.428571 L87.8484848,124.428571 Z" id="Path" fill="#000000"></path>
                        <path d="M101.411255,107.545455 C109.064935,105.575758 116.324675,110.471861 117.506494,118.238095 C117.675325,119.307359 119.307359,118.857143 119.138528,117.787879 C117.844156,109.064935 109.458874,103.718615 100.961039,105.91342 C99.8917749,106.194805 100.341991,107.82684 101.411255,107.545455 L101.411255,107.545455 Z" id="Path" fill="#000000"></path>
                        <path d="M111.935065,93.5887446 C115.255411,91.2813853 119.532468,92.0692641 122.515152,94.5454545 C125.61039,97.1341991 127.12987,100.961039 128.367965,104.731602 C128.705628,105.744589 130.337662,105.294372 130,104.281385 C128.536797,99.8354978 126.5671,95.1082251 122.458874,92.4069264 C119.025974,90.1558442 114.467532,89.7619048 111.034632,92.1255411 C110.190476,92.7445887 111.034632,94.2077922 111.935065,93.5887446 L111.935065,93.5887446 Z" id="Path" fill="#000000"></path>
                        <path d="M123.471861,80.1385281 C126.5671,78.2251082 130.393939,79.6320346 133.376623,81.1515152 C136.640693,82.8398268 138.666667,85.6536797 139.398268,89.1991342 C139.623377,90.2683983 141.255411,89.8181818 141.030303,88.7489177 C140.12987,84.4718615 137.428571,81.2077922 133.489177,79.3506494 C130.056277,77.7186147 126.060606,76.5367965 122.571429,78.6753247 C121.727273,79.2380952 122.571429,80.7012987 123.471861,80.1385281 L123.471861,80.1385281 Z" id="Path" fill="#000000"></path>
                        <path d="M135.290043,63.7056277 C142.606061,61.3982684 150.203463,64.7748918 153.12987,71.978355 C153.52381,71.6406926 153.974026,71.3593074 154.367965,71.021645 C154.199134,70.9090909 154.030303,70.8528139 153.805195,70.7402597 C152.848485,70.2900433 151.948052,71.6969697 152.961039,72.2034632 C153.12987,72.3160173 153.298701,72.3722944 153.52381,72.4848485 C154.08658,72.7662338 155.04329,72.2597403 154.761905,71.5281385 C151.554113,63.5367965 143.112554,59.4848485 134.839827,62.1298701 C133.82684,62.4112554 134.277056,64.04329 135.290043,63.7056277 L135.290043,63.7056277 Z" id="Path" fill="#000000"></path>
                        <path d="M147.445887,47.4415584 C155.549784,45.8095238 162.865801,51.6623377 163.203463,59.8787879 C163.25974,60.9480519 164.948052,60.9480519 164.891775,59.8787879 C164.497835,50.4805195 156.225108,44.008658 146.995671,45.8095238 C145.926407,46.034632 146.376623,47.6666667 147.445887,47.4415584 L147.445887,47.4415584 Z" id="Path" fill="#000000"></path>
                        <path d="M157.406926,33.5974026 C165.341991,30.6709957 173.614719,35.1731602 175.415584,43.5021645 C175.640693,44.5714286 177.272727,44.1212121 177.047619,43.0519481 C175.134199,33.9350649 165.735931,28.7575758 156.95671,31.965368 C155.943723,32.3593074 156.393939,33.991342 157.406926,33.5974026 L157.406926,33.5974026 Z" id="Path" fill="#000000"></path>
                        <path d="M167.930736,21.7792208 C175.753247,19.1341991 183.632035,23.6363636 185.264069,31.7402597 C185.489177,32.8095238 187.121212,32.3593074 186.896104,31.2900433 C185.095238,22.3419913 176.090909,17.2207792 167.480519,20.1471861 C166.467532,20.5411255 166.861472,22.1731602 167.930736,21.7792208 L167.930736,21.7792208 Z" id="Path" fill="#000000"></path>
                        <path d="M176.766234,8.4978355 C184.138528,7.14718615 193.199134,9.11688312 195.393939,17.3333333 C195.675325,18.4025974 197.307359,17.952381 197.025974,16.8831169 C194.549784,7.70995671 184.588745,5.4025974 176.316017,6.86580087 C175.246753,7.03463203 175.69697,8.66666667 176.766234,8.4978355 L176.766234,8.4978355 Z" id="Path" fill="#000000"></path>
                        <path d="M195.844156,2.25108225 C176.090909,28.9264069 156.225108,55.4891775 136.190476,81.9393939 C104.619048,123.640693 72.6536797,165.060606 40.4069264,206.199134 C31.7965368,193.199134 22.9047619,185.151515 16.4329004,180.142857 C15.6450216,179.580087 4.55844156,171.082251 3.15151515,172.545455 C2.08225108,173.670996 6.97835498,179.974026 11.030303,184.926407 C16.4329004,198.4329 21.6666667,212.558442 26.6753247,227.190476 C28.7575758,233.324675 30.7835498,239.458874 32.6969697,245.480519 C39.2251082,232.649351 45.6969697,219.818182 52.2251082,207.04329 C63.4242424,192.354978 80.3073593,170.238095 91.5627706,155.549784 C130.225108,105.012987 168.887446,54.5324675 207.662338,4.10822511 C203.722944,3.54545455 199.78355,2.87012987 195.844156,2.25108225 Z" id="Path" fill="#828282" opacity="0.29"></path>
                    </g>
                    <g id="hand_right" transform="translate(126.060606, 91.168831)">
                        <path d="M31.5151515,0.506493506 C26.8441558,6.58441558 21.2727273,14.7445887 16.2077922,25.04329 C14.5757576,28.3636364 9.3982684,39.1125541 5.45887446,54.0822511 C3.20779221,62.5800866 1.01298701,73.7229437 0.337662338,87.004329 C6.6969697,87.961039 13.0562771,88.8614719 19.4155844,89.8181818 C21.047619,77.8311688 24.0865801,63.3116883 29.6580087,47.4415584 C34.1038961,34.7792208 39.2251082,23.9177489 44.1774892,14.9134199 C39.95671,10.1298701 35.7359307,5.34632035 31.5151515,0.506493506 Z" id="Path" stroke="#000000" stroke-width="1.68831169" fill="#FFFFFF"></path>
                        <path d="M1.96969697,80.1385281 C7.25974026,76.3116883 14.7445887,77.04329 19.0779221,81.9393939 C19.8095238,82.7272727 20.991342,81.5454545 20.2597403,80.7575758 C15.4199134,75.3549784 6.97835498,74.3982684 1.12554113,78.6753247 C0.281385281,79.2943723 1.12554113,80.7575758 1.96969697,80.1385281 L1.96969697,80.1385281 Z" id="Path" fill="#000000"></path>
                        <path d="M2.98268398,68.038961 C8.55411255,61.7922078 18.5714286,63.9307359 20.9350649,72.034632 C21.2164502,73.047619 22.8484848,72.6536797 22.5670996,71.5844156 C19.8095238,62.2987013 8.27272727,59.5974026 1.8008658,66.8571429 C1.06926407,67.6450216 2.25108225,68.8268398 2.98268398,68.038961 L2.98268398,68.038961 Z" id="Path" fill="#000000"></path>
                        <path d="M5.57142857,56.5021645 C11.1428571,49.9177489 21.4978355,52.1125541 23.7489177,60.4978355 C24.030303,61.5670996 25.6623377,61.1168831 25.3809524,60.047619 C22.8484848,50.4805195 10.8051948,47.6666667 4.38961039,55.2640693 C3.65800866,56.1082251 4.83982684,57.3463203 5.57142857,56.5021645 L5.57142857,56.5021645 Z" id="Path" fill="#000000"></path>
                        <path d="M8.77922078,46.1471861 C11.2554113,43.1082251 15.3636364,42.0952381 19.021645,43.4458874 C22.7359307,44.7965368 25.2683983,48.1168831 26.9004329,51.5497835 C27.3506494,52.5064935 28.8138528,51.6623377 28.3636364,50.7056277 C26.4502165,46.5974026 23.2424242,42.8268398 18.7402597,41.5887446 C14.6883117,40.4632035 10.2424242,41.6450216 7.5974026,44.965368 C6.92207792,45.7532468 8.1038961,46.991342 8.77922078,46.1471861 L8.77922078,46.1471861 Z" id="Path" fill="#000000"></path>
                        <path d="M12.9437229,34.047619 C16.6017316,31.6839827 20.5411255,31.2337662 24.1428571,34.1038961 C26.7878788,36.2424242 29.2077922,39.0562771 30.2207792,42.3203463 C30.5584416,43.3333333 32.1904762,42.8831169 31.8528139,41.8701299 C30.5584416,37.8181818 27.2943723,33.8787879 23.6926407,31.6839827 C19.9220779,29.3766234 15.7012987,30.2770563 12.1558442,32.5844156 C11.1991342,33.2034632 12.04329,34.6666667 12.9437229,34.047619 L12.9437229,34.047619 Z" id="Path" fill="#000000"></path>
                        <path d="M18.2900433,23.1861472 C22.1168831,21.7229437 25.9437229,20.9350649 29.2640693,23.974026 C31.4588745,26 33.8225108,29.038961 34.4415584,32.021645 C34.8917749,31.7402597 35.3982684,31.4588745 35.8484848,31.1774892 C35.6796537,31.0649351 35.5108225,30.8961039 35.3419913,30.7835498 C34.4978355,30.1082251 33.3160173,31.2900433 34.1601732,31.965368 C34.3290043,32.0779221 34.4978355,32.2467532 34.6666667,32.3593074 C35.3419913,32.8658009 36.2424242,32.4155844 36.0735931,31.5151515 C35.2857143,27.9134199 32.3030303,23.974026 29.3766234,21.8354978 C25.7186147,19.1341991 21.7792208,20.034632 17.8398268,21.4978355 C16.8268398,21.9480519 17.2770563,23.5800866 18.2900433,23.1861472 L18.2900433,23.1861472 Z" id="Path" fill="#000000"></path>
                        <path d="M24.7619048,11.3679654 C32.978355,8.83549784 37.987013,17.952381 38.4372294,24.8181818 C38.4935065,25.8874459 40.1818182,25.8874459 40.1255411,24.8181818 C39.5627706,16.8831169 33.6536797,6.86580087 24.3116883,9.73593074 C23.2987013,10.017316 23.7489177,11.6493506 24.7619048,11.3679654 L24.7619048,11.3679654 Z" id="Path" fill="#000000"></path>
                    </g>
                    <g id="torso" transform="translate(156.450216, 75.411255)">
                        <path d="M120.038961,27.2943723 C120.038961,27.2943723 129.212121,84.8658009 129.549784,87.2294372 C129.943723,89.6493506 124.935065,175.865801 124.935065,175.865801 L153.298701,149.190476 C148.852814,101.242424 144.406926,53.2380952 139.961039,5.29004329 C133.376623,12.6623377 126.679654,19.978355 120.038961,27.2943723 Z" id="Path" stroke="#000000" stroke-width="1.68831169" fill="#000000"></path>
                        <polygon id="Path" stroke="#000000" stroke-width="1.68831169" fill="#FFFFFF" points="0.45021645 13.8441558 40.0692641 0.393939394 140.017316 5.29004329 120.038961 27.2943723"></polygon>
                        <path d="M0.45021645,13.8441558 L20.3160173,89.1991342 C19.1904762,112.272727 18.1212121,135.402597 16.995671,158.47619 C52.95671,164.272727 88.974026,170.069264 124.935065,175.922078 C126.623377,147.164502 128.255411,118.463203 129.943723,89.7056277 L120.038961,27.3506494 L0.45021645,13.8441558 Z" id="Path" stroke="#000000" stroke-width="1.68831169" fill="#FFFFFF"></path>
                        <path d="M79.969697,38.7186147 C79.5757576,43.1082251 79.969697,47.3852814 81.2640693,51.6060606 C81.6017316,52.6190476 83.2337662,52.2251082 82.8961039,51.1558442 C81.6580087,47.047619 81.2640693,42.9393939 81.6580087,38.7186147 C81.7705628,37.6493506 80.0822511,37.6493506 79.969697,38.7186147 L79.969697,38.7186147 Z" id="Path" fill="#000000"></path>
                        <path d="M81.1515152,39.3376623 C88.4112554,39.6753247 95.6709957,40.1818182 102.930736,40.9134199 C104,41.025974 104,39.3376623 102.930736,39.2251082 C95.6709957,38.4935065 88.4675325,37.9307359 81.1515152,37.6493506 C80.0822511,37.5930736 80.0822511,39.2813853 81.1515152,39.3376623 L81.1515152,39.3376623 Z" id="Path" fill="#000000"></path>
                        <path d="M82.3896104,52.9004329 C89.1991342,53.8008658 96.0649351,54.1948052 102.930736,54.0822511 C104,54.0822511 104,52.3939394 102.930736,52.3939394 C96.0649351,52.5064935 89.1991342,52.1125541 82.3896104,51.2121212 C81.3203463,51.04329 81.3203463,52.7316017 82.3896104,52.9004329 L82.3896104,52.9004329 Z" id="Path" fill="#000000"></path>
                        <path d="M102.255411,41.1385281 C103.887446,44.7402597 104.056277,48.6233766 102.818182,52.3939394 C102.480519,53.4069264 104.112554,53.8571429 104.450216,52.8441558 C105.800866,48.6233766 105.519481,44.3463203 103.718615,40.2943723 C103.268398,39.2813853 101.805195,40.1255411 102.255411,41.1385281 L102.255411,41.1385281 Z" id="Path" fill="#000000"></path>
                        <path d="M104.562771,44.1774892 C105.744589,44.1212121 106.87013,44.965368 107.207792,46.1471861 C107.4329,47.047619 106.701299,48.9047619 105.575758,48.0606061 C104.731602,47.3852814 103.887446,48.8484848 104.731602,49.5238095 C106.645022,50.9307359 108.952381,48.7922078 109.008658,46.8225108 C109.064935,44.4588745 106.926407,42.4891775 104.619048,42.5454545 C103.493506,42.5454545 103.437229,44.2337662 104.562771,44.1774892 L104.562771,44.1774892 Z" id="Path" fill="#000000"></path>
                        <path d="M83.4025974,42.4891775 C83.2900433,44.9090909 83.5714286,47.2727273 84.1904762,49.6363636 C84.4718615,50.7056277 86.1038961,50.2554113 85.8225108,49.1861472 C85.2597403,46.991342 85.034632,44.7965368 85.0909091,42.4891775 C85.1471861,41.3636364 83.4588745,41.3636364 83.4025974,42.4891775 L83.4025974,42.4891775 Z" id="Path" fill="#000000"></path>
                        <path d="M84.5281385,42.6580087 C85.8787879,42.7142857 87.2294372,42.8268398 88.5800866,42.995671 C88.3549784,42.7142857 88.1861472,42.4329004 87.961039,42.2077922 C87.7922078,44.6277056 87.8484848,47.047619 88.0735931,49.5238095 C88.1861472,50.5930736 89.8744589,50.5930736 89.7619048,49.5238095 C89.4805195,47.1038961 89.4805195,44.6839827 89.6493506,42.2077922 C89.6493506,41.8701299 89.3679654,41.4199134 89.030303,41.4199134 C87.5108225,41.1948052 86.047619,41.025974 84.5281385,40.969697 C83.4588745,40.969697 83.4588745,42.6580087 84.5281385,42.6580087 L84.5281385,42.6580087 Z" id="Path" fill="#000000"></path>
                        <path d="M85.1471861,50.3679654 C86.3852814,50.5367965 87.6233766,50.5367965 88.8614719,50.3116883 C89.9307359,50.0865801 89.4805195,48.4545455 88.4112554,48.6796537 C87.5108225,48.8484848 86.5541126,48.9047619 85.5974026,48.7359307 C85.1471861,48.6796537 84.6969697,48.8484848 84.5844156,49.2987013 C84.4718615,49.6926407 84.6969697,50.3116883 85.1471861,50.3679654 L85.1471861,50.3679654 Z" id="Path" fill="#000000"></path>
                        <path d="M90.8311688,42.0952381 C90.4372294,44.7402597 90.5497835,47.3852814 91.1688312,50.030303 C91.4502165,51.0995671 93.0822511,50.6493506 92.8008658,49.5800866 C92.2380952,47.2727273 92.0692641,44.9090909 92.4632035,42.5454545 C92.6320346,41.4761905 91,41.025974 90.8311688,42.0952381 L90.8311688,42.0952381 Z" id="Path" fill="#000000"></path>
                        <path d="M91.8441558,42.7142857 C92.969697,42.995671 94.1515152,43.2770563 95.2770563,43.5584416 C95.0519481,43.2770563 94.8831169,42.995671 94.6580087,42.7705628 C94.8268398,45.021645 94.995671,47.2727273 95.2207792,49.4675325 C95.3333333,50.5367965 97.021645,50.5367965 96.9090909,49.4675325 C96.7402597,47.2164502 96.5714286,44.965368 96.3463203,42.7705628 C96.2900433,42.3766234 96.1212121,42.038961 95.7272727,41.982684 C94.6017316,41.7012987 93.4199134,41.4199134 92.2943723,41.1385281 C91.2251082,40.8571429 90.7748918,42.4891775 91.8441558,42.7142857 L91.8441558,42.7142857 Z" id="Path" fill="#000000"></path>
                        <path d="M92.2380952,50.4805195 C93.5887446,51.1558442 95.1082251,51.0995671 96.3463203,50.3116883 C97.3030303,49.7489177 96.4025974,48.2857143 95.5021645,48.8484848 C94.7705628,49.2987013 93.8701299,49.3549784 93.0822511,49.017316 C92.1255411,48.5670996 91.2813853,50.030303 92.2380952,50.4805195 L92.2380952,50.4805195 Z" id="Path" fill="#000000"></path>
                        <path d="M97.2467532,42.6017316 C97.0779221,44.6839827 96.965368,46.9350649 97.4718615,48.961039 C97.8658009,50.7056277 99.6103896,50.5930736 101.073593,50.2554113 C102.142857,49.974026 101.692641,48.3419913 100.623377,48.6233766 C100.17316,48.7359307 99.7792208,48.7922078 99.3290043,48.7922078 C99.047619,48.9047619 98.9350649,48.7359307 99.047619,48.2857143 C98.8787879,47.7229437 98.8787879,46.991342 98.8787879,46.3722944 C98.8225108,45.1341991 98.8225108,43.8961039 98.9350649,42.6017316 C99.047619,41.5324675 97.3593074,41.5324675 97.2467532,42.6017316 L97.2467532,42.6017316 Z" id="Path" fill="#000000"></path>
                        <path d="M98.2597403,43.1082251 C98.8225108,43.2207792 99.4978355,43.2770563 100.060606,43.4458874 C100.060606,43.4458874 100.5671,43.6147186 100.454545,43.5021645 C100.623377,43.6709957 100.454545,44.6277056 100.454545,44.8528139 C100.454545,46.3722944 100.510823,47.8917749 100.510823,49.3549784 C100.510823,50.4242424 102.199134,50.4242424 102.199134,49.3549784 C102.199134,48.2857143 102.142857,47.2164502 102.142857,46.1471861 C102.142857,45.1904762 102.255411,44.0649351 102.08658,43.1082251 C101.805195,41.5887446 99.9480519,41.6450216 98.7099567,41.4199134 C97.6406926,41.2510823 97.1904762,42.8831169 98.2597403,43.1082251 L98.2597403,43.1082251 Z" id="Path" fill="#000000"></path>
                        <path d="M7.70995671,24.5367965 C13.9004329,44.2337662 19.4155844,64.1558442 24.3679654,84.2467532 C24.6493506,85.3160173 26.2813853,84.8658009 26,83.7965368 C21.047619,63.7619048 15.5324675,43.8398268 9.34199134,24.0865801 C9.004329,23.0735931 7.37229437,23.5238095 7.70995671,24.5367965 L7.70995671,24.5367965 Z" id="Path" fill="#000000"></path>
                        <path d="M25.6623377,90.2683983 C24.5930736,110.69697 23.1298701,131.069264 21.1601732,151.441558 C21.047619,152.510823 22.7359307,152.510823 22.8484848,151.441558 C24.7619048,131.069264 26.2813853,110.69697 27.3506494,90.2683983 C27.4069264,89.1991342 25.7186147,89.1991342 25.6623377,90.2683983 L25.6623377,90.2683983 Z" id="Path" fill="#000000"></path>
                        <path d="M22.3419913,153.12987 C54.6450216,156.337662 86.7229437,161.458874 118.406926,168.437229 C119.47619,168.662338 119.926407,167.030303 118.857143,166.805195 C87.004329,159.82684 54.7575758,154.705628 22.3419913,151.441558 C21.2727273,151.329004 21.2727273,153.017316 22.3419913,153.12987 L22.3419913,153.12987 Z" id="Path" fill="#000000"></path>
                        <path d="M8.77922078,24.6493506 C31.5714286,28.4199134 54.4199134,31.5151515 77.3809524,33.9350649 C78.4502165,34.047619 78.4502165,32.3593074 77.3809524,32.2467532 C54.5887446,29.8268398 31.8528139,26.7878788 9.22943723,23.017316 C8.16017316,22.8484848 7.70995671,24.4805195 8.77922078,24.6493506 L8.77922078,24.6493506 Z" id="Path" fill="#000000"></path>
                        <path d="M27.4069264,148.74026 C27.2943723,148.402597 27.1255411,148.008658 27.012987,147.670996 C27.012987,147.839827 27.012987,147.952381 27.012987,148.121212 C27.2380952,147.502165 28.1948052,147.614719 28.2510823,148.233766 C28.3636364,148.852814 27.5194805,149.021645 27.2943723,148.571429 C26.7878788,147.614719 25.3246753,148.458874 25.8311688,149.415584 C26.3939394,150.372294 27.6320346,150.766234 28.6450216,150.372294 C29.7705628,149.922078 30.2207792,148.627706 29.8268398,147.558442 C29.3766234,146.376623 28.1948052,145.813853 27.012987,146.151515 C26.4502165,146.320346 26,146.658009 25.6623377,147.164502 C25.4372294,147.445887 25.3246753,147.78355 25.3809524,148.177489 C25.4372294,148.515152 25.6623377,148.909091 25.7748918,149.246753 C26.1688312,150.203463 27.8008658,149.753247 27.4069264,148.74026 L27.4069264,148.74026 Z" id="Path" fill="#000000"></path>
                        <path d="M14.5194805,30.2770563 C14.5757576,30.3333333 14.5757576,30.1645022 14.5194805,30.2770563 C14.5194805,30.1645022 14.5194805,30.2207792 14.5194805,30.1645022 C14.5757576,30.0519481 14.6320346,29.995671 14.6883117,29.995671 C14.6883117,29.995671 14.8008658,29.9393939 14.7445887,29.995671 C14.7445887,29.995671 14.7445887,29.995671 14.6883117,29.995671 C14.8008658,30.0519481 14.8008658,30.0519481 14.7445887,29.995671 C14.8571429,30.0519481 14.9134199,30.1082251 14.969697,30.2207792 C14.9134199,30.1082251 15.025974,30.3333333 15.025974,30.3896104 C15.025974,30.3333333 14.969697,30.4458874 15.025974,30.3896104 C15.0822511,30.2770563 14.9134199,30.5021645 15.025974,30.3896104 C14.9134199,30.5021645 15.025974,30.3896104 14.9134199,30.4458874 C15.025974,30.3896104 14.8008658,30.4458874 14.8008658,30.4458874 C14.969697,30.4458874 14.6883117,30.4458874 14.6883117,30.4458874 C14.8008658,30.4458874 14.6320346,30.3896104 14.6320346,30.4458874 C14.5757576,30.3896104 14.5757576,30.3896104 14.6320346,30.4458874 C14.5757576,30.3896104 14.5757576,30.3896104 14.5194805,30.3333333 C14.2380952,29.995671 13.6190476,30.0519481 13.3376623,30.3333333 C13,30.6709957 13.0562771,31.1774892 13.3376623,31.5151515 C13.9004329,32.2467532 15.0822511,32.3593074 15.8701299,31.8528139 C16.7705628,31.2900433 16.9393939,30.1645022 16.4329004,29.2640693 C15.8701299,28.3636364 14.7445887,28.025974 13.8441558,28.5887446 C12.9437229,29.1515152 12.6623377,30.2770563 13.1125541,31.1774892 C13.3376623,31.5714286 13.9004329,31.6839827 14.2943723,31.4588745 C14.6320346,31.1774892 14.7445887,30.6709957 14.5194805,30.2770563 L14.5194805,30.2770563 Z" id="Path" fill="#000000"></path>
                        <path d="M117.675325,65.7878788 C119.47619,73.1038961 121.108225,80.4199134 122.571429,87.7922078 C122.796537,88.8614719 124.428571,88.4112554 124.203463,87.3419913 C122.74026,79.969697 121.108225,72.6536797 119.307359,65.3376623 C119.082251,64.2683983 117.450216,64.7186147 117.675325,65.7878788 L117.675325,65.7878788 Z" id="Path" fill="#000000"></path>
                        <path d="M123.077922,88.1298701 C122.852814,96.4025974 122.290043,104.731602 121.38961,112.948052 C121.277056,114.017316 122.965368,114.017316 123.077922,112.948052 C123.922078,104.675325 124.484848,96.4025974 124.766234,88.1298701 C124.766234,87.0606061 123.077922,87.0606061 123.077922,88.1298701 L123.077922,88.1298701 Z" id="Path" fill="#000000"></path>
                    </g>
                    <g id="book" transform="translate(92.294372, 136.190476)">
                        <path d="M0,6.58441558 C0.506493506,6.6969697 4.55844156,7.42857143 7.65367965,4.61471861 C9.45454545,2.98268398 10.017316,1.01298701 10.2424242,0.168831169 C11.3116883,1.40692641 12.4935065,2.64502165 13.95671,3.88311688 C20.7662338,9.62337662 27.2380952,8.66666667 33.5411255,11.6493506 C37.030303,13.2813853 41.7012987,16.7142857 45.7532468,24.5930736 C48.2294372,22.9047619 51.9437229,20.5974026 56.8398268,18.6839827 C66.969697,14.6883117 74.6796537,15.1948052 80.9264069,14.5194805 C88.5800866,13.7316017 99.1038961,10.5800866 111.541126,0.225108225 C113.5671,14.7445887 115.311688,29.8831169 116.718615,45.6406926 C119.194805,74.1731602 120.151515,101.12987 120.038961,126.17316 C79.969697,86.2727273 39.95671,46.4285714 0,6.58441558 Z" id="Path" stroke="#000000" stroke-width="1.68831169" fill="#FFFFFF"></path>
                        <path d="M0,6.58441558 C5.00865801,40.2380952 10.0735931,73.9480519 15.0822511,107.601732 C24.3116883,119.813853 33.4848485,132.082251 42.7142857,144.294372 C44.1774892,145.307359 46.3722944,146.489177 49.1861472,147.108225 C56.4458874,148.627706 62.2987013,144.969697 63.7619048,144.012987 C86.6103896,138.891775 109.458874,133.770563 132.307359,128.705628 C127.580087,87.961039 122.852814,47.1601732 118.125541,6.41558442 C97.021645,13.6190476 75.8614719,20.8225108 54.7575758,28.0822511 C54.3073593,28.4199134 49.8051948,31.6839827 44.4588745,29.995671 C40.8008658,28.8701299 38.9437229,26.1125541 38.4372294,25.2683983 C25.6060606,18.965368 12.7748918,12.7748918 0,6.58441558 Z" id="Path" fill="#0099FF"></path>
                        <path d="M36.8614719,30.3333333 C39.0562771,66.6320346 41.982684,102.930736 45.6406926,139.116883 C45.7532468,140.186147 47.4415584,140.186147 47.3290043,139.116883 C43.6709957,102.930736 40.7445887,66.6320346 38.5497835,30.3333333 C38.4935065,29.2640693 36.8051948,29.2077922 36.8614719,30.3333333 L36.8614719,30.3333333 Z" id="Path" fill="#000000"></path>
                        <path d="M53.012987,47.8917749 C54.5324675,71.6969697 55.4891775,95.5584416 55.9393939,119.419913 C55.9393939,120.489177 57.6277056,120.489177 57.6277056,119.419913 C57.1774892,95.5584416 56.2207792,71.6969697 54.7012987,47.8917749 C54.6450216,46.8225108 52.95671,46.8225108 53.012987,47.8917749 L53.012987,47.8917749 Z" id="Path" fill="#000000"></path>
                        <path d="M71.0779221,38.2121212 C71.3030303,40.7445887 71.5281385,43.2207792 71.7532468,45.7532468 C71.8658009,47.047619 71.8095238,48.5670996 72.3160173,49.8051948 C73.6666667,53.012987 77.7186147,51.0995671 80.1385281,50.4242424 C88.5238095,48.1168831 96.7965368,45.5844156 104.506494,41.5324675 C105.463203,41.025974 104.619048,39.5627706 103.662338,40.0692641 C97.7532468,43.1645022 91.4502165,45.3593074 85.034632,47.2727273 C83.5714286,47.7229437 82.1082251,48.1168831 80.6450216,48.5108225 C79.3506494,48.8484848 77.6060606,49.7489177 76.2554113,49.6926407 C72.3722944,49.5800866 72.991342,40.8008658 72.7662338,38.1558442 C72.6536797,37.1428571 70.965368,37.1428571 71.0779221,38.2121212 L71.0779221,38.2121212 Z" id="Path" fill="#000000"></path>
                        <path d="M72.7099567,38.1558442 C77.7186147,36.6363636 82.7272727,35.1168831 87.6796537,33.5974026 C92.6320346,32.0779221 97.8095238,29.9393939 103.04329,29.7142857 C102.761905,29.4329004 102.480519,29.1515152 102.199134,28.8701299 C102.142857,33.2034632 102.649351,37.4805195 103.718615,41.7012987 C104,42.7705628 105.632035,42.3203463 105.350649,41.2510823 C104.281385,37.1991342 103.831169,33.0909091 103.887446,28.8701299 C103.887446,28.4199134 103.493506,28.025974 103.04329,28.025974 C97.978355,28.2510823 93.0822511,30.2207792 88.2987013,31.6277056 C82.952381,33.2597403 77.6060606,34.8917749 72.2597403,36.5238095 C71.2467532,36.8614719 71.6406926,38.4935065 72.7099567,38.1558442 L72.7099567,38.1558442 Z" id="Path" fill="#000000"></path>
                    </g>
                    <g id="fingers_right" transform="translate(95.108225, 182.337662)">
                        <path d="M1.40692641,7.03463203 C1.35064935,7.82251082 1.23809524,9.11688312 1.57575758,13.2251082 C1.63203463,14.1818182 1.85714286,16.3766234 2.36363636,20.7662338 C2.81385281,24.1991342 2.98268398,25.9437229 3.37662338,27.969697 C3.88311688,30.6147186 4.38961039,32.7532468 4.78354978,34.2164502 C3.43290043,35.6796537 3.48917749,37.8181818 4.61471861,38.8311688 C5.51515152,39.6753247 7.03463203,39.8441558 7.99134199,39.1688312 C8.55411255,38.7748918 8.89177489,38.04329 9.004329,35.5670996 C9.22943723,30.8398268 8.1038961,30.2207792 8.66666667,27.2943723 C9.06060606,25.2121212 9.73593074,24.6493506 9.56709957,22.7922078 C9.51082251,22.4545455 9.45454545,21.7792208 8.44155844,19.4155844 C6.6969697,15.1948052 6.13419913,15.2510823 5.96536797,13.6753247 C5.7965368,11.987013 6.41558442,11.7619048 6.24675325,9.06060606 C6.19047619,7.48484848 5.90909091,6.35930736 5.85281385,6.07792208 C5.45887446,4.44588745 4.33333333,1.18181818 3.26406926,1.23809524 C1.96969697,1.35064935 1.46320346,6.52813853 1.40692641,7.03463203 Z" id="Path" fill="#FFFFFF"></path>
                        <path d="M1.8008658,0.844155844 C0.562770563,3.26406926 0.112554113,6.02164502 0.844155844,8.72294372 C1.29437229,10.5238095 2.58874459,12.9437229 4.83982684,12.5497835 C6.75324675,12.2121212 7.14718615,10.017316 7.09090909,8.44155844 C6.97835498,5.7965368 5.7965368,3.37662338 3.995671,1.40692641 C3.26406926,0.619047619 2.08225108,1.8008658 2.81385281,2.58874459 C3.77056277,3.6017316 4.5021645,4.78354978 4.95238095,6.07792208 C5.17748918,6.80952381 5.34632035,7.65367965 5.4025974,8.44155844 C5.45887446,9.62337662 5.68398268,9.96103896 4.22077922,9.96103896 C2.87012987,9.9047619 2.87012987,9.51082251 2.47619048,8.27272727 C2.30735931,7.5974026 2.19480519,6.86580087 2.19480519,6.13419913 C2.13852814,4.55844156 2.53246753,3.0952381 3.26406926,1.68831169 C3.77056277,0.731601732 2.30735931,-0.112554113 1.8008658,0.844155844 L1.8008658,0.844155844 Z" id="Path" fill="#000000"></path>
                        <path d="M0.956709957,8.27272727 C0.393939394,12.2121212 0.731601732,16.038961 2.30735931,19.6969697 C3.26406926,21.9480519 4.95238095,24.9307359 7.65367965,25.3809524 C9.67965368,25.7186147 10.6363636,24.4242424 10.3549784,22.5670996 C9.79220779,18.5714286 6.92207792,15.3073593 6.3030303,11.2554113 C6.13419913,10.1861472 4.5021645,10.6363636 4.67099567,11.7056277 C4.95238095,13.5064935 5.51515152,15.1385281 6.24675325,16.7705628 C6.58441558,17.5584416 10.1298701,23.9177489 6.86580087,23.2424242 C4.8961039,22.8484848 3.37662338,18.008658 2.98268398,16.5454545 C2.25108225,13.95671 2.19480519,11.3116883 2.58874459,8.66666667 C2.75757576,7.65367965 1.12554113,7.2034632 0.956709957,8.27272727 L0.956709957,8.27272727 Z" id="Path" fill="#000000"></path>
                        <path d="M1.29437229,17.2770563 C1.29437229,20.8787879 1.91341991,26.9004329 5.06493506,29.2640693 C6.07792208,30.0519481 7.42857143,29.995671 8.44155844,29.1515152 C9.73593074,28.025974 9.67965368,26.2813853 9.51082251,24.7056277 C9.3982684,23.6363636 7.70995671,23.6363636 7.82251082,24.7056277 C7.87878788,25.1558442 7.93506494,25.6060606 7.93506494,26.0562771 C6.52813853,27.6883117 5.57142857,27.8571429 5.12121212,26.6190476 C4.44588745,26.0562771 4.16450216,24.5367965 3.93939394,23.6926407 C3.26406926,21.6103896 2.98268398,19.4718615 3.03896104,17.2770563 C2.98268398,16.1515152 1.29437229,16.1515152 1.29437229,17.2770563 L1.29437229,17.2770563 Z" id="Path" fill="#000000"></path>
                        <path d="M2.64502165,23.2424242 C2.25108225,26.1125541 2.41991342,28.982684 3.32034632,31.7402597 C3.88311688,33.5411255 4.8961039,36.8051948 6.97835498,37.4242424 C11.4242424,38.7186147 10.1298701,30.2207792 9.67965368,28.1948052 C9.45454545,27.1255411 7.82251082,27.5757576 8.04761905,28.6450216 C8.38528139,30.2207792 8.55411255,31.7965368 8.4978355,33.3722944 C8.4978355,33.9350649 8.44155844,34.4978355 8.27272727,35.1168831 C7.65367965,35.004329 7.03463203,34.8917749 6.41558442,34.7792208 C5.7965368,34.3290043 5.45887446,32.8658009 5.23376623,32.1904762 C4.16450216,29.3203463 3.93939394,26.3376623 4.33333333,23.2987013 C4.5021645,22.1731602 2.81385281,22.1731602 2.64502165,23.2424242 L2.64502165,23.2424242 Z" id="Path" fill="#000000"></path>
                        <path d="M4.05194805,33.9350649 C3.82683983,35.8484848 3.82683983,39 5.7965368,40.1255411 C7.82251082,41.2510823 9.11688312,39.3376623 9.3982684,37.5930736 C9.56709957,36.5238095 7.93506494,36.0735931 7.76623377,37.1428571 C7.70995671,37.5367965 7.65367965,38.2121212 7.37229437,38.4935065 C6.75324675,39.1125541 6.13419913,38.2683983 5.96536797,37.6493506 C5.57142857,36.4675325 5.57142857,35.1168831 5.74025974,33.8787879 C5.85281385,32.8658009 4.16450216,32.8658009 4.05194805,33.9350649 L4.05194805,33.9350649 Z" id="Path" fill="#000000"></path>
                    </g>
                    <g id="hand_left" transform="translate(179.523810, 93.419913)">
                        <path d="M57.6839827,125.722944 C56.952381,123.753247 55.8268398,121.108225 54.3073593,117.95671 C53.6883117,116.718615 52.2251082,113.735931 50.030303,110.134199 C46.0909091,103.718615 44.4025974,102.761905 43.1645022,102.311688 C42.9393939,102.255411 39.7316017,101.12987 38.6060606,102.424242 C36.8051948,104.506494 41.8701299,111.316017 42.4329004,112.103896 C40.9134199,112.385281 38.5497835,112.835498 35.6796537,113.285714 C25.5497835,114.861472 21.4978355,114.636364 14.3506494,115.930736 C6.47186147,117.337662 2.92640693,117 2.19480519,119.082251 C1.57575758,120.770563 3.0952381,122.627706 3.26406926,122.909091 C5.00865801,125.047619 8.55411255,125.666667 11.987013,124.147186 C13.95671,124.034632 15.9264069,123.978355 17.8961039,123.865801 C17.6709957,125.272727 17.5021645,127.298701 18.0649351,129.662338 C18.5151515,131.575758 19.0779221,131.800866 20.3722944,134.952381 C21.8917749,138.722944 21.6103896,139.510823 22.8484848,141.255411 C24.2554113,143.225108 26,144.238095 26.9004329,144.688312 C31.1212121,147.051948 35.6233766,146.207792 44.2337662,145.082251 C47.2164502,144.688312 52,144.069264 58.0779221,143.450216 C57.965368,137.541126 57.7965368,131.632035 57.6839827,125.722944 Z" id="Path" fill="#FFFFFF"></path>
                        <path d="M108.952381,6.75324675 C106.532468,12.04329 109.909091,18.1212121 111.991342,22.5108225 C112.21645,22.961039 115.199134,37.3679654 121.164502,66.2943723 C122.965368,74.9047619 125.441558,87.4545455 128.142857,103.04329 C123.134199,106.082251 117.619048,109.008658 111.484848,111.822511 C91.3376623,120.939394 72.4285714,124.541126 57.6277056,125.835498 C56.8961039,127.298701 55.2640693,131.069264 55.8831169,135.909091 C56.6709957,142.099567 60.4978355,145.87013 61.5670996,146.82684 C67.5887446,145.082251 76.1991342,142.549784 86.4978355,139.398268 C133.939394,124.878788 144.181818,119.645022 147.333333,110.528139 C148.571429,106.87013 147.670996,105.632035 144.969697,91.5627706 C139.17316,61.2857143 140.12987,50.030303 132.419913,22.5670996 C128.199134,7.54112554 125.160173,1.18181818 120.151515,0.225108225 C116.099567,-0.619047619 110.865801,2.53246753 108.952381,6.75324675 Z" id="Path" stroke="#000000" stroke-width="1.68831169" fill="#FFFFFF"></path>
                        <path d="M66.7445887,124.991342 C65.0562771,131.519481 66.4069264,138.385281 70.4588745,143.731602 C71.1341991,144.575758 72.5974026,143.731602 71.9220779,142.887446 C68.0952381,137.822511 66.8008658,131.575758 68.3766234,125.441558 C68.6580087,124.428571 67.025974,123.978355 66.7445887,124.991342 L66.7445887,124.991342 Z" id="Path" fill="#000000"></path>
                        <path d="M58.4718615,125.497835 C56.6709957,120.770563 54.5324675,116.212121 52,111.822511 C49.9177489,108.220779 47.5541126,104.562771 44.1774892,101.974026 C42.4329004,100.679654 39.5627706,98.7099567 38.0995671,101.411255 C36.4675325,104.506494 40.1255411,109.965368 41.7575758,112.497835 C42.3203463,113.398268 43.7835498,112.554113 43.2207792,111.65368 C42.5454545,110.584416 37.3679654,101.917749 40.969697,101.917749 C42.1515152,101.917749 43.8398268,103.831169 44.6839827,104.562771 C45.9220779,105.744589 46.991342,107.038961 47.9480519,108.445887 C51.7186147,113.792208 54.5324675,119.87013 56.8961039,125.948052 C57.2337662,126.961039 58.8658009,126.510823 58.4718615,125.497835 L58.4718615,125.497835 Z" id="Path" fill="#000000"></path>
                        <path d="M41.7012987,112.160173 C34.7229437,112.385281 27.7445887,113.004329 20.7662338,114.017316 C17.3333333,114.52381 13.95671,115.142857 10.5238095,115.818182 C7.93506494,116.380952 4.33333333,116.606061 2.08225108,118.125541 C0.9004329,118.969697 0.112554113,120.4329 0.675324675,121.896104 C1.46320346,123.69697 4.22077922,124.090909 5.90909091,124.428571 C12.4935065,125.666667 19.5844156,125.103896 26.2251082,125.21645 C27.2943723,125.21645 27.2943723,123.528139 26.2251082,123.528139 C21.1601732,123.471861 16.0952381,123.471861 11.030303,123.246753 C9.45454545,123.190476 7.87878788,123.077922 6.3030303,122.796537 C5.68398268,122.683983 3.93939394,122.571429 3.43290043,122.064935 C0.225108225,118.857143 8.38528139,117.95671 9.79220779,117.675325 C20.2597403,115.424242 30.8961039,114.186147 41.5324675,113.848485 C42.7705628,113.792208 42.7705628,112.103896 41.7012987,112.160173 L41.7012987,112.160173 Z" id="Path" fill="#000000"></path>
                        <path d="M16.5454545,125.103896 C15.6450216,127.861472 17.1082251,130.562771 19.5281385,131.969697 C23.1298701,133.995671 27.969697,132.926407 31.8528139,132.645022 C32.9220779,132.532468 32.9220779,130.844156 31.8528139,130.95671 C29.3766234,131.125541 26.8441558,131.519481 24.3679654,131.406926 C21.2164502,131.294372 16.8831169,129.549784 18.1212121,125.554113 C18.5151515,124.484848 16.8831169,124.034632 16.5454545,125.103896 L16.5454545,125.103896 Z" id="Path" fill="#000000"></path>
                        <path d="M18.2900433,131.800866 C19.0779221,138.497835 26.3939394,138.835498 31.6277056,138.103896 C32.6969697,137.935065 32.2467532,136.30303 31.1774892,136.471861 C27.1818182,137.034632 20.5974026,137.203463 19.978355,131.800866 C19.8658009,130.731602 18.1774892,130.731602 18.2900433,131.800866 L18.2900433,131.800866 Z" id="Path" fill="#000000"></path>
                        <path d="M20.7662338,137.147186 C21.1038961,143.112554 26.6190476,146.376623 32.1341991,146.770563 C36.3549784,147.108225 40.6320346,146.320346 44.7402597,145.813853 C49.1861472,145.307359 53.6883117,144.800866 58.1341991,144.238095 C59.2034632,144.125541 59.2034632,142.437229 58.1341991,142.549784 C51.5497835,143.337662 44.965368,144.181818 38.3809524,144.857143 C32.4718615,145.47619 22.961039,145.025974 22.4545455,137.090909 C22.3419913,136.077922 20.6536797,136.077922 20.7662338,137.147186 L20.7662338,137.147186 Z" id="Path" fill="#000000"></path>
                        <path d="M80.2510823,123.69697 C79.6883117,129.437229 80.8701299,135.008658 83.6839827,140.073593 C84.1904762,141.030303 85.6536797,140.186147 85.1471861,139.229437 C82.5021645,134.38961 81.4329004,129.212121 81.9393939,123.69697 C82.0519481,122.571429 80.3636364,122.627706 80.2510823,123.69697 L80.2510823,123.69697 Z" id="Path" fill="#000000"></path>
                        <path d="M94.0952381,118.406926 C94.1515152,124.372294 95.5021645,130.112554 98.034632,135.515152 C98.4848485,136.471861 99.9480519,135.627706 99.4978355,134.670996 C97.0779221,129.493506 95.8961039,124.090909 95.7835498,118.406926 C95.7272727,117.281385 94.038961,117.281385 94.0952381,118.406926 L94.0952381,118.406926 Z" id="Path" fill="#000000"></path>
                        <path d="M105.800866,114.692641 C107.770563,119.982684 109.34632,125.385281 110.528139,130.900433 C110.753247,131.969697 112.385281,131.519481 112.160173,130.450216 C110.978355,124.935065 109.402597,119.532468 107.4329,114.242424 C107.095238,113.229437 105.463203,113.679654 105.800866,114.692641 L105.800866,114.692641 Z" id="Path" fill="#000000"></path>
                        <path d="M118.744589,109.008658 C122.008658,114.298701 123.809524,120.207792 124.034632,126.454545 C124.090909,127.52381 125.779221,127.52381 125.722944,126.454545 C125.497835,119.926407 123.640693,113.735931 120.207792,108.164502 C119.588745,107.264069 118.125541,108.108225 118.744589,109.008658 L118.744589,109.008658 Z" id="Path" fill="#000000"></path>
                        <path d="M128.255411,104.450216 C131.519481,104.393939 134.445887,105.463203 137.090909,107.320346 C138.385281,108.220779 139.5671,109.290043 140.692641,110.359307 C141.255411,110.922078 141.818182,111.541126 142.380952,112.160173 C143.337662,113.229437 143.225108,112.891775 144.575758,113.398268 C143.562771,113.004329 143.112554,114.636364 144.125541,115.030303 C144.238095,115.08658 144.294372,115.08658 144.406926,115.142857 C144.688312,115.255411 145.025974,115.142857 145.251082,114.917749 C145.87013,114.242424 145.757576,113.735931 145.363636,113.004329 C144.181818,110.978355 141.874459,108.952381 140.073593,107.4329 C136.69697,104.562771 132.701299,102.649351 128.255411,102.705628 C127.12987,102.761905 127.12987,104.450216 128.255411,104.450216 L128.255411,104.450216 Z" id="Path" fill="#000000"></path>
                        <path d="M128.08658,94.8831169 C131.406926,91.0562771 137.991342,86.3852814 143.393939,88.1861472 C144.406926,88.5238095 144.857143,86.8917749 143.844156,86.5541126 C137.878788,84.5281385 130.619048,89.3679654 126.904762,93.6450216 C126.17316,94.5454545 127.354978,95.7272727 128.08658,94.8831169 L128.08658,94.8831169 Z" id="Path" fill="#000000"></path>
                        <path d="M125.891775,83.5151515 C128.818182,77.2121212 136.134199,76.8181818 142.212121,76.7056277 C143.281385,76.7056277 143.281385,75.017316 142.212121,75.017316 C135.571429,75.1298701 127.636364,75.8614719 124.484848,82.6709957 C123.978355,83.6839827 125.441558,84.5281385 125.891775,83.5151515 L125.891775,83.5151515 Z" id="Path" fill="#000000"></path>
                        <path d="M123.077922,69.3896104 C125.21645,63.1991342 133.095238,60.3290043 139.060606,60.2727273 C140.12987,60.2727273 140.12987,58.5844156 139.060606,58.5844156 C132.251082,58.6406926 123.809524,61.961039 121.445887,68.9393939 C121.108225,69.952381 122.74026,70.4025974 123.077922,69.3896104 L123.077922,69.3896104 Z" id="Path" fill="#000000"></path>
                        <path d="M120.207792,54.4199134 C121.051948,51.0995671 123.809524,48.961039 126.454545,46.8787879 C129.662338,44.3463203 132.757576,42.4891775 136.922078,42.4329004 C137.991342,42.4329004 137.991342,40.7445887 136.922078,40.7445887 C132.645022,40.8008658 129.380952,42.5454545 126.004329,45.0779221 C122.909091,47.4415584 119.645022,49.974026 118.575758,53.9134199 C118.294372,54.982684 119.926407,55.4329004 120.207792,54.4199134 L120.207792,54.4199134 Z" id="Path" fill="#000000"></path>
                        <path d="M117.112554,39.9004329 C120.489177,33.8787879 126.5671,29.8831169 133.489177,29.3203463 C134.558442,29.2077922 134.558442,27.5194805 133.489177,27.6320346 C126.004329,28.2510823 119.363636,32.4155844 115.649351,39 C115.142857,40.012987 116.606061,40.8571429 117.112554,39.9004329 L117.112554,39.9004329 Z" id="Path" fill="#000000"></path>
                        <path d="M114.861472,25.7186147 C116.606061,23.4112554 118.744589,21.5541126 121.277056,20.1471861 C122.458874,19.4718615 123.753247,18.965368 125.047619,18.5714286 C125.61039,18.4025974 126.17316,18.2337662 126.735931,18.1212121 C127.12987,18.008658 127.52381,17.952381 127.917749,17.952381 C128.649351,18.008658 129.155844,17.6709957 129.324675,16.8831169 C128.536797,17.6147186 129.718615,18.7965368 130.506494,18.0649351 C130.562771,18.008658 130.619048,17.952381 130.675325,17.8961039 C130.900433,17.6709957 130.95671,17.3333333 130.900433,17.0519481 C130.900433,16.9393939 130.844156,16.8831169 130.844156,16.7705628 C130.787879,16.4891775 130.506494,16.2640693 130.281385,16.2077922 C127.467532,15.5887446 123.809524,16.995671 121.277056,18.2337662 C118.125541,19.7532468 115.593074,22.004329 113.454545,24.7619048 C112.722944,25.7186147 114.186147,26.5627706 114.861472,25.7186147 L114.861472,25.7186147 Z" id="Path" fill="#000000"></path>
                        <path d="M120.320346,0.168831169 C121.839827,5.62770563 123.809524,13.2251082 125.779221,22.3419913 C129.212121,38.2683983 128.874459,41.4199134 133.038961,71.2467532 C136.471861,95.3896104 137.822511,101.411255 133.376623,108.051948 C131.406926,111.034632 126.904762,113.623377 118.125541,118.800866 C106.251082,125.722944 97.8095238,130.675325 85.1471861,134.78355 C78.3939394,136.978355 68.8831169,139.398268 57.1212121,140.467532 C54.9264069,140.805195 52.1125541,141.142857 48.7922078,141.424242 C42.7142857,141.930736 37.5930736,141.874459 33.7662338,141.761905 C30.6147186,141.649351 26.8441558,141.367965 22.5108225,140.805195 C23.6926407,142.155844 25.6623377,144.069264 28.4761905,145.363636 C33.3722944,147.670996 38.0995671,147.051948 46.3160173,145.926407 C49.2987013,145.47619 53.3506494,144.800866 58.0779221,143.562771 C59.2597403,144.688312 60.4415584,145.813853 61.6796537,146.883117 C69.1645022,144.632035 80.2510823,141.311688 93.8701299,137.203463 C167.08658,115.08658 110.69697,131.294372 120.151515,128.536797 C123.865801,127.467532 131.406926,125.272727 139.454545,119.87013 C143.731602,117 146.4329,114.298701 147.502165,110.584416 C148.34632,107.601732 147.727273,105.181818 146.995671,101.917749 C145.701299,95.952381 145.251082,89.8744589 143.731602,83.965368 C141.255411,74.2294372 142.774892,75.017316 139.229437,53.8008658 C135.121212,28.9264069 134.277056,35.1731602 131.91342,20.3160173 C131.575758,18.2337662 130.900433,13.7316017 128.030303,8.89177489 C125.554113,4.55844156 122.515152,1.8008658 120.320346,0.168831169 Z" id="Path" fill="#828282" opacity="0.28"></path>
                    </g>
                    <g id="head" transform="translate(152.510823, 0.000000)">
                        <path d="M61.004329,67.1385281 C61.961039,69.8961039 63.030303,72.7662338 64.1558442,75.6926407 C66.012987,80.4761905 67.982684,85.034632 70.008658,89.3116883 C72.4285714,88.8614719 75.3549784,88.1298701 78.5064935,86.8917749 C80.982684,85.8787879 83.0649351,84.8095238 84.8095238,83.7402597 C83.5151515,76.5930736 82.2207792,69.5021645 80.9264069,62.3549784 C74.2857143,63.9307359 67.6450216,65.5064935 61.004329,67.1385281 Z" id="Path" stroke="#000000" stroke-width="1.12554113" fill="#FFFFFF"></path>
                        <path d="M67.7575758,84.0779221 C74.2294372,86.3852814 80.4761905,83.1774892 84.4155844,78.0562771 C85.0909091,77.2121212 83.9090909,76.030303 83.2337662,76.8744589 C79.6320346,81.5454545 74.1731602,84.6406926 68.2077922,82.5021645 C67.1385281,82.0519481 66.7445887,83.6839827 67.7575758,84.0779221 L67.7575758,84.0779221 Z" id="Path" fill="#000000"></path>
                        <path d="M64.8311688,78 C71.4155844,78.95671 79.7445887,79.5194805 83.4025974,72.6536797 C83.9090909,71.6969697 82.4458874,70.8528139 81.9393939,71.8095238 C78.6753247,77.9437229 71.1341991,77.2121212 65.2813853,76.3679654 C64.2121212,76.1991342 63.7619048,77.8311688 64.8311688,78 L64.8311688,78 Z" id="Path" fill="#000000"></path>
                        <path d="M61.961039,71.4718615 C68.7705628,73.4415584 76.0865801,72.0909091 81.7142857,67.8138528 C82.5584416,67.1385281 81.7142857,65.6753247 80.8701299,66.3506494 C75.5238095,70.4025974 68.8268398,71.6969697 62.4112554,69.8398268 C61.3982684,69.5584416 60.9480519,71.1904762 61.961039,71.4718615 L61.961039,71.4718615 Z" id="Path" fill="#000000"></path>
                        <polygon id="Path" stroke="#000000" stroke-width="1.68831169" fill="#000000" points="94.995671 0.0562770563 123.021645 0.0562770563 128.987013 52.9004329 101.411255 67.1385281"></polygon>
                        <polygon id="Path" stroke="#000000" stroke-width="1.68831169" fill="#FFFFFF" points="0.337662338 10.5800866 9.51082251 67.1385281 101.411255 67.1385281 94.995671 0.0562770563"></polygon>
                        <polygon id="Path" stroke="#000000" stroke-width="1.68831169" fill="#FFFFFF" points="4.38961039 14.8008658 12.6623377 63.8181818 94.995671 63.8181818 89.1991342 5.62770563"></polygon>
                        <ellipse id="Oval" stroke="#000000" stroke-width="1.68827455" fill="#000000" transform="translate(24.254736, 36.304948) rotate(-30.000728) translate(-24.254736, -36.304948) " cx="24.2547359" cy="36.3049481" rx="2.19475691" ry="3.93930727"></ellipse>
                        <ellipse id="Oval" stroke="#000000" stroke-width="1.68827455" fill="#000000" transform="translate(62.913472, 33.587385) rotate(-30.000728) translate(-62.913472, -33.587385) " cx="62.9134719" cy="33.5873853" rx="2.19475691" ry="3.93930727"></ellipse>
                        <path d="M39.6190476,45.8658009 C41.025974,47.7792208 42.5454545,49.6363636 44.1212121,51.3809524 C44.5714286,51.8874459 45.3593074,51.5497835 45.5281385,50.987013 C46.3160173,48.6233766 47.2727273,46.3160173 48.3982684,44.1212121 C48.8484848,43.1645022 47.4415584,42.2640693 46.9350649,43.2770563 C45.8095238,45.6406926 44.7965368,48.0606061 43.8961039,50.5930736 C44.3463203,50.4805195 44.8528139,50.3679654 45.3030303,50.1991342 C43.7835498,48.5670996 42.3766234,46.8225108 41.025974,45.021645 C40.4069264,44.1774892 38.9437229,45.021645 39.6190476,45.8658009 L39.6190476,45.8658009 Z" id="Path" fill="#000000"></path>
                    </g>
                </g>
                <path d="M1.30143584,455.900433 C11.487583,451.285714 22.7992713,452.861472 33.2668038,455.393939 C43.9031674,457.982684 54.426977,460.796537 61.0676696,470.194805 C61.6867172,471.095238 63.1499207,470.251082 62.5308731,469.350649 C59.5481891,465.073593 55.6650722,461.584416 50.9940765,459.220779 C45.6477562,456.519481 39.5135571,455.168831 33.7170203,453.761905 C22.7429943,451.060606 11.0373666,449.65368 0.457279998,454.437229 C-0.555707015,454.887446 0.288448829,456.294372 1.30143584,455.900433 L1.30143584,455.900433 Z" id="Path" stroke="#000000" stroke-width="2.25108225" fill="#000000"></path>
            </g>
        </g>
    </g>
</svg>