<svg id="Capa_1" enable-background="new 0 0 512 512" height="512" viewBox="0 0 512 512" width="512" xmlns="http://www.w3.org/2000/svg"><g><g><path d="m10.587 162.784v293.148c0 9.864 7.996 17.861 17.86 17.861h166.632c9.405 0 18.445 4.343 23.802 12.074 6.593 9.514 20.736 16.091 37.119 16.091s30.526-6.577 37.119-16.091c5.357-7.73 14.397-12.074 23.802-12.074h166.632c9.864 0 17.86-7.996 17.86-17.861v-293.148c0-9.864-7.996-17.861-17.86-17.861h-455.106c-9.864 0-17.86 7.996-17.86 17.861z" fill="#78eac4"/><path d="m240.219 445.858c-98.648-57.626-189.603.138-188.866-34.895 0-.004 0-281.607 0-281.607 0-6.502 4.562-12.121 10.927-13.444 65.508-13.612 130.147-5.433 193.72 29.51v291.053c0 8.101-8.653 13.231-15.781 9.383z" fill="#fff"/><path d="m444.303 424.583c-67.51-12.865-123.357-1.63-172.932 22.564-7.1 3.465-15.371-1.691-15.371-9.591v-292.134c64.78-36.698 129.559-46.675 194.338-29.931 6.065 1.567 10.308 7.037 10.308 13.301v282.324c0 8.63-7.866 15.082-16.343 13.467z" fill="#fff"/><path d="m228.804 140.399c2.779-1.574 5.559-3.076 8.338-4.537-37.581-17.504-75.525-25.896-113.792-26.175 35.491 1.716 70.657 11.586 105.454 30.712z" fill="#af30fa"/><path d="m450.338 115.491c-28.044-7.249-56.089-9.48-84.133-6.712 10.371 1.101 20.741 2.986 31.112 5.667 5.258 1.359 8.938 6.102 8.938 11.533v244.806c0 7.482-6.821 13.077-14.171 11.676-58.538-11.155-106.963-1.413-149.951 19.566-6.156 3.004-20.831 2.219-27.012-1.118-46.674-25.202-96.863-29.241-149.489-18.608-7.378 1.492-14.278-4.126-14.278-11.654v40.311c0 8.681 7.958 15.16 16.467 13.44 60.691-12.263 118.572-7.605 172.399 21.459 7.128 3.849 24.052 4.754 31.152 1.29 49.576-24.194 105.422-35.429 172.932-22.564 8.477 1.615 16.343-4.837 16.343-13.466v-282.325c-.001-6.263-4.245-11.733-10.309-13.301z" fill="#ffbffc"/><g fill="#ffe266"><path d="m193.114 255.717c4.873-7.63 7.712-16.68 7.712-26.385 0-27.111-22.056-49.168-49.168-49.168h-39.883c-9.707 0-17.575 7.869-17.575 17.575v63.223.103 73.976c0 4.675 1.863 9.157 5.175 12.456 3.294 3.28 7.753 5.12 12.4 5.12h.078c.367-.002 36.801-.164 46.769-.164 30.069 0 54.533-24.463 54.533-54.533-.001-16.994-7.818-32.194-20.041-42.203zm-63.764-40.402h22.308c7.73 0 14.017 6.288 14.017 14.017s-6.288 14.018-14.017 14.018c-4.223-.001-16.083.05-22.308.037zm29.272 101.987c-5.376 0-18.333.046-29.272.09v-38.825c5.468-.04 23.523-.029 29.272-.03 10.688 0 19.382 8.695 19.382 19.382s-8.695 19.383-19.382 19.383z"/><path d="m302.793 323.918c-1.642-1.642 3.26-9.762 1.968-11.599-10.849-15.413-9.382-36.848 4.402-50.632l20.017-20.017c15.425-15.425 33.065-8.055 48.49 7.37 15.425 15.425 22.795 33.065 7.37 48.49l-20.017 20.017c-13.669 13.669-34.865 15.226-50.248 4.669-1.976-1.356-10.226 3.458-11.982 1.702z"/><circle cx="384.791" cy="241.92" r="28.621"/></g><path d="m321.606 272.708c-16.29-.846-28.896-13.059-28.158-27.279s14.542-25.061 30.832-24.215 52.044 21.478 51.68 28.5c-.365 7.022-38.064 23.84-54.354 22.994z" fill="#b2e7f1"/><path d="m353.948 305.105c.806 16.292 12.988 28.929 27.209 28.225 14.221-.703 25.097-14.48 24.291-30.772s-21.35-52.097-28.372-51.75c-7.022.348-23.933 38.006-23.128 54.297z" fill="#b2e7f1"/></g><g fill="#440a29"><path d="m483.552 134.88h-12.863v-6.088c0-10.84-7.334-20.309-17.838-23.025-65.451-16.919-131.68-7.414-196.927 28.218-61.848-32.646-127.653-42.042-195.686-27.907-10.968 2.278-18.928 12.067-18.928 23.277v5.525h-12.863c-15.385 0-27.903 12.518-27.903 27.904v293.149c0 15.385 12.517 27.903 27.903 27.903h166.633c6.371 0 12.183 2.897 15.546 7.75 8.726 12.591 26.111 20.414 45.373 20.414s36.648-7.823 45.373-20.414c3.364-4.854 9.176-7.751 15.547-7.751h166.632c15.386 0 27.904-12.518 27.904-27.903v-293.148c.001-15.387-12.517-27.904-27.903-27.904zm-35.729-9.666c1.637.423 2.78 1.895 2.78 3.578v282.325c0 1.495-.829 2.404-1.322 2.812-.506.419-1.579 1.076-3.097.789-63.522-12.106-122.145-4.449-179.216 23.404-.122.059-.326.16-.631-.029-.294-.184-.294-.395-.294-.535v-1.081-285.144c60.471-32.881 121.603-41.672 181.78-26.119zm-386.426 4.141c0-1.74 1.231-3.258 2.927-3.61 64.023-13.303 123.5-4.906 181.633 25.679v285.052c0 .15 0 .356-.301.536-.326.193-.536.077-.665.008v.001c-53.202-28.727-111.806-36.08-179.158-22.466-1.508.301-2.585-.347-3.093-.763-.501-.41-1.342-1.323-1.342-2.833v-281.604zm429.973 326.577c0 4.31-3.507 7.817-7.818 7.817h-166.632c-12.957 0-24.941 6.129-32.057 16.396-4.058 5.857-14.558 11.768-28.864 11.768-14.305 0-24.805-5.911-28.864-11.769-7.115-10.267-19.099-16.395-32.056-16.395h-166.632c-4.31 0-7.817-3.506-7.817-7.817v-293.148c0-4.311 3.506-7.818 7.817-7.818h12.864v255.992c0 7.153 3.174 13.852 8.708 18.38 5.546 4.538 12.759 6.326 19.791 4.905 62.556-12.642 116.738-5.95 165.638 20.452v.001c3.117 1.682 6.502 2.521 9.878 2.521 3.356 0 6.702-.838 9.775-2.488.197.133.391.271.593.398 3.366 2.104 7.159 3.166 10.97 3.166 3.098-.001 6.209-.703 9.111-2.118 53.031-25.882 107.543-32.988 166.648-21.725 7.01 1.336 14.174-.503 19.661-5.044 5.468-4.523 8.604-11.19 8.604-18.287v-256.153h12.863c4.311 0 7.818 3.507 7.818 7.818v293.148z"/><path d="m111.774 358.643h.111c.306-.002 36.646-.164 46.737-.164 33.392 0 60.559-27.166 60.559-60.559 0-16.489-6.652-32.054-18.41-43.445 3.991-7.763 6.081-16.359 6.081-25.143 0-30.434-24.76-55.194-55.194-55.194h-39.883c-13.014 0-23.601 10.587-23.601 23.601v137.302c0 6.233 2.533 12.329 6.95 16.726 4.452 4.435 10.365 6.876 16.65 6.876zm-11.549-160.904c0-6.368 5.181-11.549 11.55-11.549h39.883c23.789 0 43.142 19.354 43.142 43.142 0 8.211-2.339 16.213-6.764 23.142-1.644 2.574-1.102 5.971 1.261 7.906 11.333 9.279 17.832 22.962 17.832 37.54 0 26.747-21.76 48.507-48.507 48.507-10.111 0-46.495.162-46.848.164-3.076 0-5.969-1.195-8.148-3.364-2.161-2.152-3.401-5.135-3.401-8.185z"/><path d="m129.35 249.413c6.233.013 18.07-.038 22.308-.037 11.051 0 20.043-8.992 20.043-20.044 0-11.051-8.992-20.043-20.043-20.043h-22.308c-3.328 0-6.026 2.698-6.026 6.026v28.073c0 3.327 2.698 6.025 6.026 6.025zm6.026-28.072h16.282c4.407 0 7.991 3.585 7.991 7.991s-3.585 7.992-7.991 7.992c-3.044-.005-10.518.031-16.282.037z"/><path d="m129.35 323.418c10.928-.044 23.9-.09 29.272-.09 14.01 0 25.408-11.397 25.408-25.408 0-14.01-11.397-25.408-25.408-25.408-5.65 0-23.965-.009-29.295.029-3.319.013-6.003 2.707-6.003 6.026v38.825c0 1.603.638 3.138 1.773 4.269 1.13 1.126 2.659 1.757 4.253 1.757zm6.026-38.847 23.246-.007c7.365 0 13.356 5.992 13.356 13.356 0 7.365-5.992 13.356-13.356 13.356-4.413 0-13.927.031-23.246.067z"/><path d="m296.863 268.283c-7.577 14.228-7.17 31.722 1.817 45.786-.192.611-.443 1.329-.637 1.885-1.352 3.877-3.036 8.7.488 12.223 3.517 3.519 8.393 1.945 12.309.681.619-.199 1.432-.462 2.088-.646 7.421 4.659 15.794 6.942 24.13 6.942 7.35 0 14.666-1.787 21.273-5.278 5.759 5.909 13.409 9.508 21.7 9.508.472 0 .946-.012 1.422-.035 8.643-.427 16.531-4.626 22.214-11.825 5.491-6.957 8.26-15.929 7.799-25.263-.48-9.719-6.233-22.471-10.049-29.947 2.854-1.563 5.507-3.531 7.872-5.896h-.001c8.114-8.113 11.348-19.282 9.715-29.837l9.823-4.297c3.049-1.334 4.44-4.887 3.106-7.936-1.335-3.05-4.888-4.438-7.935-3.106l-8.904 3.895c-1.531-2.767-3.459-5.371-5.804-7.716s-4.949-4.274-7.716-5.805l3.895-8.904c1.334-3.048-.057-6.602-3.106-7.935-3.047-1.336-6.603.057-7.936 3.106l-4.297 9.823c-10.555-1.632-21.723 1.601-29.837 9.715-2.382 2.382-4.338 5.03-5.878 7.847-7.48-3.834-20.148-9.57-29.823-10.073-9.316-.483-18.312 2.264-25.281 7.737-7.213 5.665-11.432 13.544-11.88 22.183-.459 8.845 3.191 17.064 9.433 23.168zm51.102 33.412-22.994-22.995c11.92-.685 27.035-6.794 31.996-8.93-2.154 4.97-8.279 20.026-9.002 31.925zm-29.78 15.553c-1.391-.954-2.864-1.306-4.378-1.306-1.071 0-2.162.177-3.258.44.668-2.605.794-5.18-.861-7.531-6.757-9.6-7.815-21.651-3.564-31.954l43.674 43.675c-10.182 4.18-22.088 3.213-31.613-3.324zm76.024 2.808c-3.495 4.426-8.234 7.004-13.348 7.257-10.853.55-20.253-9.558-20.894-22.506v.001c-.624-12.641 10.665-38.245 16.68-46.169.326-.278.628-.548.915-.814 6.457 6.222 21.221 31.927 21.869 45.031.317 6.424-1.538 12.533-5.222 17.2zm-9.419-100.72c5.786 0 11.572 2.202 15.978 6.607 8.809 8.81 8.809 23.144 0 31.954-.001 0-.001 0-.001 0-1.577 1.577-3.35 2.884-5.26 3.912-6.53-10.525-11.26-14.575-14.434-16.112-1.544-3.186-5.615-7.933-16.157-14.495 1.01-1.89 2.305-3.667 3.898-5.259 4.405-4.405 10.191-6.607 15.976-6.607zm-85.324 26.405c.265-5.113 2.853-9.847 7.288-13.33 4.677-3.674 10.794-5.507 17.213-5.179 13.103.681 38.773 15.509 44.978 21.981-.264.284-.533.583-.808.906-7.928 5.995-33.527 17.234-46.219 16.572h.001c-12.946-.673-23.018-10.07-22.453-20.95z"/><path d="m418.815 346.591c-3.328 0-6.026 2.698-6.026 6.026v12.152c0 3.328 2.698 6.026 6.026 6.026s6.026-2.698 6.026-6.026v-12.152c0-3.328-2.698-6.026-6.026-6.026z"/><path d="m377.942 170.605c3.328 0 6.026-2.698 6.026-6.026v-12.152c0-3.328-2.698-6.026-6.026-6.026s-6.026 2.698-6.026 6.026v12.152c0 3.328 2.698 6.026 6.026 6.026z"/><path d="m365.526 370.174c-3.328 0-6.026 2.698-6.026 6.026v12.152c0 3.328 2.698 6.026 6.026 6.026s6.026-2.698 6.026-6.026v-12.152c0-3.328-2.698-6.026-6.026-6.026z"/></g><g><path d="m43.777 2.542 8.531 23.986c.365 1.027 1.088 1.841 2.001 2.252l21.311 9.601c3.011 1.357 3.011 6.153 0 7.51l-21.311 9.601c-.912.411-1.635 1.225-2.001 2.252l-8.531 23.986c-1.205 3.389-5.467 3.389-6.672 0l-8.53-23.986c-.365-1.027-1.088-1.841-2.001-2.252l-21.311-9.601c-3.011-1.357-3.011-6.153 0-7.51l21.311-9.601c.913-.411 1.635-1.225 2.001-2.252l8.53-23.986c1.205-3.389 5.467-3.389 6.672 0z" fill="#bdf4e3"/><ellipse cx="244" cy="58.305" fill="#78eac4" rx="18.627" ry="18.627" transform="matrix(.099 -.995 .995 .099 161.935 295.373)"/><path d="m179.458 30.427c0 4.356-3.532 7.888-7.888 7.888-4.357 0-7.888-3.532-7.888-7.888 0-4.357 3.532-7.888 7.888-7.888 4.357 0 7.888 3.532 7.888 7.888z" fill="#78eac4"/><path d="m484.029 32.756 6.328 17.793c.271.762.807 1.365 1.484 1.67l15.808 7.122c2.233 1.006 2.233 4.565 0 5.571l-15.808 7.122c-.677.305-1.213.909-1.484 1.67l-6.328 17.793c-.894 2.514-4.055 2.514-4.949 0l-6.328-17.793c-.271-.762-.807-1.365-1.484-1.67l-15.808-7.122c-2.233-1.006-2.233-4.565 0-5.571l15.808-7.122c.677-.305 1.213-.909 1.484-1.67l6.328-17.793c.893-2.514 4.055-2.514 4.949 0z" fill="#bdf4e3"/></g></g></svg>