<svg id="Capa_1" enable-background="new 0 0 512 512" height="512" viewBox="0 0 512 512" width="512" xmlns="http://www.w3.org/2000/svg"><g><g><path d="m463.312 484.815h-412.597c-14.813 0-26.821-12.008-26.821-26.821v-298.605c0-22.538 18.27-40.808 40.808-40.808h384.624c22.538 0 40.808 18.27 40.808 40.808v298.605c-.001 14.813-12.009 26.821-26.822 26.821z" fill="#bdf4e3"/><path d="m455.04 484.815h-396.053v-314.877c0-9.484 7.689-17.173 17.173-17.173h361.707c9.484 0 17.173 7.689 17.173 17.173z" fill="#78eac4"/><path d="m449.325 118.58h-80.971c18.248 0 33.041 14.793 33.041 33.041v241.773c0 11.994-9.723 21.717-21.716 21.717h-334.069c-11.994 0-21.716-9.723-21.716-21.717v64.599c0 14.813 12.008 26.821 26.821 26.821h412.597c14.813 0 26.821-12.009 26.821-26.821v-298.605c0-22.537-18.27-40.808-40.808-40.808z" fill="#b1b7e3"/><path d="m437.867 152.765h-36.472v240.63c0 11.994-9.723 21.717-21.716 21.717h-320.692v69.704h396.053v-314.878c0-9.485-7.688-17.173-17.173-17.173z" fill="#71afc4"/><path d="m173.825 415.111h-51.517c-12.252 0-22.184 9.932-22.184 22.184v31.635h95.886v-31.635c-.001-12.252-9.933-22.184-22.185-22.184z" fill="#d49c8d"/><path d="m492.51 501.88h-470.993c-4.782 0-8.659-3.877-8.659-8.659v-19.436c0-4.783 3.877-8.659 8.659-8.659h470.993c4.783 0 8.659 3.877 8.659 8.659v19.436c.001 4.782-3.876 8.659-8.659 8.659z" fill="#ffdcb6"/><g fill="#fff"><path d="m233.702 371.487c-28.49 0-30.5-.673-31.861-1.126-3.471-1.157-6.059-3.762-7.101-7.147-1.859-6.041.586-9.241 9.679-21.147 7.649-10.015 21.886-28.656 45.731-62.726 7.447-10.64 12.246-20.253 14.271-28.581l.586-4.584c-.318-15.313-12.874-27.672-28.262-27.672-13.48 0-25.145 9.579-27.737 22.778-1.077 5.484-6.399 9.057-11.881 7.98-5.485-1.077-9.057-6.397-7.98-11.881 4.452-22.666 24.47-39.117 47.598-39.117 26.748 0 48.508 21.761 48.508 48.508.055.68-.835 7.399-1.003 8.089-2.544 10.971-8.438 23.113-17.517 36.086-21.781 31.121-35.644 49.522-43.821 60.251 15.873.08 40.098-.091 58.452-.322 5.601-.073 10.176 4.404 10.246 9.992.071 5.588-4.403 10.176-9.992 10.246-21.19.267-36.632.373-47.916.373z"/><path d="m360.384 410.536c-5.348 5.78-14.368 6.13-20.148.783l-43.625-40.363c-5.78-5.348-6.13-14.368-.783-20.148 5.348-5.78 14.368-6.13 20.148-.783l43.625 40.363c5.78 5.348 6.131 14.368.783 20.148z"/></g></g><g><g fill="#440a29"><path d="m36.242 466.291c-1.409-2.447-2.227-5.275-2.227-8.297v-298.606c0-16.921 13.766-30.688 30.688-30.688h384.624c16.921 0 30.688 13.766 30.688 30.688v298.605c0 3.021-.819 5.849-2.227 8.297h21.517c.615-2.669.951-5.444.951-8.297v-298.605c0-28.082-22.846-50.928-50.928-50.928h-384.626c-28.082 0-50.928 22.846-50.928 50.928v298.605c0 2.853.336 5.628.951 8.297h21.517z"/><path d="m65.06 464.294v-294.356c0-6.121 4.979-11.101 11.1-11.101h361.707c6.121 0 11.1 4.98 11.1 11.101v294.357h12.144v-294.357c0-12.818-10.428-23.245-23.245-23.245h-361.706c-12.817 0-23.245 10.428-23.245 23.245v294.357h12.145z"/><path d="m202.081 475.003h-108.03v-37.707c0-15.581 12.676-28.256 28.256-28.256h51.518c15.581 0 28.256 12.675 28.256 28.256zm-95.886-12.145h83.741v-25.563c0-8.884-7.228-16.112-16.112-16.112h-51.518c-8.884 0-16.112 7.228-16.112 16.112v25.563z"/><path d="m492.51 512h-470.993c-10.355 0-18.78-8.424-18.78-18.779v-19.436c0-10.355 8.425-18.78 18.78-18.78h470.993c10.355 0 18.78 8.425 18.78 18.78v19.436c0 10.355-8.424 18.779-18.78 18.779zm-469.533-20.241h468.073v-16.514h-468.073z"/><path d="m349.911 421.173c-4.942 0-9.894-1.785-13.799-5.397l-43.625-40.364c-3.986-3.688-6.297-8.707-6.508-14.133s1.704-10.609 5.392-14.595 8.707-6.297 14.133-6.508c5.441-.225 10.61 1.704 14.596 5.392l43.625 40.363c3.986 3.688 6.297 8.708 6.508 14.134s-1.704 10.609-5.392 14.595c-4 4.323-9.458 6.513-14.93 6.513zm-43.61-68.869c-.108 0-.216.002-.326.006-2.185.085-4.205 1.016-5.69 2.621s-2.256 3.692-2.171 5.876c.085 2.185 1.016 4.206 2.62 5.69l43.625 40.364c3.313 3.065 8.502 2.864 11.568-.449 1.484-1.605 2.256-3.692 2.171-5.877s-1.016-4.206-2.62-5.691l-43.625-40.363c-1.525-1.41-3.486-2.177-5.552-2.177z"/><path d="m404.023 367.413c-3.353 0-6.072-2.719-6.072-6.072v-12.245c0-3.353 2.719-6.072 6.072-6.072s6.072 2.719 6.072 6.072v12.245c0 3.353-2.719 6.072-6.072 6.072z"/><path d="m374.916 329.541c-3.353 0-6.072-2.719-6.072-6.072v-12.245c0-3.353 2.719-6.072 6.072-6.072s6.072 2.719 6.072 6.072v12.245c0 3.353-2.719 6.072-6.072 6.072z"/><path d="m398.777 267.315c-3.353 0-6.072-2.719-6.072-6.072v-12.245c0-3.353 2.719-6.072 6.072-6.072s6.072 2.719 6.072 6.072v12.245c0 3.353-2.719 6.072-6.072 6.072z"/></g><path d="m100.123 283.176c-.006 0-.013 0-.019 0-5.589-.01-10.112-4.55-10.102-10.139.022-11.946.025-23.891.009-35.837-.007-5.589 4.517-10.127 10.107-10.134h.014c5.583 0 10.112 4.521 10.12 10.106.016 11.967.013 23.935-.009 35.902-.01 5.583-4.539 10.102-10.12 10.102z" fill="#fff"/><path d="m100.123 209.643c-5.589 0-10.12-4.531-10.12-10.12v-5.478c0-5.589 4.531-10.12 10.12-10.12 5.59 0 10.12 4.531 10.12 10.12v5.478c0 5.59-4.531 10.12-10.12 10.12z" fill="#fff"/></g><g><path d="m41.796 2.561 8.596 24.171c.368 1.035 1.097 1.855 2.016 2.269l21.475 9.675c3.034 1.367 3.034 6.201 0 7.568l-21.475 9.675c-.919.414-1.648 1.234-2.016 2.269l-8.596 24.171c-1.214 3.415-5.509 3.415-6.724 0l-8.596-24.171c-.368-1.035-1.097-1.855-2.016-2.269l-21.475-9.675c-3.034-1.367-3.034-6.201 0-7.568l21.475-9.675c.919-.414 1.648-1.234 2.016-2.269l8.596-24.171c1.215-3.415 5.509-3.415 6.724 0z" fill="#bdf4e3"/><ellipse cx="364.683" cy="18.77" fill="#78eac4" rx="18.77" ry="18.77" transform="matrix(.19 -.982 .982 .19 277.055 373.266)"/><circle cx="187.413" cy="62.743" fill="#78eac4" r="7.949"/><path d="m466.049 28.181 6.376 17.929c.273.768.813 1.376 1.496 1.683l15.93 7.177c2.251 1.014 2.251 4.6 0 5.614l-15.93 7.177c-.682.307-1.223.916-1.496 1.683l-6.376 17.929c-.901 2.533-4.087 2.533-4.988 0l-6.376-17.929c-.273-.768-.813-1.376-1.495-1.683l-15.93-7.177c-2.25-1.014-2.25-4.6 0-5.614l15.93-7.177c.682-.307 1.223-.916 1.495-1.683l6.376-17.929c.902-2.533 4.087-2.533 4.988 0z" fill="#bdf4e3"/></g></g></svg>