<svg id="Capa_1" enable-background="new 0 0 512 512" height="512" viewBox="0 0 512 512" width="512" xmlns="http://www.w3.org/2000/svg"><g><g><path d="m134.596 501.874h-22.481c-9.201 0-16.119-8.392-14.363-17.424l14.023-72.116h66.038l-29.49 79.971c-2.119 5.75-7.598 9.569-13.727 9.569z" fill="#78eac4"/><path d="m337.312 501.874h22.481c9.201 0 16.119-8.392 14.362-17.424l-14.023-72.116h-66.038l29.49 79.971c2.12 5.75 7.599 9.569 13.728 9.569z" fill="#78eac4"/><g fill="#ffe266"><ellipse cx="110.977" cy="174.657" rx="57.468" ry="57.468" transform="matrix(.924 -.383 .383 .924 -58.391 55.764)"/><path d="m244.073 160.202h-16.238c-14.268 0-25.835-11.567-25.835-25.835v-16.238c0-14.268 11.567-25.835 25.835-25.835h16.238c14.268 0 25.835 11.567 25.835 25.835v16.238c.001 14.269-11.566 25.835-25.835 25.835z"/><ellipse cx="360.931" cy="174.657" rx="57.468" ry="57.468" transform="matrix(.924 -.383 .383 .924 -39.364 151.417)"/></g><path d="m412.261 200.49c-19.216-31.913-46.852-58.175-79.832-75.727-17.3 9.904-28.966 28.531-28.966 49.894 0 31.738 25.729 57.467 57.468 57.467 22.444.001 41.87-12.874 51.33-31.634z" fill="#efaa66"/><path d="m59.647 200.49c9.46 18.76 28.886 31.634 51.33 31.634 31.738 0 57.467-25.729 57.467-57.467 0-21.363-11.666-39.989-28.966-49.894-32.979 17.552-60.615 43.814-79.831 75.727z" fill="#efaa66"/><circle cx="235.954" cy="306.423" fill="#8bb6ef" r="172.777"/><path d="m235.954 133.646c-6.666 0-13.24.391-19.71 1.126 66.579 8.595 118.017 65.497 118.017 134.416 0 74.858-60.684 135.542-135.542 135.542-68.919 0-125.821-51.438-134.416-118.017-.735 6.47-1.126 13.044-1.126 19.71 0 95.422 77.355 172.777 172.777 172.777s172.777-77.355 172.777-172.777-77.355-172.777-172.777-172.777z" fill="#8388ef"/><circle cx="235.954" cy="306.423" fill="#fef2a8" r="131.92"/><path d="m235.954 324.977c-9.931 0-17.982-8.051-17.982-17.982v-85.611c0-9.931 8.051-17.982 17.982-17.982 9.931 0 17.982 8.051 17.982 17.982v85.611c.001 9.931-8.051 17.982-17.982 17.982z" fill="#78eac4"/><path d="m218.691 299.625c3.639-9.241 14.08-13.781 23.321-10.142l53.618 21.116c9.24 3.639 13.781 14.08 10.142 23.321-3.639 9.241-14.08 13.781-23.321 10.142l-53.618-21.116c-9.24-3.64-13.781-14.081-10.142-23.321z" fill="#78eac4"/><circle cx="235.954" cy="306.423" fill="#ffe266" r="20.625"/><path d="m316.369 201.849c11.38 19.839 17.892 42.827 17.892 67.339 0 74.857-60.684 135.542-135.542 135.542-24.512 0-47.5-6.512-67.339-17.892 24.12 31.319 61.987 51.505 104.574 51.505 72.858 0 131.921-59.063 131.921-131.92 0-42.587-20.187-80.454-51.506-104.574z" fill="#eeb6a8"/></g><g fill="#440a29"><path d="m149.254 460.515-10.431 28.286c-.65 1.762-2.348 2.946-4.227 2.946h-22.481c-3.435-.516-4.573-1.893-4.422-5.365l9.257-47.605c-3.147-3.242-6.153-6.634-9.107-10.055-2.901-3.361-5.256-7.044-7.467-10.814l-12.564 64.609c-1.416 7.284.479 14.746 5.199 20.472 4.72 5.727 11.684 9.011 19.104 9.011h22.481c10.323 0 19.657-6.507 23.229-16.191l10.822-29.348c-6.588-1.643-13.101-3.509-19.393-5.946z"/><path d="m384.095 482.517-12.773-65.688c-1.988 5.502-4.374 10.797-8.418 15.32-2.347 2.626-5.007 5.013-7.825 7.249l9.136 46.985c.15 3.472-.985 4.849-4.422 5.365h-22.48c-1.879 0-3.578-1.185-4.227-2.946l-10.423-28.263c-5.964 3.259-12.193 6.122-18.605 8.082l10.026 27.189c3.573 9.684 12.907 16.19 23.229 16.19h22.48c7.421 0 14.384-3.284 19.104-9.01 4.72-5.727 6.614-13.188 5.198-20.473z"/><path d="m63.636 174.657c0-26.104 21.237-47.341 47.341-47.341 19.539 0 36.348 11.899 43.569 28.829 6.456-1.746 12.505-5.008 18.51-8.204-10.378-24.02-34.292-40.877-62.079-40.877-37.271 0-67.593 30.322-67.593 67.593 0 26.712 15.577 49.85 38.121 60.819 2.766-6.151 6.23-12.003 8.97-18.151-15.865-7.654-26.839-23.903-26.839-42.668z"/><path d="m360.931 107.063c-26.993 0-50.332 15.91-61.156 38.84 6.452 2.048 12.298 5.484 18.174 8.945 7.513-16.235 23.948-27.532 42.982-27.532 26.104 0 47.342 21.237 47.342 47.341 0 17.355-9.393 32.549-23.356 40.791 3.118 6.021 5.234 12.541 7.699 18.893 21.343-11.376 35.909-33.857 35.909-59.684 0-37.271-30.322-67.594-67.594-67.594z"/><path d="m212.126 118.129c0-8.662 7.047-15.709 15.709-15.709h16.238c8.663 0 15.709 7.047 15.709 15.709v16.238c0 .423-.031.839-.064 1.254 6.587 1.782 13.07 3.969 19.533 6.203.509-2.407.783-4.9.783-7.457v-16.238c0-19.829-16.133-35.961-35.962-35.961h-16.238c-19.829 0-35.962 16.132-35.962 35.961v16.238c0 1.352.081 2.684.227 3.998 6.309-2.878 13.11-4.663 20.025-5.499v-14.737z"/><path d="m235.954 489.326c-100.853 0-182.903-82.05-182.903-182.903s82.049-182.903 182.903-182.903c100.853 0 182.903 82.05 182.903 182.903s-82.05 182.903-182.903 182.903zm0-345.553c-89.686 0-162.65 72.965-162.65 162.651s72.965 162.651 162.65 162.651c89.687 0 162.651-72.965 162.651-162.651 0-89.687-72.965-162.651-162.651-162.651z"/><path d="m235.954 444.419c-76.09 0-137.995-61.904-137.995-137.996s61.905-137.996 137.995-137.996c76.092 0 137.997 61.905 137.997 137.996s-61.906 137.996-137.997 137.996zm0-263.84c-69.391 0-125.844 56.454-125.844 125.845s56.453 125.845 125.844 125.845 125.845-56.454 125.845-125.845c0-69.392-56.454-125.845-125.845-125.845z"/><path d="m224.048 288.93v-67.546c0-6.565 5.341-11.907 11.906-11.907s11.907 5.341 11.907 11.907v70.294c3.075 3.077 4.893 7.02 7.125 11.077 1.347 2.448 3.061 4.661 4.889 6.801.09-.842.138-1.695.138-2.561v-85.611c0-13.266-10.793-24.058-24.058-24.058-13.266 0-24.058 10.792-24.058 24.058v85.611c0 .997.068 1.978.186 2.944 4.676-6.519 10.312-12.858 11.866-20.617.027-.137.064-.264.099-.392z"/><path d="m297.856 304.946-52.502-20.676c5.023 5.452 9.346 11.562 12.757 18.083l35.293 13.899c6.108 2.406 9.12 9.333 6.715 15.441-1.165 2.959-3.413 5.288-6.33 6.556-2.916 1.268-6.152 1.325-9.112.16l-37.589-14.804c-7.364 2.493-15.134 2.792-22.874 3.894.769.404 1.566.774 2.393 1.1l53.618 21.116c5.974 2.354 12.514 2.242 18.41-.323 5.893-2.563 10.436-7.267 12.79-13.246 4.861-12.343-1.226-26.34-13.569-31.2z"/><path d="m235.954 333.124c-14.722 0-26.701-11.978-26.701-26.701s11.978-26.701 26.701-26.701c14.722 0 26.701 11.978 26.701 26.701s-11.979 26.701-26.701 26.701zm0-41.25c-8.023 0-14.549 6.527-14.549 14.549 0 8.023 6.527 14.549 14.549 14.549 8.023 0 14.549-6.527 14.549-14.549s-6.526-14.549-14.549-14.549z"/><path d="m235.954 405.113c-3.355 0-6.076-2.72-6.076-6.076v-12.189c0-3.355 2.72-6.076 6.076-6.076 3.355 0 6.076 2.72 6.076 6.076v12.189c-.001 3.356-2.721 6.076-6.076 6.076z"/><path d="m155.528 312.499h-12.188c-3.355 0-6.076-2.72-6.076-6.076 0-3.355 2.72-6.076 6.076-6.076h12.188c3.355 0 6.076 2.72 6.076 6.076s-2.721 6.076-6.076 6.076z"/></g><g><path d="m152.087 2.563 8.601 24.185c.368 1.035 1.097 1.856 2.017 2.271l21.487 9.681c3.036 1.368 3.036 6.204 0 7.572l-21.487 9.681c-.92.414-1.649 1.235-2.017 2.27l-8.601 24.185c-1.215 3.417-5.512 3.417-6.728 0l-8.601-24.185c-.368-1.035-1.097-1.856-2.017-2.27l-21.487-9.681c-3.036-1.368-3.036-6.204 0-7.572l21.487-9.681c.92-.414 1.649-1.235 2.017-2.271l8.601-24.185c1.216-3.417 5.513-3.417 6.728 0z" fill="#b2e7f1"/><path d="m344.589 19.804c0 10.372-8.409 18.781-18.781 18.781s-18.781-8.408-18.781-18.781 8.408-18.781 18.781-18.781c10.372 0 18.781 8.409 18.781 18.781z" fill="#8bb6ef"/><circle cx="45.556" cy="76.58" fill="#8bb6ef" r="7.953"/><path d="m448.893 70.527 6.38 17.94c.273.768.814 1.377 1.496 1.684l15.939 7.181c2.252 1.015 2.252 4.602 0 5.617l-15.939 7.181c-.682.307-1.223.916-1.496 1.684l-6.38 17.94c-.901 2.535-4.089 2.535-4.99 0l-6.38-17.94c-.273-.768-.814-1.377-1.496-1.684l-15.939-7.181c-2.252-1.014-2.252-4.602 0-5.617l15.939-7.181c.683-.308 1.223-.916 1.496-1.684l6.38-17.94c.901-2.534 4.088-2.534 4.99 0z" fill="#b2e7f1"/></g></g></svg>