<?xml version="1.0" encoding="UTF-8"?>
<svg viewBox="0 0 25470 12413" version="1.1" xmlns="http://www.w3.org/2000/svg" xmlns:xlink="http://www.w3.org/1999/xlink">
    <title>Group 6</title>
    <g id="Page-1" stroke="none" stroke-width="1" fill="none" fill-rule="evenodd">
        <g id="Group-6" transform="translate(0.043325, 0.624519)" fill-rule="nonzero">
            <circle id="Oval" fill="#5222D0" transform="translate(4117.075190, 908.213719) scale(-1, 1) rotate(90.000000) translate(-4117.075190, -908.213719) " cx="4117.07519" cy="908.213719" r="48.501766"></circle>
            <circle id="Oval" fill="#FFAB01" transform="translate(2869.409073, 4209.678754) scale(-1, 1) rotate(90.000000) translate(-2869.409073, -4209.678754) " cx="2869.40907" cy="4209.67875" r="26.2021034"></circle>
            <circle id="Oval" fill="#FFAB01" transform="translate(3674.426890, 4429.330429) scale(-1, 1) rotate(90.000000) translate(-3674.426890, -4429.330429) " cx="3674.42689" cy="4429.33043" r="35.1219684"></circle>
            <circle id="Oval" fill="#5222D0" transform="translate(4264.252963, 6407.310494) scale(-1, -1) rotate(-90.000000) translate(-4264.252963, -6407.310494) " cx="4264.25296" cy="6407.31049" r="28.4320697"></circle>
            <circle id="Oval" fill="#FFAB01" transform="translate(4163.904482, 6251.212856) scale(-1, -1) rotate(-90.000000) translate(-4163.904482, -6251.212856) " cx="4163.90448" cy="6251.21286" r="26.2021034"></circle>
            <circle id="Oval" fill="#FFAB01" transform="translate(3358.886665, 6470.864532) scale(-1, -1) rotate(-90.000000) translate(-3358.886665, -6470.864532) " cx="3358.88667" cy="6470.86453" r="35.1219684"></circle>
            <circle id="Oval" fill="#5222D0" transform="translate(3147.039871, 2766.890589) scale(-1, 1) rotate(90.000000) translate(-3147.039871, -2766.890589) " cx="3147.03987" cy="2766.89059" r="28.4320697"></circle>
            <circle id="Oval" fill="#5222D0" transform="translate(4345.089239, 5171.351699) scale(-1, 1) rotate(90.000000) translate(-4345.089239, -5171.351699) " cx="4345.08924" cy="5171.3517" r="52.4042069"></circle>
            <circle id="Oval" fill="#FFAB01" transform="translate(4502.301860, 1404.938702) scale(-1, 1) rotate(90.000000) translate(-4502.301860, -1404.938702) " cx="4502.30186" cy="1404.9387" r="31.2195275"></circle>
            <circle id="Oval" fill="#FFAB01" transform="translate(3722.371164, 2527.169217) scale(-1, 1) rotate(90.000000) translate(-3722.371164, -2527.169217) " cx="3722.37116" cy="2527.16922" r="23.9721372"></circle>
            <circle id="Oval" fill="#FFAB01" transform="translate(2611.847971, 1489.119928) scale(-1, 1) rotate(90.000000) translate(-2611.847971, -1489.119928) " cx="2611.84797" cy="1489.11993" r="52.9616985"></circle>
            <circle id="Oval" fill="#5222D0" transform="translate(7028.296131, 2746.820893) rotate(90.000000) translate(-7028.296131, -2746.820893) " cx="7028.29613" cy="2746.82089" r="48.501766"></circle>
            <circle id="Oval" fill="#5222D0" transform="translate(6071.640609, 874.764226) rotate(90.000000) translate(-6071.640609, -874.764226) " cx="6071.64061" cy="874.764226" r="28.4320697"></circle>
            <circle id="Oval" fill="#FFAB01" transform="translate(7413.522800, 2250.095911) rotate(90.000000) translate(-7413.522800, -2250.095911) " cx="7413.5228" cy="2250.09591" r="31.2195275"></circle>
            <circle id="Oval" fill="#FFAB01" transform="translate(6646.971902, 1114.485598) rotate(90.000000) translate(-6646.971902, -1114.485598) " cx="6646.9719" cy="1114.4856" r="23.9721372"></circle>
            <circle id="Oval" fill="#FFAB01" transform="translate(5523.068911, 2165.914685) rotate(90.000000) translate(-5523.068911, -2165.914685) " cx="5523.06891" cy="2165.91468" r="52.9616985"></circle>
            <circle id="Oval" fill="#5222D0" transform="translate(4949.967585, 3090.235696) scale(-1, -1) rotate(-90.000000) translate(-4949.967585, -3090.235696) " cx="4949.96758" cy="3090.2357" r="48.501766"></circle>
            <circle id="Oval" fill="#5222D0" transform="translate(6297.982184, 6547.798367) scale(-1, -1) rotate(-90.000000) translate(-6297.982184, -6547.798367) " cx="6297.98218" cy="6547.79837" r="28.4320697"></circle>
            <circle id="Oval" fill="#5222D0" transform="translate(5920.002904, 4948.912566) scale(-1, -1) rotate(-90.000000) translate(-5920.002904, -4948.912566) " cx="5920.0029" cy="4948.91257" r="28.4320697"></circle>
            <circle id="Oval" fill="#5222D0" transform="translate(5891.013343, 3167.169531) scale(-1, -1) rotate(-90.000000) translate(-5891.013343, -3167.169531) " cx="5891.01334" cy="3167.16953" r="28.4320697"></circle>
            <circle id="Oval" fill="#5222D0" transform="translate(4721.953536, 7353.373676) scale(-1, -1) rotate(-90.000000) translate(-4721.953536, -7353.373676) " cx="4721.95354" cy="7353.37368" r="52.4042069"></circle>
            <circle id="Oval" fill="#FFAB01" transform="translate(4564.740915, 3586.960678) scale(-1, -1) rotate(-90.000000) translate(-4564.740915, -3586.960678) " cx="4564.74092" cy="3586.96068" r="31.2195275"></circle>
            <circle id="Oval" fill="#FFAB01" transform="translate(6197.633702, 6391.700730) scale(-1, -1) rotate(-90.000000) translate(-6197.633702, -6391.700730) " cx="6197.6337" cy="6391.70073" r="26.2021034"></circle>
            <circle id="Oval" fill="#FFAB01" transform="translate(5392.615886, 6611.352406) scale(-1, -1) rotate(-90.000000) translate(-5392.615886, -6611.352406) " cx="5392.61589" cy="6611.35241" r="35.1219684"></circle>
            <circle id="Oval" fill="#FFAB01" transform="translate(5344.671611, 4709.191194) scale(-1, -1) rotate(-90.000000) translate(-5344.671611, -4709.191194) " cx="5344.67161" cy="4709.19119" r="23.9721372"></circle>
            <circle id="Oval" fill="#FFAB01" transform="translate(6455.194804, 3671.141904) scale(-1, -1) rotate(-90.000000) translate(-6455.194804, -3671.141904) " cx="6455.1948" cy="3671.1419" r="52.9616985"></circle>
            <circle id="Oval" fill="#FFAB01" transform="translate(2463.555215, 5666.961698) scale(-1, -1) rotate(-90.000000) translate(-2463.555215, -5666.961698) " cx="2463.55522" cy="5666.9617" r="52.9616985"></circle>
            <circle id="Oval" fill="#5222D0" transform="translate(7806.554352, 4659.016953) scale(-1, 1) rotate(90.000000) translate(-7806.554352, -4659.016953) " cx="7806.55435" cy="4659.01695" r="48.501766"></circle>
            <circle id="Oval" fill="#5222D0" transform="translate(6458.539754, 8116.579625) scale(-1, 1) rotate(90.000000) translate(-6458.539754, -8116.579625) " cx="6458.53975" cy="8116.57962" r="28.4320697"></circle>
            <circle id="Oval" fill="#FFAB01" transform="translate(6558.888235, 7960.481987) scale(-1, 1) rotate(90.000000) translate(-6558.888235, -7960.481987) " cx="6558.88823" cy="7960.48199" r="26.2021034"></circle>
            <circle id="Oval" fill="#FFAB01" transform="translate(7363.906051, 8180.133663) scale(-1, 1) rotate(90.000000) translate(-7363.906051, -8180.133663) " cx="7363.90605" cy="8180.13366" r="35.1219684"></circle>
            <circle id="Oval" fill="#5222D0" transform="translate(7953.732125, 10158.113727) scale(-1, -1) rotate(-90.000000) translate(-7953.732125, -10158.113727) " cx="7953.73212" cy="10158.1137" r="28.4320697"></circle>
            <circle id="Oval" fill="#FFAB01" transform="translate(7853.383643, 10002.016090) scale(-1, -1) rotate(-90.000000) translate(-7853.383643, -10002.016090) " cx="7853.38364" cy="10002.0161" r="26.2021034"></circle>
            <circle id="Oval" fill="#FFAB01" transform="translate(7048.365827, 10221.667765) scale(-1, -1) rotate(-90.000000) translate(-7048.365827, -10221.667765) " cx="7048.36583" cy="10221.6678" r="35.1219684"></circle>
            <circle id="Oval" fill="#5222D0" transform="translate(6836.519033, 6517.693823) scale(-1, 1) rotate(90.000000) translate(-6836.519033, -6517.693823) " cx="6836.51903" cy="6517.69382" r="28.4320697"></circle>
            <circle id="Oval" fill="#5222D0" transform="translate(8034.568401, 8922.154933) scale(-1, 1) rotate(90.000000) translate(-8034.568401, -8922.154933) " cx="8034.5684" cy="8922.15493" r="52.4042069"></circle>
            <circle id="Oval" fill="#FFAB01" transform="translate(8191.781022, 5155.741935) scale(-1, 1) rotate(90.000000) translate(-8191.781022, -5155.741935) " cx="8191.78102" cy="5155.74194" r="31.2195275"></circle>
            <circle id="Oval" fill="#FFAB01" transform="translate(7411.850326, 6277.972451) scale(-1, 1) rotate(90.000000) translate(-7411.850326, -6277.972451) " cx="7411.85033" cy="6277.97245" r="23.9721372"></circle>
            <circle id="Oval" fill="#FFAB01" transform="translate(6301.327133, 5239.923161) scale(-1, 1) rotate(90.000000) translate(-6301.327133, -5239.923161) " cx="6301.32713" cy="5239.92316" r="52.9616985"></circle>
            <circle id="Oval" fill="#5222D0" transform="translate(10591.782199, 2403.406091) scale(-1, 1) rotate(90.000000) translate(-10591.782199, -2403.406091) " cx="10591.7822" cy="2403.40609" r="28.4320697"></circle>
            <circle id="Oval" fill="#FFAB01" transform="translate(10692.130680, 2247.308453) scale(-1, 1) rotate(90.000000) translate(-10692.130680, -2247.308453) " cx="10692.1307" cy="2247.30845" r="26.2021034"></circle>
            <circle id="Oval" fill="#5222D0" transform="translate(10510.945923, 1167.447296) scale(-1, -1) rotate(-90.000000) translate(-10510.945923, -1167.447296) " cx="10510.9459" cy="1167.4473" r="52.4042069"></circle>
            <circle id="Oval" fill="#5222D0" transform="translate(8558.052979, 2543.893964) scale(-1, 1) rotate(90.000000) translate(-8558.052979, -2543.893964) " cx="8558.05298" cy="2543.89396" r="28.4320697"></circle>
            <circle id="Oval" fill="#5222D0" transform="translate(10134.081626, 3349.469272) scale(-1, 1) rotate(90.000000) translate(-10134.081626, -3349.469272) " cx="10134.0816" cy="3349.46927" r="52.4042069"></circle>
            <circle id="Oval" fill="#FFAB01" transform="translate(8658.401460, 2387.796327) scale(-1, 1) rotate(90.000000) translate(-8658.401460, -2387.796327) " cx="8658.40146" cy="2387.79633" r="26.2021034"></circle>
            <circle id="Oval" fill="#FFAB01" transform="translate(9463.419276, 2607.448003) scale(-1, 1) rotate(90.000000) translate(-9463.419276, -2607.448003) " cx="9463.41928" cy="2607.448" r="35.1219684"></circle>
            <circle id="Oval" fill="#5222D0" transform="translate(8397.495409, 4112.675222) scale(-1, -1) rotate(-90.000000) translate(-8397.495409, -4112.675222) " cx="8397.49541" cy="4112.67522" r="28.4320697"></circle>
            <circle id="Oval" fill="#FFAB01" transform="translate(8297.146927, 3956.577584) scale(-1, -1) rotate(-90.000000) translate(-8297.146927, -3956.577584) " cx="8297.14693" cy="3956.57758" r="26.2021034"></circle>
            <circle id="Oval" fill="#5222D0" transform="translate(8019.516129, 2513.789420) scale(-1, -1) rotate(-90.000000) translate(-8019.516129, -2513.789420) " cx="8019.51613" cy="2513.78942" r="28.4320697"></circle>
            <circle id="Oval" fill="#FFAB01" transform="translate(8554.708029, 1236.018758) scale(-1, -1) rotate(-90.000000) translate(-8554.708029, -1236.018758) " cx="8554.70803" cy="1236.01876" r="52.9616985"></circle>
            <circle id="Oval" fill="#5222D0" transform="translate(126.550585, 3882.988698) scale(1, -1) rotate(-90.000000) translate(-126.550585, -3882.988698) " cx="126.550585" cy="3882.9887" r="28.4320697"></circle>
            <circle id="Oval" fill="#FFAB01" transform="translate(26.202103, 4039.086335) scale(1, -1) rotate(-90.000000) translate(-26.202103, -4039.086335) " cx="26.2021034" cy="4039.08634" r="26.2021034"></circle>
            <circle id="Oval" fill="#5222D0" transform="translate(207.386861, 5118.947492) rotate(90.000000) translate(-207.386861, -5118.947492) " cx="207.386861" cy="5118.94749" r="52.4042069"></circle>
            <circle id="Oval" fill="#5222D0" transform="translate(2160.279805, 3742.500824) scale(1, -1) rotate(-90.000000) translate(-2160.279805, -3742.500824) " cx="2160.27981" cy="3742.50082" r="28.4320697"></circle>
            <circle id="Oval" fill="#5222D0" transform="translate(584.251158, 2936.925516) scale(1, -1) rotate(-90.000000) translate(-584.251158, -2936.925516) " cx="584.251158" cy="2936.92552" r="52.4042069"></circle>
            <circle id="Oval" fill="#FFAB01" transform="translate(2059.931324, 3898.598462) scale(1, -1) rotate(-90.000000) translate(-2059.931324, -3898.598462) " cx="2059.93132" cy="3898.59846" r="26.2021034"></circle>
            <circle id="Oval" fill="#FFAB01" transform="translate(1254.913508, 3678.946786) scale(1, -1) rotate(-90.000000) translate(-1254.913508, -3678.946786) " cx="1254.91351" cy="3678.94679" r="35.1219684"></circle>
            <circle id="Oval" fill="#5222D0" transform="translate(2320.837375, 2173.719567) rotate(90.000000) translate(-2320.837375, -2173.719567) " cx="2320.83738" cy="2173.71957" r="28.4320697"></circle>
            <circle id="Oval" fill="#FFAB01" transform="translate(2421.185857, 2329.817204) rotate(90.000000) translate(-2421.185857, -2329.817204) " cx="2421.18586" cy="2329.8172" r="26.2021034"></circle>
            <circle id="Oval" fill="#5222D0" transform="translate(2698.816655, 3772.605368) rotate(90.000000) translate(-2698.816655, -3772.605368) " cx="2698.81665" cy="3772.60537" r="28.4320697"></circle>
            <circle id="Oval" fill="#FFAB01" transform="translate(2163.624755, 5050.376030) rotate(90.000000) translate(-2163.624755, -5050.376030) " cx="2163.62475" cy="5050.37603" r="52.9616985"></circle>
            <circle id="Oval" fill="#5222D0" transform="translate(10717.775292, 6497.624127) rotate(90.000000) translate(-10717.775292, -6497.624127) " cx="10717.7753" cy="6497.62413" r="48.501766"></circle>
            <circle id="Oval" fill="#5222D0" transform="translate(9761.119771, 4625.567459) rotate(90.000000) translate(-9761.119771, -4625.567459) " cx="9761.11977" cy="4625.56746" r="28.4320697"></circle>
            <circle id="Oval" fill="#FFAB01" transform="translate(11103.001962, 6000.899144) rotate(90.000000) translate(-11103.001962, -6000.899144) " cx="11103.002" cy="6000.89914" r="31.2195275"></circle>
            <circle id="Oval" fill="#FFAB01" transform="translate(10336.451063, 4865.288831) rotate(90.000000) translate(-10336.451063, -4865.288831) " cx="10336.4511" cy="4865.28883" r="23.9721372"></circle>
            <circle id="Oval" fill="#FFAB01" transform="translate(9212.548073, 5916.717919) rotate(90.000000) translate(-9212.548073, -5916.717919) " cx="9212.54807" cy="5916.71792" r="52.9616985"></circle>
            <circle id="Oval" fill="#5222D0" transform="translate(8639.446747, 6841.038929) scale(-1, -1) rotate(-90.000000) translate(-8639.446747, -6841.038929) " cx="8639.44675" cy="6841.03893" r="48.501766"></circle>
            <circle id="Oval" fill="#5222D0" transform="translate(9987.461345, 10298.601601) scale(-1, -1) rotate(-90.000000) translate(-9987.461345, -10298.601601) " cx="9987.46135" cy="10298.6016" r="28.4320697"></circle>
            <circle id="Oval" fill="#5222D0" transform="translate(9609.482066, 8699.715799) scale(-1, -1) rotate(-90.000000) translate(-9609.482066, -8699.715799) " cx="9609.48207" cy="8699.7158" r="28.4320697"></circle>
            <circle id="Oval" fill="#5222D0" transform="translate(9580.492505, 6917.972765) scale(-1, -1) rotate(-90.000000) translate(-9580.492505, -6917.972765) " cx="9580.4925" cy="6917.97277" r="28.4320697"></circle>
            <circle id="Oval" fill="#5222D0" transform="translate(8411.432698, 11104.176909) scale(-1, -1) rotate(-90.000000) translate(-8411.432698, -11104.176909) " cx="8411.4327" cy="11104.1769" r="52.4042069"></circle>
            <circle id="Oval" fill="#FFAB01" transform="translate(8254.220077, 7337.763912) scale(-1, -1) rotate(-90.000000) translate(-8254.220077, -7337.763912) " cx="8254.22008" cy="7337.76391" r="31.2195275"></circle>
            <circle id="Oval" fill="#FFAB01" transform="translate(9887.112864, 10142.503964) scale(-1, -1) rotate(-90.000000) translate(-9887.112864, -10142.503964) " cx="9887.11286" cy="10142.504" r="26.2021034"></circle>
            <circle id="Oval" fill="#FFAB01" transform="translate(9082.095047, 10362.155639) scale(-1, -1) rotate(-90.000000) translate(-9082.095047, -10362.155639) " cx="9082.09505" cy="10362.1556" r="35.1219684"></circle>
            <circle id="Oval" fill="#FFAB01" transform="translate(9034.150773, 8459.994427) scale(-1, -1) rotate(-90.000000) translate(-9034.150773, -8459.994427) " cx="9034.15077" cy="8459.99443" r="23.9721372"></circle>
            <circle id="Oval" fill="#FFAB01" transform="translate(10144.673966, 7421.945138) scale(-1, -1) rotate(-90.000000) translate(-10144.673966, -7421.945138) " cx="10144.674" cy="7421.94514" r="52.9616985"></circle>
            <circle id="Oval" fill="#5222D0" transform="translate(13787.323836, 7536.788400) scale(-1, -1) rotate(-90.000000) translate(-13787.323836, -7536.788400) " cx="13787.3238" cy="7536.7884" r="48.501766"></circle>
            <circle id="Oval" fill="#FFAB01" transform="translate(13402.097167, 8033.513382) scale(-1, -1) rotate(-90.000000) translate(-13402.097167, -8033.513382) " cx="13402.0972" cy="8033.51338" r="31.2195275"></circle>
            <circle id="Oval" fill="#FFAB01" transform="translate(14182.027863, 9155.743898) scale(-1, -1) rotate(-90.000000) translate(-14182.027863, -9155.743898) " cx="14182.0279" cy="9155.7439" r="23.9721372"></circle>
            <circle id="Oval" fill="#5222D0" transform="translate(10876.102896, 9375.395573) scale(1, -1) rotate(-90.000000) translate(-10876.102896, -9375.395573) " cx="10876.1029" cy="9375.39557" r="48.501766"></circle>
            <circle id="Oval" fill="#5222D0" transform="translate(11832.758418, 7503.338906) scale(1, -1) rotate(-90.000000) translate(-11832.758418, -7503.338906) " cx="11832.7584" cy="7503.33891" r="28.4320697"></circle>
            <circle id="Oval" fill="#FFAB01" transform="translate(10490.876226, 8878.670591) scale(1, -1) rotate(-90.000000) translate(-10490.876226, -8878.670591) " cx="10490.8762" cy="8878.67059" r="31.2195275"></circle>
            <circle id="Oval" fill="#FFAB01" transform="translate(11257.427125, 7743.060278) scale(1, -1) rotate(-90.000000) translate(-11257.427125, -7743.060278) " cx="11257.4271" cy="7743.06028" r="23.9721372"></circle>
            <circle id="Oval" fill="#FFAB01" transform="translate(12381.330115, 8794.489365) scale(1, -1) rotate(-90.000000) translate(-12381.330115, -8794.489365) " cx="12381.3301" cy="8794.48937" r="52.9616985"></circle>
            <circle id="Oval" fill="#5222D0" transform="translate(12954.431442, 9718.810376) scale(-1, 1) rotate(90.000000) translate(-12954.431442, -9718.810376) " cx="12954.4314" cy="9718.81038" r="48.501766"></circle>
            <circle id="Oval" fill="#5222D0" transform="translate(12013.385684, 9795.744212) scale(-1, 1) rotate(90.000000) translate(-12013.385684, -9795.744212) " cx="12013.3857" cy="9795.74421" r="28.4320697"></circle>
            <circle id="Oval" fill="#FFAB01" transform="translate(13339.658112, 10215.535358) scale(-1, 1) rotate(90.000000) translate(-13339.658112, -10215.535358) " cx="13339.6581" cy="10215.5354" r="31.2195275"></circle>
            <circle id="Oval" fill="#FFAB01" transform="translate(11449.204223, 10299.716584) scale(-1, 1) rotate(90.000000) translate(-11449.204223, -10299.716584) " cx="11449.2042" cy="10299.7166" r="52.9616985"></circle>
            <circle id="Oval" fill="#5222D0" transform="translate(2187.039400, 8155.604034) scale(1, -1) rotate(-90.000000) translate(-2187.039400, -8155.604034) " cx="2187.0394" cy="8155.60403" r="28.4320697"></circle>
            <circle id="Oval" fill="#FFAB01" transform="translate(2086.690919, 8311.701672) scale(1, -1) rotate(-90.000000) translate(-2086.690919, -8311.701672) " cx="2086.69092" cy="8311.70167" r="26.2021034"></circle>
            <circle id="Oval" fill="#5222D0" transform="translate(2267.875677, 9391.562829) rotate(90.000000) translate(-2267.875677, -9391.562829) " cx="2267.87568" cy="9391.56283" r="52.4042069"></circle>
            <circle id="Oval" fill="#5222D0" transform="translate(2872.754022, 11472.678832) scale(1, -1) rotate(-90.000000) translate(-2872.754022, -11472.678832) " cx="2872.75402" cy="11472.6788" r="48.501766"></circle>
            <circle id="Oval" fill="#5222D0" transform="translate(4220.768621, 8015.116160) scale(1, -1) rotate(-90.000000) translate(-4220.768621, -8015.116160) " cx="4220.76862" cy="8015.11616" r="28.4320697"></circle>
            <circle id="Oval" fill="#5222D0" transform="translate(3842.789341, 9614.001962) scale(1, -1) rotate(-90.000000) translate(-3842.789341, -9614.001962) " cx="3842.78934" cy="9614.00196" r="28.4320697"></circle>
            <circle id="Oval" fill="#5222D0" transform="translate(3813.799780, 11395.744996) scale(1, -1) rotate(-90.000000) translate(-3813.799780, -11395.744996) " cx="3813.79978" cy="11395.745" r="28.4320697"></circle>
            <circle id="Oval" fill="#FFAB01" transform="translate(2487.527353, 10975.953850) scale(1, -1) rotate(-90.000000) translate(-2487.527353, -10975.953850) " cx="2487.52735" cy="10975.9538" r="31.2195275"></circle>
            <circle id="Oval" fill="#FFAB01" transform="translate(4120.420140, 8171.213798) scale(1, -1) rotate(-90.000000) translate(-4120.420140, -8171.213798) " cx="4120.42014" cy="8171.2138" r="26.2021034"></circle>
            <circle id="Oval" fill="#FFAB01" transform="translate(3315.402323, 7951.562122) scale(1, -1) rotate(-90.000000) translate(-3315.402323, -7951.562122) " cx="3315.40232" cy="7951.56212" r="35.1219684"></circle>
            <circle id="Oval" fill="#FFAB01" transform="translate(22599.590927, 8525.678754) scale(-1, -1) rotate(-90.000000) translate(-22599.590927, -8525.678754) " cx="22599.5909" cy="8525.67875" r="26.2021034"></circle>
            <circle id="Oval" fill="#FFAB01" transform="translate(21794.573110, 8745.330429) scale(-1, -1) rotate(-90.000000) translate(-21794.573110, -8745.330429) " cx="21794.5731" cy="8745.33043" r="35.1219684"></circle>
            <circle id="Oval" fill="#5222D0" transform="translate(21204.747037, 10723.310494) scale(-1, 1) rotate(90.000000) translate(-21204.747037, -10723.310494) " cx="21204.747" cy="10723.3105" r="28.4320697"></circle>
            <circle id="Oval" fill="#FFAB01" transform="translate(21305.095518, 10567.212856) scale(-1, 1) rotate(90.000000) translate(-21305.095518, -10567.212856) " cx="21305.0955" cy="10567.2129" r="26.2021034"></circle>
            <circle id="Oval" fill="#FFAB01" transform="translate(22110.113335, 10786.864532) scale(-1, 1) rotate(90.000000) translate(-22110.113335, -10786.864532) " cx="22110.1133" cy="10786.8645" r="35.1219684"></circle>
            <circle id="Oval" fill="#5222D0" transform="translate(22321.960129, 7082.890589) scale(-1, -1) rotate(-90.000000) translate(-22321.960129, -7082.890589) " cx="22321.9601" cy="7082.89059" r="28.4320697"></circle>
            <circle id="Oval" fill="#5222D0" transform="translate(21123.910761, 9487.351699) scale(-1, -1) rotate(-90.000000) translate(-21123.910761, -9487.351699) " cx="21123.9108" cy="9487.3517" r="52.4042069"></circle>
            <circle id="Oval" fill="#FFAB01" transform="translate(21746.628836, 6843.169217) scale(-1, -1) rotate(-90.000000) translate(-21746.628836, -6843.169217) " cx="21746.6288" cy="6843.16922" r="23.9721372"></circle>
            <circle id="Oval" fill="#FFAB01" transform="translate(23005.444785, 9982.961698) scale(-1, 1) rotate(90.000000) translate(-23005.444785, -9982.961698) " cx="23005.4448" cy="9982.9617" r="52.9616985"></circle>
            <circle id="Oval" fill="#5222D0" transform="translate(25342.449415, 8198.988698) rotate(90.000000) translate(-25342.449415, -8198.988698) " cx="25342.4494" cy="8198.9887" r="28.4320697"></circle>
            <circle id="Oval" fill="#FFAB01" transform="translate(25442.797897, 8355.086335) rotate(90.000000) translate(-25442.797897, -8355.086335) " cx="25442.7979" cy="8355.08634" r="26.2021034"></circle>
            <circle id="Oval" fill="#5222D0" transform="translate(25261.613139, 9434.947492) scale(1, -1) rotate(-90.000000) translate(-25261.613139, -9434.947492) " cx="25261.6131" cy="9434.94749" r="52.4042069"></circle>
            <circle id="Oval" fill="#5222D0" transform="translate(23308.720195, 8058.500824) rotate(90.000000) translate(-23308.720195, -8058.500824) " cx="23308.7202" cy="8058.50082" r="28.4320697"></circle>
            <circle id="Oval" fill="#5222D0" transform="translate(24884.748842, 7252.925516) rotate(90.000000) translate(-24884.748842, -7252.925516) " cx="24884.7488" cy="7252.92552" r="52.4042069"></circle>
            <circle id="Oval" fill="#FFAB01" transform="translate(23409.068676, 8214.598462) rotate(90.000000) translate(-23409.068676, -8214.598462) " cx="23409.0687" cy="8214.59846" r="26.2021034"></circle>
            <circle id="Oval" fill="#FFAB01" transform="translate(24214.086492, 7994.946786) rotate(90.000000) translate(-24214.086492, -7994.946786) " cx="24214.0865" cy="7994.94679" r="35.1219684"></circle>
            <circle id="Oval" fill="#FFAB01" transform="translate(23047.814143, 6645.817204) scale(1, -1) rotate(-90.000000) translate(-23047.814143, -6645.817204) " cx="23047.8141" cy="6645.8172" r="26.2021034"></circle>
            <circle id="Oval" fill="#5222D0" transform="translate(22770.183345, 8088.605368) scale(1, -1) rotate(-90.000000) translate(-22770.183345, -8088.605368) " cx="22770.1833" cy="8088.60537" r="28.4320697"></circle>
            <circle id="Oval" fill="#FFAB01" transform="translate(23305.375245, 9366.376030) scale(1, -1) rotate(-90.000000) translate(-23305.375245, -9366.376030) " cx="23305.3752" cy="9366.37603" r="52.9616985"></circle>
            <circle id="Oval" fill="#5222D0" transform="translate(21248.231379, 12331.116160) rotate(90.000000) translate(-21248.231379, -12331.116160) " cx="21248.2314" cy="12331.1162" r="28.4320697"></circle>
            <circle id="Oval" fill="#FFAB01" transform="translate(22153.597677, 12267.562122) rotate(90.000000) translate(-22153.597677, -12267.562122) " cx="22153.5977" cy="12267.5621" r="35.1219684"></circle>
            <circle id="Oval" fill="#5222D0" transform="translate(4093.960129, 11654.890589) scale(-1, -1) rotate(-90.000000) translate(-4093.960129, -11654.890589) " cx="4093.96013" cy="11654.8906" r="28.4320697"></circle>
            <circle id="Oval" fill="#FFAB01" transform="translate(3518.628836, 11415.169217) scale(-1, -1) rotate(-90.000000) translate(-3518.628836, -11415.169217) " cx="3518.62884" cy="11415.1692" r="23.9721372"></circle>
            <circle id="Oval" fill="#FFAB01" transform="translate(4819.814143, 11217.817204) scale(1, -1) rotate(-90.000000) translate(-4819.814143, -11217.817204) " cx="4819.81414" cy="11217.8172" r="26.2021034"></circle>
            <circle id="Oval" fill="#FFAB01" transform="translate(3267.458049, 9853.723334) scale(1, -1) rotate(-90.000000) translate(-3267.458049, -9853.723334) " cx="3267.45805" cy="9853.72333" r="23.9721372"></circle>
            <circle id="Oval" fill="#FFAB01" transform="translate(4377.981242, 10891.772624) scale(1, -1) rotate(-90.000000) translate(-4377.981242, -10891.772624) " cx="4377.98124" cy="10891.7726" r="52.9616985"></circle>
            <circle id="Oval" fill="#5222D0" transform="translate(5109.410172, 8938.322188) scale(-1, -1) rotate(-90.000000) translate(-5109.410172, -8938.322188) " cx="5109.41017" cy="8938.32219" r="48.501766"></circle>
            <circle id="Oval" fill="#FFAB01" transform="translate(4724.183502, 9435.047171) scale(-1, -1) rotate(-90.000000) translate(-4724.183502, -9435.047171) " cx="4724.1835" cy="9435.04717" r="31.2195275"></circle>
            <circle id="Oval" fill="#FFAB01" transform="translate(5490.734401, 10570.657484) scale(-1, -1) rotate(-90.000000) translate(-5490.734401, -10570.657484) " cx="5490.7344" cy="10570.6575" r="23.9721372"></circle>
            <circle id="Oval" fill="#FFAB01" transform="translate(5682.511498, 8014.001177) rotate(90.000000) translate(-5682.511498, -8014.001177) " cx="5682.5115" cy="8014.00118" r="52.9616985"></circle>
            <circle id="Oval" fill="#FFAB01" transform="translate(6153.034377, 9417.764932) scale(-1, -1) rotate(-90.000000) translate(-6153.034377, -9417.764932) " cx="6153.03438" cy="9417.76493" r="52.9616985"></circle>
            <circle id="Oval" fill="#5222D0" transform="translate(13695.895220, 5839.784083) scale(-1, -1) rotate(-90.000000) translate(-13695.895220, -5839.784083) " cx="13695.8952" cy="5839.78408" r="28.4320697"></circle>
            <circle id="Oval" fill="#FFAB01" transform="translate(13595.546739, 5995.881720) scale(-1, -1) rotate(-90.000000) translate(-13595.546739, -5995.881720) " cx="13595.5467" cy="5995.88172" r="26.2021034"></circle>
            <circle id="Oval" fill="#FFAB01" transform="translate(12790.528922, 5776.230045) scale(-1, -1) rotate(-90.000000) translate(-12790.528922, -5776.230045) " cx="12790.5289" cy="5776.23004" r="35.1219684"></circle>
            <circle id="Oval" fill="#5222D0" transform="translate(14153.595793, 4893.720901) scale(-1, -1) rotate(-90.000000) translate(-14153.595793, -4893.720901) " cx="14153.5958" cy="4893.7209" r="52.4042069"></circle>
            <circle id="Oval" fill="#FFAB01" transform="translate(11895.197473, 6580.132878) scale(-1, -1) rotate(-90.000000) translate(-11895.197473, -6580.132878) " cx="11895.1975" cy="6580.13288" r="52.9616985"></circle>
            <circle id="Oval" fill="#5222D0" transform="translate(20922.747037, 793.310494) scale(-1, 1) rotate(90.000000) translate(-20922.747037, -793.310494) " cx="20922.747" cy="793.310494" r="28.4320697"></circle>
            <circle id="Oval" fill="#FFAB01" transform="translate(21023.095518, 637.212856) scale(-1, 1) rotate(90.000000) translate(-21023.095518, -637.212856) " cx="21023.0955" cy="637.212856" r="26.2021034"></circle>
            <circle id="Oval" fill="#FFAB01" transform="translate(21828.113335, 856.864532) scale(-1, 1) rotate(90.000000) translate(-21828.113335, -856.864532) " cx="21828.1133" cy="856.864532" r="35.1219684"></circle>
            <circle id="Oval" fill="#5222D0" transform="translate(18889.017816, 933.798367) scale(-1, 1) rotate(90.000000) translate(-18889.017816, -933.798367) " cx="18889.0178" cy="933.798367" r="28.4320697"></circle>
            <circle id="Oval" fill="#5222D0" transform="translate(20465.046464, 1739.373676) scale(-1, 1) rotate(90.000000) translate(-20465.046464, -1739.373676) " cx="20465.0465" cy="1739.37368" r="52.4042069"></circle>
            <circle id="Oval" fill="#FFAB01" transform="translate(18989.366298, 777.700730) scale(-1, 1) rotate(90.000000) translate(-18989.366298, -777.700730) " cx="18989.3663" cy="777.70073" r="26.2021034"></circle>
            <circle id="Oval" fill="#FFAB01" transform="translate(19794.384114, 997.352406) scale(-1, 1) rotate(90.000000) translate(-19794.384114, -997.352406) " cx="19794.3841" cy="997.352406" r="35.1219684"></circle>
            <circle id="Oval" fill="#FFAB01" transform="translate(22723.444785, 52.961698) scale(-1, 1) rotate(90.000000) translate(-22723.444785, -52.961698) " cx="22723.4448" cy="52.9616985" r="52.9616985"></circle>
            <circle id="Oval" fill="#5222D0" transform="translate(18728.460246, 2502.579625) scale(-1, -1) rotate(-90.000000) translate(-18728.460246, -2502.579625) " cx="18728.4602" cy="2502.57962" r="28.4320697"></circle>
            <circle id="Oval" fill="#FFAB01" transform="translate(18628.111765, 2346.481987) scale(-1, -1) rotate(-90.000000) translate(-18628.111765, -2346.481987) " cx="18628.1118" cy="2346.48199" r="26.2021034"></circle>
            <circle id="Oval" fill="#FFAB01" transform="translate(17823.093949, 2566.133663) scale(-1, -1) rotate(-90.000000) translate(-17823.093949, -2566.133663) " cx="17823.0939" cy="2566.13366" r="35.1219684"></circle>
            <circle id="Oval" fill="#5222D0" transform="translate(17233.267875, 4544.113727) scale(-1, 1) rotate(90.000000) translate(-17233.267875, -4544.113727) " cx="17233.2679" cy="4544.11373" r="28.4320697"></circle>
            <circle id="Oval" fill="#FFAB01" transform="translate(17333.616357, 4388.016090) scale(-1, 1) rotate(90.000000) translate(-17333.616357, -4388.016090) " cx="17333.6164" cy="4388.01609" r="26.2021034"></circle>
            <circle id="Oval" fill="#FFAB01" transform="translate(18138.634173, 4607.667765) scale(-1, 1) rotate(90.000000) translate(-18138.634173, -4607.667765) " cx="18138.6342" cy="4607.66777" r="35.1219684"></circle>
            <circle id="Oval" fill="#5222D0" transform="translate(18350.480967, 903.693823) scale(-1, -1) rotate(-90.000000) translate(-18350.480967, -903.693823) " cx="18350.481" cy="903.693823" r="28.4320697"></circle>
            <circle id="Oval" fill="#5222D0" transform="translate(17152.431599, 3308.154933) scale(-1, -1) rotate(-90.000000) translate(-17152.431599, -3308.154933) " cx="17152.4316" cy="3308.15493" r="52.4042069"></circle>
            <circle id="Oval" fill="#FFAB01" transform="translate(17775.149674, 663.972451) scale(-1, -1) rotate(-90.000000) translate(-17775.149674, -663.972451) " cx="17775.1497" cy="663.972451" r="23.9721372"></circle>
            <circle id="Oval" fill="#5222D0" transform="translate(14469.224708, 883.624127) scale(1, -1) rotate(-90.000000) translate(-14469.224708, -883.624127) " cx="14469.2247" cy="883.624127" r="48.501766"></circle>
            <circle id="Oval" fill="#FFAB01" transform="translate(14083.998038, 386.899144) scale(1, -1) rotate(-90.000000) translate(-14083.998038, -386.899144) " cx="14083.998" cy="386.899144" r="31.2195275"></circle>
            <circle id="Oval" fill="#FFAB01" transform="translate(15974.451927, 302.717919) scale(1, -1) rotate(-90.000000) translate(-15974.451927, -302.717919) " cx="15974.4519" cy="302.717919" r="52.9616985"></circle>
            <circle id="Oval" fill="#5222D0" transform="translate(16547.553253, 1227.038929) scale(-1, 1) rotate(90.000000) translate(-16547.553253, -1227.038929) " cx="16547.5533" cy="1227.03893" r="48.501766"></circle>
            <circle id="Oval" fill="#5222D0" transform="translate(15199.538655, 4684.601601) scale(-1, 1) rotate(90.000000) translate(-15199.538655, -4684.601601) " cx="15199.5387" cy="4684.6016" r="28.4320697"></circle>
            <circle id="Oval" fill="#5222D0" transform="translate(15577.517934, 3085.715799) scale(-1, 1) rotate(90.000000) translate(-15577.517934, -3085.715799) " cx="15577.5179" cy="3085.7158" r="28.4320697"></circle>
            <circle id="Oval" fill="#5222D0" transform="translate(15606.507495, 1303.972765) scale(-1, 1) rotate(90.000000) translate(-15606.507495, -1303.972765) " cx="15606.5075" cy="1303.97277" r="28.4320697"></circle>
            <circle id="Oval" fill="#5222D0" transform="translate(16775.567302, 5490.176909) scale(-1, 1) rotate(90.000000) translate(-16775.567302, -5490.176909) " cx="16775.5673" cy="5490.17691" r="52.4042069"></circle>
            <circle id="Oval" fill="#FFAB01" transform="translate(16932.779923, 1723.763912) scale(-1, 1) rotate(90.000000) translate(-16932.779923, -1723.763912) " cx="16932.7799" cy="1723.76391" r="31.2195275"></circle>
            <circle id="Oval" fill="#FFAB01" transform="translate(15299.887136, 4528.503964) scale(-1, 1) rotate(90.000000) translate(-15299.887136, -4528.503964) " cx="15299.8871" cy="4528.50396" r="26.2021034"></circle>
            <circle id="Oval" fill="#FFAB01" transform="translate(16104.904953, 4748.155639) scale(-1, 1) rotate(90.000000) translate(-16104.904953, -4748.155639) " cx="16104.905" cy="4748.15564" r="35.1219684"></circle>
            <circle id="Oval" fill="#FFAB01" transform="translate(16152.849227, 2845.994427) scale(-1, 1) rotate(90.000000) translate(-16152.849227, -2845.994427) " cx="16152.8492" cy="2845.99443" r="23.9721372"></circle>
            <circle id="Oval" fill="#FFAB01" transform="translate(15042.326034, 1807.945138) scale(-1, 1) rotate(90.000000) translate(-15042.326034, -1807.945138) " cx="15042.326" cy="1807.94514" r="52.9616985"></circle>
            <circle id="Oval" fill="#5222D0" transform="translate(11399.676164, 1922.788400) scale(-1, 1) rotate(90.000000) translate(-11399.676164, -1922.788400) " cx="11399.6762" cy="1922.7884" r="48.501766"></circle>
            <circle id="Oval" fill="#FFAB01" transform="translate(11784.902833, 2419.513382) scale(-1, 1) rotate(90.000000) translate(-11784.902833, -2419.513382) " cx="11784.9028" cy="2419.51338" r="31.2195275"></circle>
            <circle id="Oval" fill="#FFAB01" transform="translate(11004.972137, 3541.743898) scale(-1, 1) rotate(90.000000) translate(-11004.972137, -3541.743898) " cx="11004.9721" cy="3541.7439" r="23.9721372"></circle>
            <circle id="Oval" fill="#5222D0" transform="translate(14310.897104, 3761.395573) rotate(90.000000) translate(-14310.897104, -3761.395573) " cx="14310.8971" cy="3761.39557" r="48.501766"></circle>
            <circle id="Oval" fill="#5222D0" transform="translate(13354.241582, 1889.338906) rotate(90.000000) translate(-13354.241582, -1889.338906) " cx="13354.2416" cy="1889.33891" r="28.4320697"></circle>
            <circle id="Oval" fill="#FFAB01" transform="translate(14696.123774, 3264.670591) rotate(90.000000) translate(-14696.123774, -3264.670591) " cx="14696.1238" cy="3264.67059" r="31.2195275"></circle>
            <circle id="Oval" fill="#FFAB01" transform="translate(13929.572875, 2129.060278) rotate(90.000000) translate(-13929.572875, -2129.060278) " cx="13929.5729" cy="2129.06028" r="23.9721372"></circle>
            <circle id="Oval" fill="#FFAB01" transform="translate(12805.669885, 3180.489365) rotate(90.000000) translate(-12805.669885, -3180.489365) " cx="12805.6699" cy="3180.48937" r="52.9616985"></circle>
            <circle id="Oval" fill="#5222D0" transform="translate(12232.568558, 4104.810376) scale(-1, -1) rotate(-90.000000) translate(-12232.568558, -4104.810376) " cx="12232.5686" cy="4104.81038" r="48.501766"></circle>
            <circle id="Oval" fill="#5222D0" transform="translate(13173.614316, 4181.744212) scale(-1, -1) rotate(-90.000000) translate(-13173.614316, -4181.744212) " cx="13173.6143" cy="4181.74421" r="28.4320697"></circle>
            <circle id="Oval" fill="#FFAB01" transform="translate(11847.341888, 4601.535358) scale(-1, -1) rotate(-90.000000) translate(-11847.341888, -4601.535358) " cx="11847.3419" cy="4601.53536" r="31.2195275"></circle>
            <circle id="Oval" fill="#FFAB01" transform="translate(13737.795777, 4685.716584) scale(-1, -1) rotate(-90.000000) translate(-13737.795777, -4685.716584) " cx="13737.7958" cy="4685.71658" r="52.9616985"></circle>
            <circle id="Oval" fill="#5222D0" transform="translate(22999.960600, 2541.604034) rotate(90.000000) translate(-22999.960600, -2541.604034) " cx="22999.9606" cy="2541.60403" r="28.4320697"></circle>
            <circle id="Oval" fill="#FFAB01" transform="translate(23100.309081, 2697.701672) rotate(90.000000) translate(-23100.309081, -2697.701672) " cx="23100.3091" cy="2697.70167" r="26.2021034"></circle>
            <circle id="Oval" fill="#5222D0" transform="translate(22919.124323, 3777.562829) scale(1, -1) rotate(-90.000000) translate(-22919.124323, -3777.562829) " cx="22919.1243" cy="3777.56283" r="52.4042069"></circle>
            <circle id="Oval" fill="#5222D0" transform="translate(22314.245978, 5858.678832) rotate(90.000000) translate(-22314.245978, -5858.678832) " cx="22314.246" cy="5858.67883" r="48.501766"></circle>
            <circle id="Oval" fill="#5222D0" transform="translate(20966.231379, 2401.116160) rotate(90.000000) translate(-20966.231379, -2401.116160) " cx="20966.2314" cy="2401.11616" r="28.4320697"></circle>
            <circle id="Oval" fill="#5222D0" transform="translate(21344.210659, 4000.001962) rotate(90.000000) translate(-21344.210659, -4000.001962) " cx="21344.2107" cy="4000.00196" r="28.4320697"></circle>
            <circle id="Oval" fill="#5222D0" transform="translate(21373.200220, 5781.744996) rotate(90.000000) translate(-21373.200220, -5781.744996) " cx="21373.2002" cy="5781.745" r="28.4320697"></circle>
            <circle id="Oval" fill="#FFAB01" transform="translate(22699.472647, 5361.953850) rotate(90.000000) translate(-22699.472647, -5361.953850) " cx="22699.4726" cy="5361.95385" r="31.2195275"></circle>
            <circle id="Oval" fill="#FFAB01" transform="translate(21066.579860, 2557.213798) rotate(90.000000) translate(-21066.579860, -2557.213798) " cx="21066.5799" cy="2557.2138" r="26.2021034"></circle>
            <circle id="Oval" fill="#FFAB01" transform="translate(21871.597677, 2337.562122) rotate(90.000000) translate(-21871.597677, -2337.562122) " cx="21871.5977" cy="2337.56212" r="35.1219684"></circle>
            <circle id="Oval" fill="#FFAB01" transform="translate(21919.541951, 4239.723334) rotate(90.000000) translate(-21919.541951, -4239.723334) " cx="21919.542" cy="4239.72333" r="23.9721372"></circle>
            <circle id="Oval" fill="#FFAB01" transform="translate(20809.018758, 5277.772624) rotate(90.000000) translate(-20809.018758, -5277.772624) " cx="20809.0188" cy="5277.77262" r="52.9616985"></circle>
            <circle id="Oval" fill="#5222D0" transform="translate(20077.589828, 3324.322188) scale(-1, 1) rotate(90.000000) translate(-20077.589828, -3324.322188) " cx="20077.5898" cy="3324.32219" r="48.501766"></circle>
            <circle id="Oval" fill="#FFAB01" transform="translate(20462.816498, 3821.047171) scale(-1, 1) rotate(90.000000) translate(-20462.816498, -3821.047171) " cx="20462.8165" cy="3821.04717" r="31.2195275"></circle>
            <circle id="Oval" fill="#FFAB01" transform="translate(19696.265599, 4956.657484) scale(-1, 1) rotate(90.000000) translate(-19696.265599, -4956.657484) " cx="19696.2656" cy="4956.65748" r="23.9721372"></circle>
            <circle id="Oval" fill="#FFAB01" transform="translate(19504.488502, 2400.001177) scale(1, -1) rotate(-90.000000) translate(-19504.488502, -2400.001177) " cx="19504.4885" cy="2400.00118" r="52.9616985"></circle>
            <circle id="Oval" fill="#FFAB01" transform="translate(19033.965623, 3803.764932) scale(-1, 1) rotate(90.000000) translate(-19033.965623, -3803.764932) " cx="19033.9656" cy="3803.76493" r="52.9616985"></circle>
            <circle id="Oval" fill="#5222D0" transform="translate(17746.747037, 10924.353818) rotate(90.000000) translate(-17746.747037, -10924.353818) " cx="17746.747" cy="10924.3538" r="28.4320697"></circle>
            <circle id="Oval" fill="#FFAB01" transform="translate(17847.095518, 11080.451456) rotate(90.000000) translate(-17847.095518, -11080.451456) " cx="17847.0955" cy="11080.4515" r="26.2021034"></circle>
            <circle id="Oval" fill="#FFAB01" transform="translate(18652.113335, 10860.799780) rotate(90.000000) translate(-18652.113335, -10860.799780) " cx="18652.1133" cy="10860.7998" r="35.1219684"></circle>
            <circle id="Oval" fill="#5222D0" transform="translate(17665.910761, 12160.312613) scale(1, -1) rotate(-90.000000) translate(-17665.910761, -12160.312613) " cx="17665.9108" cy="12160.3126" r="52.4042069"></circle>
            <circle id="Oval" fill="#5222D0" transform="translate(15713.017816, 10783.865945) rotate(90.000000) translate(-15713.017816, -10783.865945) " cx="15713.0178" cy="10783.8659" r="28.4320697"></circle>
            <circle id="Oval" fill="#5222D0" transform="translate(16090.997096, 12382.751746) rotate(90.000000) translate(-16090.997096, -12382.751746) " cx="16090.9971" cy="12382.7517" r="28.4320697"></circle>
            <circle id="Oval" fill="#5222D0" transform="translate(17289.046464, 9978.290637) rotate(90.000000) translate(-17289.046464, -9978.290637) " cx="17289.0465" cy="9978.29064" r="52.4042069"></circle>
            <circle id="Oval" fill="#FFAB01" transform="translate(15813.366298, 10939.963582) rotate(90.000000) translate(-15813.366298, -10939.963582) " cx="15813.3663" cy="10939.9636" r="26.2021034"></circle>
            <circle id="Oval" fill="#FFAB01" transform="translate(16618.384114, 10720.311906) rotate(90.000000) translate(-16618.384114, -10720.311906) " cx="16618.3841" cy="10720.3119" r="35.1219684"></circle>
            <circle id="Oval" fill="#FFAB01" transform="translate(19547.444785, 11664.702614) rotate(90.000000) translate(-19547.444785, -11664.702614) " cx="19547.4448" cy="11664.7026" r="52.9616985"></circle>
            <circle id="Oval" fill="#5222D0" transform="translate(15552.460246, 9215.084687) scale(1, -1) rotate(-90.000000) translate(-15552.460246, -9215.084687) " cx="15552.4602" cy="9215.08469" r="28.4320697"></circle>
            <circle id="Oval" fill="#FFAB01" transform="translate(15452.111765, 9371.182325) scale(1, -1) rotate(-90.000000) translate(-15452.111765, -9371.182325) " cx="15452.1118" cy="9371.18232" r="26.2021034"></circle>
            <circle id="Oval" fill="#FFAB01" transform="translate(14647.093949, 9151.530649) scale(1, -1) rotate(-90.000000) translate(-14647.093949, -9151.530649) " cx="14647.0939" cy="9151.53065" r="35.1219684"></circle>
            <circle id="Oval" fill="#FFAB01" transform="translate(14962.634173, 7109.996547) rotate(90.000000) translate(-14962.634173, -7109.996547) " cx="14962.6342" cy="7109.99655" r="35.1219684"></circle>
            <circle id="Oval" fill="#5222D0" transform="translate(15174.480967, 10813.970489) scale(1, -1) rotate(-90.000000) translate(-15174.480967, -10813.970489) " cx="15174.481" cy="10813.9705" r="28.4320697"></circle>
            <circle id="Oval" fill="#FFAB01" transform="translate(14599.149674, 11053.691861) scale(1, -1) rotate(-90.000000) translate(-14599.149674, -11053.691861) " cx="14599.1497" cy="11053.6919" r="23.9721372"></circle>
            <circle id="Oval" fill="#FFAB01" transform="translate(15709.672867, 12091.741151) scale(1, -1) rotate(-90.000000) translate(-15709.672867, -12091.741151) " cx="15709.6729" cy="12091.7412" r="52.9616985"></circle>
            <circle id="Oval" fill="#5222D0" transform="translate(21803.613139, 12212.716820) scale(-1, -1) rotate(-90.000000) translate(-21803.613139, -12212.716820) " cx="21803.6131" cy="12212.7168" r="52.4042069"></circle>
            <circle id="Oval" fill="#FFAB01" transform="translate(19847.375245, 12281.288282) scale(-1, -1) rotate(-90.000000) translate(-19847.375245, -12281.288282) " cx="19847.3752" cy="12281.2883" r="52.9616985"></circle>
            <circle id="Oval" fill="#5222D0" transform="translate(19823.960600, 9176.060278) scale(-1, 1) rotate(90.000000) translate(-19823.960600, -9176.060278) " cx="19823.9606" cy="9176.06028" r="28.4320697"></circle>
            <circle id="Oval" fill="#FFAB01" transform="translate(19924.309081, 9019.962640) scale(-1, 1) rotate(90.000000) translate(-19924.309081, -9019.962640) " cx="19924.3091" cy="9019.96264" r="26.2021034"></circle>
            <circle id="Oval" fill="#5222D0" transform="translate(19743.124323, 7940.101483) scale(-1, -1) rotate(-90.000000) translate(-19743.124323, -7940.101483) " cx="19743.1243" cy="7940.10148" r="52.4042069"></circle>
            <circle id="Oval" fill="#5222D0" transform="translate(19138.245978, 5858.985480) scale(-1, 1) rotate(90.000000) translate(-19138.245978, -5858.985480) " cx="19138.246" cy="5858.98548" r="48.501766"></circle>
            <circle id="Oval" fill="#5222D0" transform="translate(17790.231379, 9316.548152) scale(-1, 1) rotate(90.000000) translate(-17790.231379, -9316.548152) " cx="17790.2314" cy="9316.54815" r="28.4320697"></circle>
            <circle id="Oval" fill="#5222D0" transform="translate(18168.210659, 7717.662350) scale(-1, 1) rotate(90.000000) translate(-18168.210659, -7717.662350) " cx="18168.2107" cy="7717.66235" r="28.4320697"></circle>
            <circle id="Oval" fill="#5222D0" transform="translate(18197.200220, 5935.919316) scale(-1, 1) rotate(90.000000) translate(-18197.200220, -5935.919316) " cx="18197.2002" cy="5935.91932" r="28.4320697"></circle>
            <circle id="Oval" fill="#FFAB01" transform="translate(19523.472647, 6355.710462) scale(-1, 1) rotate(90.000000) translate(-19523.472647, -6355.710462) " cx="19523.4726" cy="6355.71046" r="31.2195275"></circle>
            <circle id="Oval" fill="#FFAB01" transform="translate(17890.579860, 9160.450514) scale(-1, 1) rotate(90.000000) translate(-17890.579860, -9160.450514) " cx="17890.5799" cy="9160.45051" r="26.2021034"></circle>
            <circle id="Oval" fill="#FFAB01" transform="translate(18695.597677, 9380.102190) scale(-1, 1) rotate(90.000000) translate(-18695.597677, -9380.102190) " cx="18695.5977" cy="9380.10219" r="35.1219684"></circle>
            <circle id="Oval" fill="#FFAB01" transform="translate(18743.541951, 7477.940978) scale(-1, 1) rotate(90.000000) translate(-18743.541951, -7477.940978) " cx="18743.542" cy="7477.94098" r="23.9721372"></circle>
            <circle id="Oval" fill="#FFAB01" transform="translate(17633.018758, 6439.891688) scale(-1, 1) rotate(90.000000) translate(-17633.018758, -6439.891688) " cx="17633.0188" cy="6439.89169" r="52.9616985"></circle>
            <circle id="Oval" fill="#5222D0" transform="translate(16901.589828, 8393.342124) rotate(90.000000) translate(-16901.589828, -8393.342124) " cx="16901.5898" cy="8393.34212" r="48.501766"></circle>
            <circle id="Oval" fill="#FFAB01" transform="translate(17286.816498, 7896.617142) rotate(90.000000) translate(-17286.816498, -7896.617142) " cx="17286.8165" cy="7896.61714" r="31.2195275"></circle>
            <circle id="Oval" fill="#FFAB01" transform="translate(16520.265599, 6761.006828) rotate(90.000000) translate(-16520.265599, -6761.006828) " cx="16520.2656" cy="6761.00683" r="23.9721372"></circle>
            <circle id="Oval" fill="#FFAB01" transform="translate(16328.488502, 9317.663135) scale(-1, -1) rotate(-90.000000) translate(-16328.488502, -9317.663135) " cx="16328.4885" cy="9317.66313" r="52.9616985"></circle>
            <circle id="Oval" fill="#FFAB01" transform="translate(15857.965623, 7913.899380) rotate(90.000000) translate(-15857.965623, -7913.899380) " cx="15857.9656" cy="7913.89938" r="52.9616985"></circle>
            <circle id="Oval" fill="#5222D0" transform="translate(11491.104780, 225.784083) scale(-1, 1) rotate(90.000000) translate(-11491.104780, -225.784083) " cx="11491.1048" cy="225.784083" r="28.4320697"></circle>
            <circle id="Oval" fill="#FFAB01" transform="translate(11591.453261, 381.881720) scale(-1, 1) rotate(90.000000) translate(-11591.453261, -381.881720) " cx="11591.4533" cy="381.88172" r="26.2021034"></circle>
            <circle id="Oval" fill="#FFAB01" transform="translate(12396.471078, 162.230045) scale(-1, 1) rotate(90.000000) translate(-12396.471078, -162.230045) " cx="12396.4711" cy="162.230045" r="35.1219684"></circle>
            <circle id="Oval" fill="#FFAB01" transform="translate(13291.802527, 966.132878) scale(-1, 1) rotate(90.000000) translate(-13291.802527, -966.132878) " cx="13291.8025" cy="966.132878" r="52.9616985"></circle>
        </g>
    </g>
</svg>