<?xml version="1.0" encoding="UTF-8"?>
<svg viewBox="0 0 9247 7824" version="1.1" xmlns="http://www.w3.org/2000/svg" xmlns:xlink="http://www.w3.org/1999/xlink">
    <title>Group 6</title>
    <g id="Page-1" stroke="none" stroke-width="1" fill="none" fill-rule="evenodd">
        <g id="Group-6" fill-rule="nonzero">
            <circle id="Oval" fill="#5222D0" cx="55.5" cy="1530.5" r="43.5"></circle>
            <circle id="Oval" fill="#5222D0" cx="3156.5" cy="321.5" r="25.5"></circle>
            <circle id="Oval" fill="#FFAB01" cx="3016.5" cy="411.5" r="23.5"></circle>
            <circle id="Oval" fill="#FFAB01" cx="3213.5" cy="1133.5" r="31.5"></circle>
            <circle id="Oval" fill="#5222D0" transform="translate(4987.500000, 1662.500000) scale(1, -1) translate(-4987.500000, -1662.500000) " cx="4987.5" cy="1662.5" r="25.5"></circle>
            <circle id="Oval" fill="#FFAB01" transform="translate(4847.500000, 1572.500000) scale(1, -1) translate(-4847.500000, -1572.500000) " cx="4847.5" cy="1572.5" r="23.5"></circle>
            <circle id="Oval" fill="#FFAB01" transform="translate(5044.500000, 850.500000) scale(1, -1) translate(-5044.500000, -850.500000) " cx="5044.5" cy="850.5" r="31.5"></circle>
            <circle id="Oval" fill="#5222D0" cx="1722.5" cy="660.5" r="25.5"></circle>
            <circle id="Oval" fill="#5222D0" cx="3879" cy="1735" r="47"></circle>
            <circle id="Oval" fill="#FFAB01" cx="501" cy="1876" r="28"></circle>
            <circle id="Oval" fill="#FFAB01" cx="1507.5" cy="1176.5" r="21.5"></circle>
            <circle id="Oval" fill="#FFAB01" cx="576.5" cy="180.5" r="47.5"></circle>
            <circle id="Oval" fill="#5222D0" transform="translate(1704.500000, 4141.500000) scale(-1, 1) translate(-1704.500000, -4141.500000) " cx="1704.5" cy="4141.5" r="43.5"></circle>
            <circle id="Oval" fill="#5222D0" transform="translate(25.500000, 3283.500000) scale(-1, 1) translate(-25.500000, -3283.500000) " cx="25.5" cy="3283.5" r="25.5"></circle>
            <circle id="Oval" fill="#FFAB01" transform="translate(1259.000000, 4487.000000) scale(-1, 1) translate(-1259.000000, -4487.000000) " cx="1259" cy="4487" r="28"></circle>
            <circle id="Oval" fill="#FFAB01" transform="translate(240.500000, 3799.500000) scale(-1, 1) translate(-240.500000, -3799.500000) " cx="240.5" cy="3799.5" r="21.5"></circle>
            <circle id="Oval" fill="#FFAB01" transform="translate(1183.500000, 2791.500000) scale(-1, 1) translate(-1183.500000, -2791.500000) " cx="1183.5" cy="2791.5" r="47.5"></circle>
            <circle id="Oval" fill="#5222D0" transform="translate(2012.500000, 2277.500000) scale(1, -1) translate(-2012.500000, -2277.500000) " cx="2012.5" cy="2277.5" r="43.5"></circle>
            <circle id="Oval" fill="#5222D0" transform="translate(5113.500000, 3486.500000) scale(1, -1) translate(-5113.500000, -3486.500000) " cx="5113.5" cy="3486.5" r="25.5"></circle>
            <circle id="Oval" fill="#5222D0" transform="translate(3679.500000, 3147.500000) scale(1, -1) translate(-3679.500000, -3147.500000) " cx="3679.5" cy="3147.5" r="25.5"></circle>
            <circle id="Oval" fill="#5222D0" transform="translate(2081.500000, 3121.500000) scale(1, -1) translate(-2081.500000, -3121.500000) " cx="2081.5" cy="3121.5" r="25.5"></circle>
            <circle id="Oval" fill="#5222D0" transform="translate(5836.000000, 2073.000000) scale(1, -1) translate(-5836.000000, -2073.000000) " cx="5836" cy="2073" r="47"></circle>
            <circle id="Oval" fill="#FFAB01" transform="translate(2458.000000, 1932.000000) scale(1, -1) translate(-2458.000000, -1932.000000) " cx="2458" cy="1932" r="28"></circle>
            <circle id="Oval" fill="#FFAB01" transform="translate(4973.500000, 3396.500000) scale(1, -1) translate(-4973.500000, -3396.500000) " cx="4973.5" cy="3396.5" r="23.5"></circle>
            <circle id="Oval" fill="#FFAB01" transform="translate(5170.500000, 2674.500000) scale(1, -1) translate(-5170.500000, -2674.500000) " cx="5170.5" cy="2674.5" r="31.5"></circle>
            <circle id="Oval" fill="#FFAB01" transform="translate(3464.500000, 2631.500000) scale(1, -1) translate(-3464.500000, -2631.500000) " cx="3464.5" cy="2631.5" r="21.5"></circle>
            <circle id="Oval" fill="#FFAB01" transform="translate(2533.500000, 3627.500000) scale(1, -1) translate(-2533.500000, -3627.500000) " cx="2533.5" cy="3627.5" r="47.5"></circle>
            <circle id="Oval" fill="#FFAB01" transform="translate(4323.500000, 47.500000) scale(1, -1) translate(-4323.500000, -47.500000) " cx="4323.5" cy="47.5" r="47.5"></circle>
            <circle id="Oval" fill="#5222D0" cx="3419.5" cy="4839.5" r="43.5"></circle>
            <circle id="Oval" fill="#5222D0" cx="6520.5" cy="3630.5" r="25.5"></circle>
            <circle id="Oval" fill="#FFAB01" cx="6380.5" cy="3720.5" r="23.5"></circle>
            <circle id="Oval" fill="#FFAB01" cx="6577.5" cy="4442.5" r="31.5"></circle>
            <circle id="Oval" fill="#5222D0" transform="translate(8351.500000, 4971.500000) scale(1, -1) translate(-8351.500000, -4971.500000) " cx="8351.5" cy="4971.5" r="25.5"></circle>
            <circle id="Oval" fill="#FFAB01" transform="translate(8211.500000, 4881.500000) scale(1, -1) translate(-8211.500000, -4881.500000) " cx="8211.5" cy="4881.5" r="23.5"></circle>
            <circle id="Oval" fill="#FFAB01" transform="translate(8408.500000, 4159.500000) scale(1, -1) translate(-8408.500000, -4159.500000) " cx="8408.5" cy="4159.5" r="31.5"></circle>
            <circle id="Oval" fill="#5222D0" cx="5086.5" cy="3969.5" r="25.5"></circle>
            <circle id="Oval" fill="#5222D0" cx="7243" cy="5044" r="47"></circle>
            <circle id="Oval" fill="#FFAB01" cx="3865" cy="5185" r="28"></circle>
            <circle id="Oval" fill="#FFAB01" cx="4871.5" cy="4485.5" r="21.5"></circle>
            <circle id="Oval" fill="#FFAB01" cx="3940.5" cy="3489.5" r="47.5"></circle>
            <circle id="Oval" fill="#5222D0" transform="translate(5068.500000, 7450.500000) scale(-1, 1) translate(-5068.500000, -7450.500000) " cx="5068.5" cy="7450.5" r="43.5"></circle>
            <circle id="Oval" fill="#5222D0" transform="translate(3389.500000, 6592.500000) scale(-1, 1) translate(-3389.500000, -6592.500000) " cx="3389.5" cy="6592.5" r="25.5"></circle>
            <circle id="Oval" fill="#FFAB01" transform="translate(4623.000000, 7796.000000) scale(-1, 1) translate(-4623.000000, -7796.000000) " cx="4623" cy="7796" r="28"></circle>
            <circle id="Oval" fill="#FFAB01" transform="translate(3604.500000, 7108.500000) scale(-1, 1) translate(-3604.500000, -7108.500000) " cx="3604.5" cy="7108.5" r="21.5"></circle>
            <circle id="Oval" fill="#FFAB01" transform="translate(4547.500000, 6100.500000) scale(-1, 1) translate(-4547.500000, -6100.500000) " cx="4547.5" cy="6100.5" r="47.5"></circle>
            <circle id="Oval" fill="#5222D0" transform="translate(5376.500000, 5586.500000) scale(1, -1) translate(-5376.500000, -5586.500000) " cx="5376.5" cy="5586.5" r="43.5"></circle>
            <circle id="Oval" fill="#5222D0" transform="translate(8477.500000, 6795.500000) scale(1, -1) translate(-8477.500000, -6795.500000) " cx="8477.5" cy="6795.5" r="25.5"></circle>
            <circle id="Oval" fill="#5222D0" transform="translate(7043.500000, 6456.500000) scale(1, -1) translate(-7043.500000, -6456.500000) " cx="7043.5" cy="6456.5" r="25.5"></circle>
            <circle id="Oval" fill="#5222D0" transform="translate(5445.500000, 6430.500000) scale(1, -1) translate(-5445.500000, -6430.500000) " cx="5445.5" cy="6430.5" r="25.5"></circle>
            <circle id="Oval" fill="#5222D0" transform="translate(9200.000000, 5382.000000) scale(1, -1) translate(-9200.000000, -5382.000000) " cx="9200" cy="5382" r="47"></circle>
            <circle id="Oval" fill="#FFAB01" transform="translate(5822.000000, 5241.000000) scale(1, -1) translate(-5822.000000, -5241.000000) " cx="5822" cy="5241" r="28"></circle>
            <circle id="Oval" fill="#FFAB01" transform="translate(8337.500000, 6705.500000) scale(1, -1) translate(-8337.500000, -6705.500000) " cx="8337.5" cy="6705.5" r="23.5"></circle>
            <circle id="Oval" fill="#FFAB01" transform="translate(8534.500000, 5983.500000) scale(1, -1) translate(-8534.500000, -5983.500000) " cx="8534.5" cy="5983.5" r="31.5"></circle>
            <circle id="Oval" fill="#FFAB01" transform="translate(6828.500000, 5940.500000) scale(1, -1) translate(-6828.500000, -5940.500000) " cx="6828.5" cy="5940.5" r="21.5"></circle>
            <circle id="Oval" fill="#FFAB01" transform="translate(5897.500000, 6936.500000) scale(1, -1) translate(-5897.500000, -6936.500000) " cx="5897.5" cy="6936.5" r="47.5"></circle>
            <circle id="Oval" fill="#FFAB01" transform="translate(7687.500000, 3356.500000) scale(1, -1) translate(-7687.500000, -3356.500000) " cx="7687.5" cy="3356.5" r="47.5"></circle>
        </g>
    </g>
</svg>