<svg viewBox="0 0 452 415" version="1.1" xmlns="http://www.w3.org/2000/svg" xmlns:xlink="http://www.w3.org/1999/xlink">
	<g id="Page-1" stroke="none" stroke-width="1" fill="none" fill-rule="evenodd">
		<g id="Group" transform="translate(9.000000, 9.000000)" fill-rule="nonzero">
			<path d="M408.89151,50.1568712 C386.464816,19.8641397 351.452679,1.44551507 313.785537,0.123994521 C273.112071,-1.28671507 235.267638,20.8713233 216.591236,57.0309534 C197.947463,20.8408685 160.081277,-1.32913425 119.396934,0.123994521 C81.7287041,1.44551507 46.7176548,19.8641397 24.2909616,50.1568712 C2.4842411,78.5048466 -5.17513973,115.262696 3.49468767,149.961584 C17.6779205,204.432159 59.9665781,243.327282 103.908496,284.484762 C117.830688,297.362789 132.187948,310.588871 145.588058,324.511063 C181.785756,361.83994 209.804167,392.816816 210.065208,393.164871 C213.297767,396.721556 218.800296,396.983685 222.356981,393.751126 C222.561463,393.565134 222.757244,393.369353 222.943236,393.164871 C222.943236,393.164871 251.222688,361.83994 287.420386,324.511063 C300.820496,310.675885 315.177756,297.362789 329.099948,284.484762 C373.476934,243.327282 415.330523,204.432159 429.513756,149.961584 C438.232529,115.289888 430.638408,78.5342137 408.89151,50.1568712 Z" id="Shape" stroke="#000000" stroke-width="18" fill="#FD4848"></path>
			<path d="M375.217208,81.1337479 C352.68066,51.0270082 309.695893,49.5477753 307.868605,49.4607616 C303.063274,49.4607616 299.167121,53.3568 299.167121,58.1621315 C299.144395,62.6476877 302.535753,66.4153808 306.998468,66.8635014 C306.998468,66.8635014 343.283181,68.1687068 360.946962,91.5753918 C371.301592,105.323556 373.302907,124.640597 367.037921,148.830405 C365.836044,153.492164 368.641148,158.2442 373.302907,159.446077 C377.964666,160.647953 382.716701,157.842849 383.918578,153.18109 C391.662797,123.596433 388.617318,99.319611 375.217208,81.1337479 Z" id="Path" fill="#000000"></path>
		</g>
	</g>
</svg>