<svg id="Capa_1" enable-background="new 0 0 512 512" height="512" viewBox="0 0 512 512" width="512" xmlns="http://www.w3.org/2000/svg"><g><g><path d="m387.16 105.37h-262.667c-36.245 0-65.628 29.383-65.628 65.628v262.667c0 36.245 29.383 65.628 65.628 65.628h262.667c36.245 0 65.628-29.383 65.628-65.628v-262.667c0-36.245-29.383-65.628-65.628-65.628z" fill="#8bb6ef"/><path d="m387.16 105.37h-54.043c30.279 0 54.825 24.545 54.825 54.825v219.427c0 30.278-24.546 54.825-54.825 54.825h-219.428c-30.279 0-54.824-24.546-54.824-54.825v54.043c0 36.245 29.383 65.628 65.628 65.628h262.667c36.245 0 65.628-29.383 65.628-65.628v-262.667c0-36.245-29.383-65.628-65.628-65.628z" fill="#8388ef"/><path d="m385.691 105.37h-129.865v59.543c0 6.277-5.089 11.367-11.367 11.367h-42.236c-6.278 0-11.367 5.089-11.367 11.367v40.842c0 6.277 5.089 11.367 11.367 11.367h42.236c6.278 0 11.367 5.089 11.367 11.367v52.209h53.603c6.278 0 11.367-5.089 11.367-11.367v-40.842c0-6.277 5.089-11.367 11.367-11.367h42.236c6.278 0 11.367 5.089 11.367 11.367v40.842c0 6.278 5.089 11.367 11.367 11.367h55.656v-130.964c-.001-37.057-30.042-67.098-67.098-67.098z" fill="#b2e7f1"/><path d="m385.765 292.064v-40.842c0-6.277-5.089-11.367-11.367-11.367h-42.236c-6.278 0-11.367 5.089-11.367 11.367v40.842c0 6.278-5.089 11.367-11.367 11.367h-53.603v52.208c0 6.277 5.089 11.366 11.367 11.366h42.236c6.278 0 11.367 5.089 11.367 11.367v40.842c0 6.279-5.089 11.367-11.367 11.367h-42.236c-6.278 0-11.367 5.089-11.367 11.367v57.345h129.864c37.057 0 67.097-30.04 67.097-67.097v-128.765h-55.656c-6.276 0-11.365-5.089-11.365-11.367z" fill="#f7c4db"/><path d="m125.572 314.525v40.842c0 6.277 5.089 11.366 11.367 11.366h42.236c6.278 0 11.367-5.089 11.367-11.366v-40.842c0-6.278 5.089-11.367 11.367-11.367h53.603v-52.208c0-6.277-5.089-11.366-11.367-11.366h-42.236c-6.278 0-11.367-5.089-11.367-11.367v-40.842c0-6.279 5.089-11.367 11.367-11.367h42.236c6.278 0 11.367-5.089 11.367-11.367v-57.345h-129.866c-37.057 0-67.097 30.04-67.097 67.097v128.764h55.656c6.277 0 11.367 5.089 11.367 11.368z" fill="#fef2a8"/><path d="m387.941 160.195v138.538c2.066 2.842 5.408 4.698 9.191 4.698h55.655v-130.963c0-37.057-30.04-67.098-67.097-67.098h-52.574c30.279.001 54.825 24.546 54.825 54.825z" fill="#a7adf1"/><path d="m452.788 432.195v-128.764h-55.655c-3.783 0-7.125-1.856-9.191-4.698v80.888c0 30.279-24.546 54.825-54.825 54.825h-74.447c-1.764 2.002-2.843 4.623-2.843 7.502v57.345h129.864c37.056 0 67.097-30.04 67.097-67.098z" fill="#e893db"/></g><g><g fill="#440a29"><path d="m387.16 95.215h-262.667c-41.787 0-75.784 33.996-75.784 75.784v262.667c0 41.788 33.996 75.784 75.784 75.784h262.667c41.787 0 75.784-33.996 75.784-75.784v-262.668c0-41.787-33.997-75.783-75.784-75.783zm55.472 75.783v126.339h-45.501c-2.908 0-5.273-2.365-5.273-5.273v-40.842c0-9.627-7.832-17.46-17.459-17.46h-42.237c-9.627 0-17.46 7.833-17.46 17.46v40.842c0 2.908-2.365 5.273-5.273 5.273h-47.509v-46.116c0-9.627-7.833-17.46-17.46-17.46h-42.237c-2.908 0-5.273-2.365-5.273-5.272v-40.842c0-2.908 2.365-5.273 5.273-5.273h42.237c9.627 0 17.46-7.833 17.46-17.46v-49.387h125.24c30.588-.001 55.472 24.884 55.472 55.471zm-318.139-55.472h125.24v49.387c0 2.908-2.365 5.273-5.273 5.273h-42.237c-9.627 0-17.46 7.833-17.46 17.46v40.842c0 9.627 7.833 17.459 17.46 17.459h42.237c2.908 0 5.273 2.365 5.273 5.273v46.116h-47.51c-9.627 0-17.46 7.833-17.46 17.46v40.841c0 2.908-2.365 5.273-5.272 5.273h-42.237c-2.908 0-5.273-2.365-5.273-5.273v-40.841c0-9.627-7.833-17.46-17.46-17.46h-45.5v-126.338c0-30.587 24.884-55.472 55.472-55.472zm-55.472 318.139v-124.14h45.5c2.908 0 5.273 2.365 5.273 5.273v40.841c0 9.627 7.833 17.46 17.46 17.46h42.237c9.627 0 17.459-7.833 17.459-17.46v-40.841c0-2.908 2.365-5.273 5.273-5.273h47.51v46.115c0 9.627 7.833 17.46 17.46 17.46h42.236c2.908 0 5.273 2.365 5.273 5.273v40.842c0 2.908-2.365 5.273-5.273 5.273h-42.236c-9.627 0-17.46 7.833-17.46 17.46v47.189h-125.24c-30.588 0-55.472-24.885-55.472-55.472zm318.139 55.472h-125.24v-47.189c0-2.908 2.365-5.273 5.273-5.273h42.236c9.627 0 17.46-7.833 17.46-17.46v-40.842c0-9.627-7.833-17.46-17.46-17.46h-42.236c-2.908 0-5.273-2.365-5.273-5.273v-46.115h47.509c9.627 0 17.46-7.833 17.46-17.46v-40.842c0-2.908 2.365-5.273 5.273-5.273h42.237c2.907 0 5.272 2.365 5.272 5.273v40.842c0 9.627 7.833 17.46 17.46 17.46h45.501v124.141c0 30.586-24.884 55.471-55.472 55.471z"/><path d="m406.913 403.308c-3.365 0-6.093 2.728-6.093 6.093v11.733c0 3.365 2.728 6.094 6.093 6.094s6.094-2.728 6.094-6.094v-11.733c-.001-3.365-2.729-6.093-6.094-6.093z"/><path d="m369.311 347.004c-3.365 0-6.094 2.729-6.094 6.094v11.733c0 3.365 2.728 6.094 6.094 6.094 3.365 0 6.093-2.728 6.093-6.094v-11.733c.001-3.366-2.727-6.094-6.093-6.094z"/><path d="m359.255 438.681c-3.365 0-6.093 2.728-6.093 6.093v11.734c0 3.365 2.728 6.094 6.093 6.094s6.094-2.728 6.094-6.094v-11.734c-.001-3.364-2.729-6.093-6.094-6.093z"/></g><path d="m101.498 248.462c-5.584 0-10.124-4.511-10.155-10.101-.018-3.396-.041-6.793-.064-10.188-.06-8.815-.121-17.929-.096-26.918.015-5.61 4.565-10.168 10.184-10.128 5.608.015 10.143 4.575 10.128 10.184-.025 8.892.037 17.958.096 26.724.023 3.406.046 6.812.064 10.217.03 5.608-4.493 10.179-10.101 10.21-.019 0-.038 0-.056 0z" fill="#fff"/><path d="m104.182 174.01c-1.062 0-2.142-.169-3.206-.522-5.322-1.77-8.201-7.52-6.432-12.842 2.885-8.673 8.823-16.25 17.172-21.913 4.639-3.15 10.957-1.939 14.105 2.704 3.149 4.641 1.939 10.957-2.704 14.105-3.222 2.186-7.451 5.957-9.299 11.515-1.416 4.259-5.381 6.953-9.636 6.953z" fill="#fff"/></g><g><path d="m41.23 10.073 8.626 24.256c.369 1.038 1.1 1.861 2.023 2.277l21.55 9.709c3.045 1.372 3.045 6.223 0 7.594l-21.55 9.709c-.923.416-1.654 1.239-2.023 2.277l-8.626 24.255c-1.219 3.427-5.528 3.427-6.747 0l-8.626-24.255c-.369-1.038-1.101-1.861-2.023-2.277l-21.55-9.709c-3.045-1.372-3.045-6.222 0-7.594l21.55-9.709c.923-.416 1.654-1.239 2.023-2.277l8.626-24.256c1.219-3.427 5.528-3.427 6.747 0z" fill="#b2e7f1"/><ellipse cx="493.164" cy="100.791" fill="#8bb6ef" rx="18.836" ry="18.836" transform="matrix(.099 -.995 .995 .099 344.269 581.623)"/><path d="m135.739 10.633c0 4.405-3.571 7.977-7.977 7.977s-7.977-3.571-7.977-7.977 3.571-7.977 7.977-7.977c4.406.001 7.977 3.572 7.977 7.977z" fill="#8bb6ef"/><path d="m409.505 4.458 6.399 17.992c.274.77.816 1.381 1.501 1.689l15.986 7.202c2.258 1.017 2.258 4.616 0 5.633l-15.986 7.202c-.685.308-1.227.919-1.501 1.689l-6.399 17.992c-.904 2.542-4.101 2.542-5.005 0l-6.399-17.992c-.274-.771-.816-1.381-1.501-1.689l-15.986-7.202c-2.258-1.017-2.258-4.616 0-5.633l15.986-7.202c.684-.308 1.227-.919 1.501-1.689l6.399-17.992c.904-2.542 4.101-2.542 5.005 0z" fill="#b2e7f1"/></g></g></svg>