<?xml version="1.0" encoding="UTF-8"?>
<svg viewBox="0 0 928 879" version="1.1" xmlns="http://www.w3.org/2000/svg" xmlns:xlink="http://www.w3.org/1999/xlink">
    <title>Group 2</title>
    <g id="Page-1" stroke="none" stroke-width="1" fill="none" fill-rule="evenodd">
        <g id="Group-2" transform="translate(2.187449, 2.000000)" fill-rule="nonzero">
            <path d="M315.312551,783 C331.912551,767.2 353.012551,757.8 373.712551,748.4 C397.512551,737.6 421.512551,729.3 447.812551,736.2 C449.712551,736.7 450.512551,733.8 448.612551,733.3 C422.912551,726.5 399.112551,733.8 375.512551,744.3 C353.512551,754.1 330.912551,764 313.212551,780.8 C311.712551,782.2 313.912551,784.3 315.312551,783 L315.312551,783 Z" id="Path" stroke="#FFFFFF" stroke-width="4" fill="#E8E8E8"></path>
            <path d="M84.7125514,699.4 C101.712551,697 118.912551,701.4 135.112551,706.3 C148.012551,710.2 161.612551,715.7 168.312551,728.2 C169.212551,729.9 171.812551,728.4 170.912551,726.7 C164.012551,714 150.512551,707.9 137.312551,703.9 C120.112551,698.6 101.912551,694.1 83.9125514,696.6 C82.0125514,696.7 82.8125514,699.6 84.7125514,699.4 L84.7125514,699.4 Z" id="Path" stroke="#FFFFFF" stroke-width="4" fill="#E8E8E8"></path>
            <path d="M228.912551,689.7 C247.112551,670.7 272.712551,660.2 298.912551,661.1 C300.812551,661.2 300.812551,658.2 298.912551,658.1 C271.912551,657.2 245.412551,668 226.712551,687.6 C225.412551,689 227.512551,691.2 228.912551,689.7 L228.912551,689.7 Z" id="Path" stroke="#FFFFFF" stroke-width="4" fill="#E8E8E8"></path>
            <path d="M230.612551,574.4 C250.712551,577.8 268.512551,589.7 279.312551,607.1 C280.312551,608.7 282.912551,607.2 281.912551,605.6 C270.712551,587.6 252.312551,575.1 231.512551,571.6 C229.512551,571.2 228.712551,574.1 230.612551,574.4 L230.612551,574.4 Z" id="Path" stroke="#FFFFFF" stroke-width="4" fill="#E8E8E8"></path>
            <path d="M335.412551,554.5 C357.112551,532.8 387.312551,521.1 418.012551,522.4 C419.912551,522.5 419.912551,519.5 418.012551,519.4 C386.612551,518 355.612551,530.1 333.312551,552.4 C331.912551,553.8 334.012551,555.9 335.412551,554.5 L335.412551,554.5 Z" id="Path" stroke="#FFFFFF" stroke-width="4" fill="#E8E8E8"></path>
            <path d="M429.512551,621.3 C444.512551,608 462.512551,598.5 481.912551,593.5 C491.412551,591.1 501.212551,589.7 511.112551,589.6 C515.412551,589.5 526.912551,592.3 528.212551,585.8 C528.612551,583.9 525.712551,583.1 525.312551,585 C524.712551,588.4 514.412551,586.6 512.012551,586.6 C507.412551,586.6 502.812551,586.9 498.312551,587.5 C489.612551,588.5 481.012551,590.4 472.712551,593.2 C456.012551,598.7 440.712551,607.6 427.512551,619.3 C425.912551,620.5 428.012551,622.6 429.512551,621.3 L429.512551,621.3 Z" id="Path" stroke="#FFFFFF" stroke-width="4" fill="#E8E8E8"></path>
            <path d="M453.612551,511.8 C466.412551,510.2 478.512551,519.4 480.312551,532.2 C480.612551,534.1 483.512551,533.3 483.212551,531.4 C481.212551,517.4 467.612551,507.1 453.612551,508.8 C451.712551,509 451.712551,512 453.612551,511.8 L453.612551,511.8 Z" id="Path" stroke="#FFFFFF" stroke-width="4" fill="#E8E8E8"></path>
            <path d="M497.512551,532.8 C519.912551,506.4 555.812551,493.5 589.812551,499.7 C591.712551,500 592.512551,497.2 590.612551,496.8 C555.612551,490.4 518.512551,503.4 495.412551,530.7 C494.112551,532.1 496.212551,534.2 497.512551,532.8 L497.512551,532.8 Z" id="Path" stroke="#FFFFFF" stroke-width="4" fill="#E8E8E8"></path>
            <path d="M569.812551,721 C601.712551,700.6 640.712551,692.1 678.212551,697.9 C687.712551,699.4 697.112551,701.7 706.712551,702 C715.712551,702.3 723.912551,700 732.112551,696.5 C750.512551,688.8 769.012551,683.4 789.112551,682.7 C811.012551,681.9 833.012551,686.1 853.112551,694.9 C854.912551,695.7 856.412551,693.1 854.612551,692.3 C819.912551,677 779.712551,675.4 744.012551,688.4 C734.212551,692 724.812551,697.5 714.212551,698.7 C703.012551,700 691.912551,697.1 680.912551,695.3 C663.112551,692.4 644.912551,692.4 627.112551,695.5 C606.212551,699.1 586.212551,707 568.312551,718.4 C566.712551,719.5 568.212551,722.1 569.812551,721 L569.812551,721 Z" id="Path" stroke="#FFFFFF" stroke-width="4" fill="#E8E8E8"></path>
            <path d="M721.912551,651.5 C754.412551,637.5 789.912551,622.5 826.112551,627.2 C834.012551,628.2 842.112551,631.7 850.112551,630.8 C857.512551,630 864.312551,626 871.612551,624.4 C888.512551,620.7 906.312551,623.4 921.412551,631.5 C923.112551,632.4 924.612551,629.8 922.912551,628.9 C908.812551,621.3 892.812551,618.3 876.912551,620.4 C868.712551,621.5 861.712551,624.8 853.812551,627 C844.412551,629.6 834.712551,625.3 825.312551,624.1 C788.712551,619.7 753.212551,634.7 720.312551,648.9 C718.712551,649.7 720.212551,652.3 721.912551,651.5 L721.912551,651.5 Z" id="Path" stroke="#FFFFFF" stroke-width="4" fill="#E8E8E8"></path>
            <g id="pillows" transform="translate(594.812551, 111.000000)">
                <path d="M42.6,7.4 C36.9,12.8 35.1,19.3 34.3,22.2 C27.2,48.8 27.1,64.2 27.1,64.2 C26.9,96 23,87.7 21.4,132.8 C20.8,150.1 20.7,171.4 21.9,195.7 C18,201.5 12.5,210.8 8.3,223.1 C3.3,237.5 -0.1,247.2 4.2,257 C9.7,269.7 24.6,274.4 28.3,275.6 C35.9,278 39.1,276.7 57.2,279.5 C63.4,280.5 68.4,281.5 71.8,282.2 C68.9,288.2 64.6,297 61.7,303 C55.3,316.2 48.9,329.4 42.5,342.6 C48.7,346.2 57.6,351.3 68.5,357.1 C91.7,369.5 103.3,375.7 116,380 C124.2,382.8 142.8,388.4 167,389.1 C183.5,389.6 195.4,387.6 214,384.5 C232.6,381.4 247.8,377.6 258.4,374.6 C260.4,364.2 263,351 266.4,335.9 C267.3,331.8 271.7,312.7 278.7,286.5 C283.3,269.5 289.2,248.7 296.8,224.8 C287.4,223.3 278,221.7 268.6,220.2 C275.5,208.4 281.5,199 285.6,192.5 C290.2,185.3 299,171.8 306.8,153.5 C309.9,146.2 311.8,140.5 309.7,134.5 C307,126.9 299.3,123.4 297.6,122.6 C290.8,119.5 284.7,120.4 276.1,121.4 C265.8,122.6 255.3,122.8 245,124.2 C233.7,125.7 217.4,126.6 196.1,123.3 C195,105.2 194.8,90.4 194.9,80 C195.1,59.1 196.2,47.8 188.9,42.4 C187.4,41.3 186,40.7 170.7,38.6 C161.3,37.3 156.6,36.7 148.1,35.8 C138.5,34.8 125.1,33.4 110.5,29.2 C90.8,23.6 81,20.8 71.9,12.3 C66.3,7 62.7,1.2 55.9,1 C49.7,0.7 44.3,5.8 42.6,7.4 Z" id="Path" fill="#FFFFFF"></path>
                <path d="M108.9,300 C111.3,308.9 116.5,323.3 128.9,335.5 C148.2,354.6 173.4,357.1 201,359.8 C215.1,361.2 236.2,362 261.8,357.7 C263.9,347.6 266.7,335.2 270.1,321 C272.3,311.7 276.9,293 283.6,269.4 C287.3,256.4 291.7,241.4 297,224.7 C288.4,222.7 279.8,220.7 271.2,218.7 C262.4,233.7 255.3,246 250.4,254.5 C236.3,279.4 229.3,292.5 215.6,315.3 C210.5,323.8 206.2,330.8 203.4,335.3 C199.1,335.6 193.1,335.8 186,335.3 C180.9,334.9 159.5,333 135.6,319.7 C128.6,315.8 118.9,309.6 108.9,300 Z" id="Path" fill="#898989" opacity="0.2"></path>
                <path d="M191.8,131 C197.2,135.2 204.7,142 211.5,152.2 C212.9,154.3 220.9,166.6 224.5,183.5 C229.9,208.8 222.4,230.2 216.7,246.1 C203,284 179.5,310.7 161.9,326.9 C165.3,329.4 170.3,332.4 176.7,334.4 C188.3,338.1 198.4,336.7 203.6,335.6 C229.1,292.9 250.1,257.7 267.9,228.7 C275.8,215.8 288.9,194.6 301.5,163.9 C305.9,153.3 309,144.3 311,138.3 C309.3,134 305.6,126.4 297.8,122.7 C292.2,120 286.8,120.4 284.2,120.6 C253,123.4 237.4,124.8 234.7,125.2 C223.3,126.8 206.3,127.3 184.2,121 C186.9,124.3 189.3,127.6 191.8,131 Z" id="Path" fill="#898989" opacity="0.22"></path>
                <path d="M27.1,70.5 C32.2,88.5 37.3,106.5 42.4,124.6 C66.8,104.4 91.2,84.1 115.6,63.9 C100.1,79.4 87.7,93.9 78,106.2 C73.6,111.8 59.3,130.3 43.4,156.7 C34.3,171.8 27.3,185.2 22,195.9 C21.3,182.8 20.9,169.1 21.1,154.8 C21.4,124.1 23.7,95.9 27.1,70.5 Z" id="Path" fill="#898989" opacity="0.18"></path>
                <path d="M50.1,149.8 C58.8,135.5 68.2,121.6 78.3,108.2 C88.4,94.8 99,80.5 111.2,69 C127,54.2 142.3,73.3 152,85.3 C161.6,97.2 170.8,109.4 180.7,121 C191.6,133.6 203.4,145.4 217.1,155 C218.7,156.1 220.2,153.5 218.6,152.4 C191,133.2 172,105 150.9,79.3 C142.9,69.5 130.2,55.5 116.1,61.8 C109.3,64.8 104.3,71.8 99.5,77.2 C93.5,84.1 87.6,91.1 82,98.3 C69.5,114.2 58,130.9 47.4,148.2 C46.5,149.9 49.1,151.4 50.1,149.8 L50.1,149.8 Z" id="Path" fill="#000000"></path>
                <path d="M184,122.4 C205.6,127.5 227.9,128.8 249.8,126.1 C260.7,124.7 271.6,121.4 282.6,121.3 C293.1,121.2 305.6,125.6 309.1,136.7 C310.9,142.6 308.4,147.8 305.7,152.9 C303,158.1 300.2,163.2 297.4,168.3 C291.8,178.6 286.2,188.8 280.6,199.1 C269.3,219.6 257.8,239.9 246.1,260.1 C232.8,283.1 219.2,306 205.4,328.8 C204.4,330.5 207,332 208,330.3 C234.3,287 259.7,243.2 284.2,198.8 C290.2,188 296.1,177.2 301.9,166.3 C306.3,158.2 314,148.4 312.6,138.6 C311.5,130.5 305,124.1 297.8,120.9 C288.9,116.9 278.8,118 269.5,119.6 C255.4,122 241.6,124.4 227.2,124.4 C212.9,124.4 198.6,122.7 184.7,119.4 C183,119.1 182.2,122 184,122.4 L184,122.4 Z" id="Path" fill="#000000"></path>
                <path d="M51.6,140.4 C37.7,162.5 24.9,185.3 13.5,208.8 C4.7,227 -8.2,252 10.8,268.3 C28.2,283.2 53.4,278.1 73.9,284.4 C96.9,291.4 115.6,307.2 136,319.2 C157,331.6 182.7,341.2 206.8,332.3 C208.6,331.6 207.8,328.7 206,329.4 C161.3,345.7 123.8,302.5 86.6,286 C77.5,281.9 68,279.3 58.1,278.2 C46.5,276.8 34.5,276.9 23.6,272.5 C12.6,268.1 4,259.4 3.8,247 C3.6,234.7 10.1,222.9 15.3,212.1 C26.9,188 39.9,164.6 54.2,142 C55.2,140.3 52.6,138.7 51.6,140.4 L51.6,140.4 Z" id="Path" fill="#000000"></path>
                <path d="M23.6,195.7 C22.1,165.8 22.4,135.8 24.5,106 C25.6,90.6 27.2,75.2 29.3,59.8 C31,47.1 32.2,33.6 36.2,21.4 C37.7,16.8 39.9,11.9 43.6,8.5 C49.5,3 56.9,4.5 63.4,8.1 C74.9,14.3 86,20.6 98.2,25.3 C110.8,30.2 124,33.8 137.3,36.1 C149.4,38.2 161.4,38.4 173.6,39.3 C179.8,39.7 187.4,40.9 191.1,46.5 C195.3,53 193.5,64.7 193.6,72.1 C193.8,89.3 194,106.6 194.2,123.8 C194.2,125.7 197.2,125.7 197.2,123.8 C197,107.2 196.8,90.6 196.6,74.1 C196.5,63.1 199.6,46.5 188.2,39.9 C178.4,34.2 165,36.2 154.2,35.3 C139.1,34 124.1,30.9 109.6,26.3 C95.1,21.6 81.3,15.3 68.2,7.6 C59.1,2.3 48.7,-1.5 40.4,7.3 C32.8,15.3 31.2,27.4 29.4,37.8 C26.8,53.3 24.7,68.9 23.1,84.6 C19.4,121.5 18.5,158.7 20.3,195.7 C20.7,197.7 23.7,197.7 23.6,195.7 L23.6,195.7 Z" id="Path" fill="#000000"></path>
                <path d="M69.9,284.5 C65,294 60,303.4 55.1,312.9 C52.6,317.6 50.2,322.4 47.7,327.1 C45.6,331.1 42.7,335.2 41.4,339.5 C40.8,341.6 40.9,343.4 42.6,344.9 C45.8,347.9 51.1,349.6 54.9,351.6 C64.1,356.4 73.3,361.3 82.5,366.1 C99.5,375 117,383.4 135.9,387.4 C154.9,391.4 174.5,391.4 193.8,389.2 C215.9,386.7 237.6,381.4 259.1,376.1 C261,375.6 260.2,372.7 258.3,373.2 C223.1,381.9 186.6,390.8 150.1,386.7 C113,382.5 80.1,361.6 47.7,344.4 C48,344.5 45.2,343.3 45,342.9 C43.9,341.4 45.2,338.8 45.8,337.4 C46.9,334.7 48.6,332 50,329.4 C52.5,324.7 54.9,319.9 57.4,315.2 C62.5,305.4 67.6,295.7 72.6,285.9 C73.4,284.3 70.8,282.8 69.9,284.5 L69.9,284.5 Z" id="Path" fill="#000000"></path>
                <path d="M268.4,220.3 C278.3,220.5 287.7,222.5 296.8,226.3 C296.5,225.7 296.1,225.1 295.8,224.5 C280.2,273.5 267.3,323.3 257.2,373.6 C256.8,375.5 259.7,376.3 260.1,374.4 C270.2,324 283.1,274.2 298.7,225.3 C299,224.5 298.4,223.8 297.7,223.5 C288.4,219.6 278.6,217.6 268.5,217.4 C266.4,217.2 266.4,220.2 268.4,220.3 L268.4,220.3 Z" id="Path" fill="#000000"></path>
            </g>
            <path d="M278.112551,821.8 C289.412551,806.6 312.512551,803.6 327.612551,814.9 C329.112551,816.1 330.612551,813.5 329.112551,812.3 C312.612551,799.9 287.812551,803.9 275.512551,820.3 C274.312551,821.9 276.912551,823.4 278.112551,821.8 L278.112551,821.8 Z" id="Path" stroke="#FFFFFF" stroke-width="4" fill="#E8E8E8"></path>
            <path d="M2.31255138,810.1 C20.4125514,801.9 40.5125514,804.7 59.1125514,809.2 C78.0125514,813.8 96.7125514,818.8 108.512551,835.5 C109.612551,837.1 112.212551,835.6 111.112551,834 C105.812551,826.4 98.9125514,820.2 90.6125514,816 C81.1125514,811.2 70.2125514,808.8 59.9125514,806.3 C40.4125514,801.5 19.6125514,799 0.812551381,807.5 C-0.987448619,808.3 0.512551381,810.8 2.31255138,810.1 L2.31255138,810.1 Z" id="Path" stroke="#FFFFFF" stroke-width="4" fill="#E8E8E8"></path>
            <g id="robot" transform="translate(84.812551, 0.000000)">
                <g id="leg_right" transform="translate(0.000000, 410.000000)">
                    <path d="M323.9,0.1 C298.2,34.2 272.4,68.2 246.6,102.1 C180.6,188.9 114.2,275.3 47.4,361.5 C52,362.3 58.9,364.2 66.3,368.6 C72.9,372.5 77.6,377.1 80.4,380.4 C176.5,256.1 272.6,131.7 368.8,7.4 C353.8,4.9 338.9,2.5 323.9,0.1 Z" id="Path" stroke="#000000" stroke-width="3" fill="#FFFFFF"></path>
                    <path d="M2.7,302 C-1.1,304.2 0.8,314.2 1.5,318.1 C5.6,339.6 12.4,378.8 21.4,431.1 C33.5,432.8 45.7,434.6 57.8,436.3 C66.4,420.6 75.1,404.9 83.7,389.1 C82.6,386.3 80.9,382.1 78.4,377.3 C72.7,366.7 66.7,360.2 60.1,353 C39.5,330.7 34.4,324.7 22.2,314 C9.9,303.1 5.3,300.5 2.7,302 Z" id="Path" stroke="#000000" stroke-width="3" fill="#FFFFFF"></path>
                    <path d="M6.5,311.9 C20.5,327.2 25.8,349 32.6,368 C40.4,389.6 48.1,411.1 55.9,432.7 C56.5,434.5 59.4,433.7 58.8,431.9 C50.6,409.1 42.4,386.3 34.2,363.4 C27.6,345 22.2,324.5 8.7,309.7 C7.4,308.3 5.2,310.4 6.5,311.9 L6.5,311.9 Z" id="Path" fill="#000000"></path>
                    <path d="M70.8,333.5 C83.4,330.9 96.3,338.9 99.7,351.2 C100.2,353.1 103.1,352.3 102.6,350.4 C98.7,336.4 84.1,327.7 70,330.6 C68.1,331 68.9,333.9 70.8,333.5 L70.8,333.5 Z" id="Path" fill="#000000"></path>
                    <path d="M92.7,305.8 C104.8,303.9 116.6,312.4 118.9,324.4 C119.3,326.3 122.2,325.5 121.8,323.6 C119.2,309.9 105.6,300.7 91.9,302.9 C90,303.2 90.8,306.1 92.7,305.8 L92.7,305.8 Z" id="Path" fill="#000000"></path>
                    <path d="M116.6,274.9 C129.6,269.4 143.8,277.9 145.2,291.9 C145.4,293.8 148.4,293.8 148.2,291.9 C146.6,275.4 130.3,265.9 115.1,272.3 C113.3,273.1 114.8,275.7 116.6,274.9 L116.6,274.9 Z" id="Path" fill="#000000"></path>
                    <path d="M135.3,249.5 C142.5,247.2 149.5,246.3 155.6,251.7 C160.2,255.8 162.2,261.7 163.1,267.7 C163.4,269.6 166.3,268.8 166,266.9 C165,259.8 162.2,252.8 156.2,248.4 C149.4,243.3 142.2,244.2 134.5,246.6 C132.7,247.2 133.5,250.1 135.3,249.5 L135.3,249.5 Z" id="Path" fill="#000000"></path>
                    <path d="M155.9,221.1 C169.7,216.4 184.1,225.1 185.6,239.7 C185.8,241.6 188.8,241.6 188.6,239.7 C186.9,223.2 170.9,212.7 155.1,218.2 C153.3,218.8 154.1,221.7 155.9,221.1 L155.9,221.1 Z" id="Path" fill="#000000"></path>
                    <path d="M179.9,191 C193.5,187.5 206.4,196.2 208.5,210 C208.8,211.9 211.7,211.1 211.4,209.2 C209.1,193.7 194.2,184.2 179.1,188.1 C177.3,188.6 178.1,191.5 179.9,191 L179.9,191 Z" id="Path" fill="#000000"></path>
                    <path d="M198.7,166.2 C204.6,162.1 212.2,163.5 217.5,167.9 C223,172.5 225.7,179.3 227.9,186 C228.5,187.8 231.4,187 230.8,185.2 C228.2,177.3 224.7,168.9 217.4,164.1 C211.3,160.1 203.2,159.4 197.1,163.6 C195.6,164.7 197.1,167.3 198.7,166.2 L198.7,166.2 Z" id="Path" fill="#000000"></path>
                    <path d="M219.2,142.3 C224.7,138.9 231.5,141.4 236.8,144.1 C242.6,147.1 246.2,152.1 247.5,158.4 C247.9,160.3 250.8,159.5 250.4,157.6 C248.8,150 244,144.2 237,140.9 C230.9,138 223.8,135.9 217.6,139.7 C216.1,140.7 217.6,143.3 219.2,142.3 L219.2,142.3 Z" id="Path" fill="#000000"></path>
                    <path d="M240.2,113.1 C253.2,109 266.7,115 271.9,127.8 C272.6,127.2 273.4,126.7 274.1,126.1 C273.8,125.9 273.5,125.8 273.1,125.6 C271.4,124.8 269.8,127.3 271.6,128.2 C271.9,128.4 272.2,128.5 272.6,128.7 C273.6,129.2 275.3,128.3 274.8,127 C269.1,112.8 254.1,105.6 239.4,110.3 C237.6,110.8 238.4,113.7 240.2,113.1 L240.2,113.1 Z" id="Path" fill="#000000"></path>
                    <path d="M261.7,84.3 C276.1,81.4 289.1,91.8 289.7,106.4 C289.8,108.3 292.8,108.3 292.7,106.4 C292,89.7 277.3,78.2 260.9,81.4 C259,81.8 259.8,84.7 261.7,84.3 L261.7,84.3 Z" id="Path" fill="#000000"></path>
                    <path d="M279.5,59.7 C293.6,54.5 308.3,62.5 311.5,77.3 C311.9,79.2 314.8,78.4 314.4,76.5 C311,60.3 294.3,51.1 278.7,56.8 C276.9,57.4 277.7,60.3 279.5,59.7 L279.5,59.7 Z" id="Path" fill="#000000"></path>
                    <path d="M298.1,38.7 C312,34 326,42 328.9,56.4 C329.3,58.3 332.2,57.5 331.8,55.6 C328.6,39.7 312.6,30.6 297.3,35.8 C295.5,36.4 296.3,39.3 298.1,38.7 L298.1,38.7 Z" id="Path" fill="#000000"></path>
                    <path d="M313.9,15 C327,12.6 343.1,16.1 347,30.7 C347.5,32.6 350.4,31.8 349.9,29.9 C345.5,13.6 327.8,9.5 313.1,12.1 C311.2,12.5 312,15.4 313.9,15 L313.9,15 Z" id="Path" fill="#000000"></path>
                    <path d="M347.8,3.9 C312.7,51.3 277.4,98.5 241.8,145.5 C185.7,219.6 128.9,293.2 71.6,366.3 C56.3,343.2 40.5,328.9 29,320 C27.6,319 7.9,303.9 5.4,306.5 C3.5,308.5 12.2,319.7 19.4,328.5 C29,352.5 38.3,377.6 47.2,403.6 C50.9,414.5 54.5,425.4 57.9,436.1 C69.5,413.3 81,390.5 92.6,367.8 C112.5,341.7 142.5,302.4 162.5,276.3 C231.2,186.5 299.9,96.8 368.8,7.2 C361.7,6.2 354.8,5.1 347.8,3.9 Z" id="Path" fill="#828282" opacity="0.29"></path>
                </g>
                <g id="leg_left" transform="translate(124.000000, 438.000000)">
                    <path d="M324.2,0.2 C298.5,34.3 272.7,68.3 246.9,102.2 C180.9,189 114.5,275.4 47.7,361.6 C52.3,362.4 59.2,364.3 66.6,368.7 C73.2,372.6 77.9,377.2 80.7,380.5 C176.8,256.2 272.9,131.8 369.1,7.5 C354,5 339.1,2.6 324.2,0.2 Z" id="Path" stroke="#000000" stroke-width="3" fill="#FFFFFF"></path>
                    <path d="M2.9,302.1 C-0.9,304.3 1,314.3 1.7,318.2 C5.8,339.7 12.6,378.9 21.6,431.2 C33.7,432.9 45.9,434.7 58,436.4 C66.6,420.7 75.3,405 83.9,389.2 C82.8,386.4 81.1,382.2 78.6,377.4 C72.9,366.8 66.9,360.3 60.3,353.1 C39.7,330.8 34.6,324.8 22.4,314.1 C10.1,303.1 5.5,300.6 2.9,302.1 Z" id="Path" stroke="#000000" stroke-width="3" fill="#FFFFFF"></path>
                    <path d="M6.8,311.9 C20.8,327.2 26.1,349 32.9,368 C40.7,389.6 48.4,411.1 56.2,432.7 C56.8,434.5 59.7,433.7 59.1,431.9 C50.9,409.1 42.7,386.3 34.5,363.4 C27.9,345 22.5,324.5 9,309.7 C7.6,308.4 5.5,310.5 6.8,311.9 L6.8,311.9 Z" id="Path" fill="#000000"></path>
                    <path d="M71,333.6 C83.6,331 96.5,339 99.9,351.3 C100.4,353.2 103.3,352.4 102.8,350.5 C98.9,336.5 84.3,327.8 70.2,330.7 C68.3,331.1 69.1,333.9 71,333.6 L71,333.6 Z" id="Path" fill="#000000"></path>
                    <path d="M92.9,305.8 C105,303.9 116.8,312.4 119.1,324.4 C119.5,326.3 122.4,325.5 122,323.6 C119.4,309.9 105.8,300.7 92.1,302.9 C90.2,303.2 91,306.1 92.9,305.8 L92.9,305.8 Z" id="Path" fill="#000000"></path>
                    <path d="M116.8,275 C129.8,269.5 144,278 145.4,292 C145.6,293.9 148.6,293.9 148.4,292 C146.8,275.5 130.5,266 115.3,272.4 C113.5,273.2 115,275.8 116.8,275 L116.8,275 Z" id="Path" fill="#000000"></path>
                    <path d="M135.6,249.6 C142.8,247.3 149.8,246.4 155.9,251.8 C160.5,255.9 162.5,261.8 163.4,267.8 C163.7,269.7 166.6,268.9 166.3,267 C165.3,259.9 162.5,252.9 156.5,248.5 C149.7,243.4 142.5,244.3 134.8,246.7 C132.9,247.3 133.7,250.2 135.6,249.6 L135.6,249.6 Z" id="Path" fill="#000000"></path>
                    <path d="M156.1,221.1 C169.9,216.4 184.3,225.1 185.8,239.7 C186,241.6 189,241.6 188.8,239.7 C187.1,223.2 171.1,212.7 155.3,218.2 C153.5,218.9 154.3,221.8 156.1,221.1 L156.1,221.1 Z" id="Path" fill="#000000"></path>
                    <path d="M180.2,191.1 C193.8,187.6 206.7,196.3 208.8,210.1 C209.1,212 212,211.2 211.7,209.3 C209.4,193.8 194.5,184.3 179.4,188.2 C177.5,188.7 178.3,191.6 180.2,191.1 L180.2,191.1 Z" id="Path" fill="#000000"></path>
                    <path d="M198.9,166.3 C204.8,162.2 212.4,163.6 217.7,168 C223.2,172.6 225.9,179.4 228.1,186.1 C228.7,187.9 231.6,187.1 231,185.3 C228.4,177.4 224.9,169 217.6,164.2 C211.5,160.2 203.4,159.5 197.3,163.7 C195.8,164.8 197.3,167.4 198.9,166.3 L198.9,166.3 Z" id="Path" fill="#000000"></path>
                    <path d="M219.4,142.4 C224.9,139 231.7,141.5 237,144.2 C242.8,147.2 246.4,152.2 247.7,158.5 C248.1,160.4 251,159.6 250.6,157.7 C249,150.1 244.2,144.3 237.2,141 C231.1,138.1 224,136 217.8,139.8 C216.3,140.8 217.8,143.4 219.4,142.4 L219.4,142.4 Z" id="Path" fill="#000000"></path>
                    <path d="M240.4,113.2 C253.4,109.1 266.9,115.1 272.1,127.9 C272.8,127.3 273.6,126.8 274.3,126.2 C274,126 273.7,125.9 273.3,125.7 C271.6,124.9 270,127.4 271.8,128.3 C272.1,128.5 272.4,128.6 272.8,128.8 C273.8,129.3 275.5,128.4 275,127.1 C269.3,112.9 254.3,105.7 239.6,110.4 C237.8,110.9 238.6,113.8 240.4,113.2 L240.4,113.2 Z" id="Path" fill="#000000"></path>
                    <path d="M262,84.3 C276.4,81.4 289.4,91.8 290,106.4 C290.1,108.3 293.1,108.3 293,106.4 C292.3,89.7 277.6,78.2 261.2,81.4 C259.3,81.8 260.1,84.7 262,84.3 L262,84.3 Z" id="Path" fill="#000000"></path>
                    <path d="M279.7,59.7 C293.8,54.5 308.5,62.5 311.7,77.3 C312.1,79.2 315,78.4 314.6,76.5 C311.2,60.3 294.5,51.1 278.9,56.8 C277.1,57.5 277.9,60.4 279.7,59.7 L279.7,59.7 Z" id="Path" fill="#000000"></path>
                    <path d="M298.4,38.7 C312.3,34 326.3,42 329.2,56.4 C329.6,58.3 332.5,57.5 332.1,55.6 C328.9,39.7 312.9,30.6 297.6,35.8 C295.8,36.5 296.5,39.4 298.4,38.7 L298.4,38.7 Z" id="Path" fill="#000000"></path>
                    <path d="M314.1,15.1 C327.2,12.7 343.3,16.2 347.2,30.8 C347.7,32.7 350.6,31.9 350.1,30 C345.7,13.7 328,9.6 313.3,12.2 C311.4,12.5 312.2,15.4 314.1,15.1 L314.1,15.1 Z" id="Path" fill="#000000"></path>
                    <path d="M348,4 C312.9,51.4 277.6,98.6 242,145.6 C185.9,219.7 129.1,293.3 71.8,366.4 C56.5,343.3 40.7,329 29.2,320.1 C27.8,319.1 8.1,304 5.6,306.6 C3.7,308.6 12.4,319.8 19.6,328.6 C29.2,352.6 38.5,377.7 47.4,403.7 C51.1,414.6 54.7,425.5 58.1,436.2 C69.7,413.4 81.2,390.6 92.8,367.9 C112.7,341.8 142.7,302.5 162.7,276.4 C231.4,186.6 300.1,96.9 369,7.3 C362,6.3 355,5.1 348,4 Z" id="Path" fill="#828282" opacity="0.29"></path>
                </g>
                <g id="hand_right" transform="translate(224.000000, 162.000000)">
                    <path d="M56,0.9 C47.7,11.7 37.8,26.2 28.8,44.5 C25.9,50.4 16.7,69.5 9.7,96.1 C5.7,111.2 1.8,131 0.6,154.6 C11.9,156.3 23.2,157.9 34.5,159.6 C37.4,138.3 42.8,112.5 52.7,84.3 C60.6,61.8 69.7,42.5 78.5,26.5 C71,18 63.5,9.5 56,0.9 Z" id="Path" stroke="#000000" stroke-width="3" fill="#FFFFFF"></path>
                    <path d="M3.5,142.4 C12.9,135.6 26.2,136.9 33.9,145.6 C35.2,147 37.3,144.9 36,143.5 C27.4,133.9 12.4,132.2 2,139.8 C0.5,140.9 2,143.5 3.5,142.4 L3.5,142.4 Z" id="Path" fill="#000000"></path>
                    <path d="M5.3,120.9 C15.2,109.8 33,113.6 37.2,128 C37.7,129.8 40.6,129.1 40.1,127.2 C35.2,110.7 14.7,105.9 3.2,118.8 C1.9,120.2 4,122.3 5.3,120.9 L5.3,120.9 Z" id="Path" fill="#000000"></path>
                    <path d="M9.9,100.4 C19.8,88.7 38.2,92.6 42.2,107.5 C42.7,109.4 45.6,108.6 45.1,106.7 C40.6,89.7 19.2,84.7 7.8,98.2 C6.5,99.7 8.6,101.9 9.9,100.4 L9.9,100.4 Z" id="Path" fill="#000000"></path>
                    <path d="M15.6,82 C20,76.6 27.3,74.8 33.8,77.2 C40.4,79.6 44.9,85.5 47.8,91.6 C48.6,93.3 51.2,91.8 50.4,90.1 C47,82.8 41.3,76.1 33.3,73.9 C26.1,71.9 18.2,74 13.5,79.9 C12.3,81.3 14.4,83.5 15.6,82 L15.6,82 Z" id="Path" fill="#000000"></path>
                    <path d="M23,60.5 C29.5,56.3 36.5,55.5 42.9,60.6 C47.6,64.4 51.9,69.4 53.7,75.2 C54.3,77 57.2,76.2 56.6,74.4 C54.3,67.2 48.5,60.2 42.1,56.3 C35.4,52.2 27.9,53.8 21.6,57.9 C19.9,59 21.4,61.6 23,60.5 L23,60.5 Z" id="Path" fill="#000000"></path>
                    <path d="M32.5,41.2 C39.3,38.6 46.1,37.2 52,42.6 C55.9,46.2 60.1,51.6 61.2,56.9 C62,56.4 62.9,55.9 63.7,55.4 C63.4,55.2 63.1,54.9 62.8,54.7 C61.3,53.5 59.2,55.6 60.7,56.8 C61,57 61.3,57.3 61.6,57.5 C62.8,58.4 64.4,57.6 64.1,56 C62.7,49.6 57.4,42.6 52.2,38.8 C45.7,34 38.7,35.6 31.7,38.2 C29.9,39 30.7,41.9 32.5,41.2 L32.5,41.2 Z" id="Path" fill="#000000"></path>
                    <path d="M44,20.2 C58.6,15.7 67.5,31.9 68.3,44.1 C68.4,46 71.4,46 71.3,44.1 C70.3,30 59.8,12.2 43.2,17.3 C41.4,17.8 42.2,20.7 44,20.2 L44,20.2 Z" id="Path" fill="#000000"></path>
                </g>
                <g id="torso" transform="translate(278.000000, 134.000000)">
                    <path d="M213.3,48.5 C213.3,48.5 229.6,150.8 230.2,155 C230.9,159.3 222,312.5 222,312.5 L272.4,265.1 C264.5,179.9 256.6,94.6 248.7,9.4 C237,22.5 225.1,35.5 213.3,48.5 Z" id="Path" stroke="#000000" stroke-width="3" fill="#000000"></path>
                    <polygon id="Path" stroke="#000000" stroke-width="3" fill="#FFFFFF" points="0.8 24.6 71.2 0.7 248.8 9.4 213.3 48.5"></polygon>
                    <path d="M0.8,24.6 L36.1,158.5 C34.1,199.5 32.2,240.6 30.2,281.6 C94.1,291.9 158.1,302.2 222,312.6 C225,261.5 227.9,210.5 230.9,159.4 L213.3,48.6 L0.8,24.6 Z" id="Path" stroke="#000000" stroke-width="3" fill="#FFFFFF"></path>
                    <path d="M142.1,68.8 C141.4,76.6 142.1,84.2 144.4,91.7 C145,93.5 147.9,92.8 147.3,90.9 C145.1,83.6 144.4,76.3 145.1,68.8 C145.3,66.9 142.3,66.9 142.1,68.8 L142.1,68.8 Z" id="Path" fill="#000000"></path>
                    <path d="M144.2,69.9 C157.1,70.5 170,71.4 182.9,72.7 C184.8,72.9 184.8,69.9 182.9,69.7 C170,68.4 157.2,67.4 144.2,66.9 C142.3,66.8 142.3,69.8 144.2,69.9 L144.2,69.9 Z" id="Path" fill="#000000"></path>
                    <path d="M146.4,94 C158.5,95.6 170.7,96.3 182.9,96.1 C184.8,96.1 184.8,93.1 182.9,93.1 C170.7,93.3 158.5,92.6 146.4,91 C144.5,90.7 144.5,93.7 146.4,94 L146.4,94 Z" id="Path" fill="#000000"></path>
                    <path d="M181.7,73.1 C184.6,79.5 184.9,86.4 182.7,93.1 C182.1,94.9 185,95.7 185.6,93.9 C188,86.4 187.5,78.8 184.3,71.6 C183.5,69.8 180.9,71.3 181.7,73.1 L181.7,73.1 Z" id="Path" fill="#000000"></path>
                    <path d="M185.8,78.5 C187.9,78.4 189.9,79.9 190.5,82 C190.9,83.6 189.6,86.9 187.6,85.4 C186.1,84.2 184.6,86.8 186.1,88 C189.5,90.5 193.6,86.7 193.7,83.2 C193.8,79 190,75.5 185.9,75.6 C183.9,75.6 183.8,78.6 185.8,78.5 L185.8,78.5 Z" id="Path" fill="#000000"></path>
                    <path d="M148.2,75.5 C148,79.8 148.5,84 149.6,88.2 C150.1,90.1 153,89.3 152.5,87.4 C151.5,83.5 151.1,79.6 151.2,75.5 C151.3,73.5 148.3,73.5 148.2,75.5 L148.2,75.5 Z" id="Path" fill="#000000"></path>
                    <path d="M150.2,75.8 C152.6,75.9 155,76.1 157.4,76.4 C157,75.9 156.7,75.4 156.3,75 C156,79.3 156.1,83.6 156.5,88 C156.7,89.9 159.7,89.9 159.5,88 C159,83.7 159,79.4 159.3,75 C159.3,74.4 158.8,73.6 158.2,73.6 C155.5,73.2 152.9,72.9 150.2,72.8 C148.3,72.8 148.3,75.8 150.2,75.8 L150.2,75.8 Z" id="Path" fill="#000000"></path>
                    <path d="M151.3,89.5 C153.5,89.8 155.7,89.8 157.9,89.4 C159.8,89 159,86.1 157.1,86.5 C155.5,86.8 153.8,86.9 152.1,86.6 C151.3,86.5 150.5,86.8 150.3,87.6 C150.1,88.3 150.5,89.4 151.3,89.5 L151.3,89.5 Z" id="Path" fill="#000000"></path>
                    <path d="M161.4,74.8 C160.7,79.5 160.9,84.2 162,88.9 C162.5,90.8 165.4,90 164.9,88.1 C163.9,84 163.6,79.8 164.3,75.6 C164.6,73.7 161.7,72.9 161.4,74.8 L161.4,74.8 Z" id="Path" fill="#000000"></path>
                    <path d="M163.2,75.9 C165.2,76.4 167.3,76.9 169.3,77.4 C168.9,76.9 168.6,76.4 168.2,76 C168.5,80 168.8,84 169.2,87.9 C169.4,89.8 172.4,89.8 172.2,87.9 C171.9,83.9 171.6,79.9 171.2,76 C171.1,75.3 170.8,74.7 170.1,74.6 C168.1,74.1 166,73.6 164,73.1 C162.1,72.6 161.3,75.5 163.2,75.9 L163.2,75.9 Z" id="Path" fill="#000000"></path>
                    <path d="M163.9,89.7 C166.3,90.9 169,90.8 171.2,89.4 C172.9,88.4 171.3,85.8 169.7,86.8 C168.4,87.6 166.8,87.7 165.4,87.1 C163.7,86.3 162.2,88.9 163.9,89.7 L163.9,89.7 Z" id="Path" fill="#000000"></path>
                    <path d="M172.8,75.7 C172.5,79.4 172.3,83.4 173.2,87 C173.9,90.1 177,89.9 179.6,89.3 C181.5,88.8 180.7,85.9 178.8,86.4 C178,86.6 177.3,86.7 176.5,86.7 C176,86.9 175.8,86.6 176,85.8 C175.7,84.8 175.7,83.5 175.7,82.4 C175.6,80.2 175.6,78 175.8,75.7 C176,73.8 173,73.8 172.8,75.7 L172.8,75.7 Z" id="Path" fill="#000000"></path>
                    <path d="M174.6,76.6 C175.6,76.8 176.8,76.9 177.8,77.2 C177.8,77.2 178.7,77.5 178.5,77.3 C178.8,77.6 178.5,79.3 178.5,79.7 C178.5,82.4 178.6,85.1 178.6,87.7 C178.6,89.6 181.6,89.6 181.6,87.7 C181.6,85.8 181.5,83.9 181.5,82 C181.5,80.3 181.7,78.3 181.4,76.6 C180.9,73.9 177.6,74 175.4,73.6 C173.5,73.3 172.7,76.2 174.6,76.6 L174.6,76.6 Z" id="Path" fill="#000000"></path>
                    <path d="M13.7,43.6 C24.7,78.6 34.5,114 43.3,149.7 C43.8,151.6 46.7,150.8 46.2,148.9 C37.4,113.3 27.6,77.9 16.6,42.8 C16,41 13.1,41.8 13.7,43.6 L13.7,43.6 Z" id="Path" fill="#000000"></path>
                    <path d="M45.6,160.4 C43.7,196.7 41.1,232.9 37.6,269.1 C37.4,271 40.4,271 40.6,269.1 C44,232.9 46.7,196.7 48.6,160.4 C48.7,158.5 45.7,158.5 45.6,160.4 L45.6,160.4 Z" id="Path" fill="#000000"></path>
                    <path d="M39.7,272.1 C97.1,277.8 154.1,286.9 210.4,299.3 C212.3,299.7 213.1,296.8 211.2,296.4 C154.6,284 97.3,274.9 39.7,269.1 C37.8,268.9 37.8,271.9 39.7,272.1 L39.7,272.1 Z" id="Path" fill="#000000"></path>
                    <path d="M15.6,43.8 C56.1,50.5 96.7,56 137.5,60.3 C139.4,60.5 139.4,57.5 137.5,57.3 C97,53 56.6,47.6 16.4,40.9 C14.5,40.6 13.7,43.5 15.6,43.8 L15.6,43.8 Z" id="Path" fill="#000000"></path>
                    <path d="M48.7,264.3 C48.5,263.7 48.2,263 48,262.4 C48,262.7 48,262.9 48,263.2 C48.4,262.1 50.1,262.3 50.2,263.4 C50.4,264.5 48.9,264.8 48.5,264 C47.6,262.3 45,263.8 45.9,265.5 C46.9,267.2 49.1,267.9 50.9,267.2 C52.9,266.4 53.7,264.1 53,262.2 C52.2,260.1 50.1,259.1 48,259.7 C47,260 46.2,260.6 45.6,261.5 C45.2,262 45,262.6 45.1,263.3 C45.2,263.9 45.6,264.6 45.8,265.2 C46.5,266.9 49.4,266.1 48.7,264.3 L48.7,264.3 Z" id="Path" fill="#000000"></path>
                    <path d="M25.8,53.8 C25.9,53.9 25.9,53.6 25.8,53.8 C25.8,53.6 25.8,53.7 25.8,53.6 C25.9,53.4 26,53.3 26.1,53.3 C26.1,53.3 26.3,53.2 26.2,53.3 C26.2,53.3 26.2,53.3 26.1,53.3 C26.3,53.4 26.3,53.4 26.2,53.3 C26.4,53.4 26.5,53.5 26.6,53.7 C26.5,53.5 26.7,53.9 26.7,54 C26.7,53.9 26.6,54.1 26.7,54 C26.8,53.8 26.5,54.2 26.7,54 C26.5,54.2 26.7,54 26.5,54.1 C26.7,54 26.3,54.1 26.3,54.1 C26.6,54.1 26.1,54.1 26.1,54.1 C26.3,54.1 26,54 26,54.1 C25.9,54 25.9,54 26,54.1 C25.9,54 25.9,54 25.8,53.9 C25.3,53.3 24.2,53.4 23.7,53.9 C23.1,54.5 23.2,55.4 23.7,56 C24.7,57.3 26.8,57.5 28.2,56.6 C29.8,55.6 30.1,53.6 29.2,52 C28.2,50.4 26.2,49.8 24.6,50.8 C23,51.8 22.5,53.8 23.3,55.4 C23.7,56.1 24.7,56.3 25.4,55.9 C26,55.4 26.2,54.5 25.8,53.8 L25.8,53.8 Z" id="Path" fill="#000000"></path>
                    <path d="M209.1,116.9 C212.3,129.9 215.2,142.9 217.8,156 C218.2,157.9 221.1,157.1 220.7,155.2 C218.1,142.1 215.2,129.1 212,116.1 C211.6,114.2 208.7,115 209.1,116.9 L209.1,116.9 Z" id="Path" fill="#000000"></path>
                    <path d="M218.7,156.6 C218.3,171.3 217.3,186.1 215.7,200.7 C215.5,202.6 218.5,202.6 218.7,200.7 C220.2,186 221.2,171.3 221.7,156.6 C221.7,154.7 218.7,154.7 218.7,156.6 L218.7,156.6 Z" id="Path" fill="#000000"></path>
                </g>
                <g id="book" transform="translate(164.000000, 242.000000)">
                    <path d="M0,11.7 C0.9,11.9 8.1,13.2 13.6,8.2 C16.8,5.3 17.8,1.8 18.2,0.3 C20.1,2.5 22.2,4.7 24.8,6.9 C36.9,17.1 48.4,15.4 59.6,20.7 C65.8,23.6 74.1,29.7 81.3,43.7 C85.7,40.7 92.3,36.6 101,33.2 C119,26.1 132.7,27 143.8,25.8 C157.4,24.4 176.1,18.8 198.2,0.4 C201.8,26.2 204.9,53.1 207.4,81.1 C211.8,131.8 213.5,179.7 213.3,224.2 C142.1,153.3 71,82.5 0,11.7 Z" id="Path" stroke="#000000" stroke-width="3" fill="#FFFFFF"></path>
                    <path d="M0,11.7 C8.9,71.5 17.9,131.4 26.8,191.2 C43.2,212.9 59.5,234.7 75.9,256.4 C78.5,258.2 82.4,260.3 87.4,261.4 C100.3,264.1 110.7,257.6 113.3,255.9 C153.9,246.8 194.5,237.7 235.1,228.7 C226.7,156.3 218.3,83.8 209.9,11.4 C172.4,24.2 134.8,37 97.3,49.9 C96.5,50.5 88.5,56.3 79,53.3 C72.5,51.3 69.2,46.4 68.3,44.9 C45.5,33.7 22.7,22.7 0,11.7 Z" id="Path" fill="#0099FF"></path>
                    <path d="M65.5,53.9 C69.4,118.4 74.6,182.9 81.1,247.2 C81.3,249.1 84.3,249.1 84.1,247.2 C77.6,182.9 72.4,118.4 68.5,53.9 C68.4,52 65.4,51.9 65.5,53.9 L65.5,53.9 Z" id="Path" fill="#000000"></path>
                    <path d="M94.2,85.1 C96.9,127.4 98.6,169.8 99.4,212.2 C99.4,214.1 102.4,214.1 102.4,212.2 C101.6,169.8 99.9,127.4 97.2,85.1 C97.1,83.2 94.1,83.2 94.2,85.1 L94.2,85.1 Z" id="Path" fill="#000000"></path>
                    <path d="M126.3,67.9 C126.7,72.4 127.1,76.8 127.5,81.3 C127.7,83.6 127.6,86.3 128.5,88.5 C130.9,94.2 138.1,90.8 142.4,89.6 C157.3,85.5 172,81 185.7,73.8 C187.4,72.9 185.9,70.3 184.2,71.2 C173.7,76.7 162.5,80.6 151.1,84 C148.5,84.8 145.9,85.5 143.3,86.2 C141,86.8 137.9,88.4 135.5,88.3 C128.6,88.1 129.7,72.5 129.3,67.8 C129.1,66 126.1,66 126.3,67.9 L126.3,67.9 Z" id="Path" fill="#000000"></path>
                    <path d="M129.2,67.8 C138.1,65.1 147,62.4 155.8,59.7 C164.6,57 173.8,53.2 183.1,52.8 C182.6,52.3 182.1,51.8 181.6,51.3 C181.5,59 182.4,66.6 184.3,74.1 C184.8,76 187.7,75.2 187.2,73.3 C185.3,66.1 184.5,58.8 184.6,51.3 C184.6,50.5 183.9,49.8 183.1,49.8 C174.1,50.2 165.4,53.7 156.9,56.2 C147.4,59.1 137.9,62 128.4,64.9 C126.6,65.5 127.3,68.4 129.2,67.8 L129.2,67.8 Z" id="Path" fill="#000000"></path>
                </g>
                <g id="fingers_right" transform="translate(169.000000, 324.000000)">
                    <path d="M2.5,12.5 C2.4,13.9 2.2,16.2 2.8,23.5 C2.9,25.2 3.3,29.1 4.2,36.9 C5,43 5.3,46.1 6,49.7 C6.9,54.4 7.8,58.2 8.5,60.8 C6.1,63.4 6.2,67.2 8.2,69 C9.8,70.5 12.5,70.8 14.2,69.6 C15.2,68.9 15.8,67.6 16,63.2 C16.4,54.8 14.4,53.7 15.4,48.5 C16.1,44.8 17.3,43.8 17,40.5 C16.9,39.9 16.8,38.7 15,34.5 C11.9,27 10.9,27.1 10.6,24.3 C10.3,21.3 11.4,20.9 11.1,16.1 C11,13.3 10.5,11.3 10.4,10.8 C9.7,7.9 7.7,2.1 5.8,2.2 C3.5,2.4 2.6,11.6 2.5,12.5 Z" id="Path" fill="#FFFFFF"></path>
                    <path d="M3.2,1.5 C1,5.8 0.2,10.7 1.5,15.5 C2.3,18.7 4.6,23 8.6,22.3 C12,21.7 12.7,17.8 12.6,15 C12.4,10.3 10.3,6 7.1,2.5 C5.8,1.1 3.7,3.2 5,4.6 C6.7,6.4 8,8.5 8.8,10.8 C9.2,12.1 9.5,13.6 9.6,15 C9.7,17.1 10.1,17.7 7.5,17.7 C5.1,17.6 5.1,16.9 4.4,14.7 C4.1,13.5 3.9,12.2 3.9,10.9 C3.8,8.1 4.5,5.5 5.8,3 C6.7,1.3 4.1,-0.2 3.2,1.5 L3.2,1.5 Z" id="Path" fill="#000000"></path>
                    <path d="M1.7,14.7 C0.7,21.7 1.3,28.5 4.1,35 C5.8,39 8.8,44.3 13.6,45.1 C17.2,45.7 18.9,43.4 18.4,40.1 C17.4,33 12.3,27.2 11.2,20 C10.9,18.1 8,18.9 8.3,20.8 C8.8,24 9.8,26.9 11.1,29.8 C11.7,31.2 18,42.5 12.2,41.3 C8.7,40.6 6,32 5.3,29.4 C4,24.8 3.9,20.1 4.6,15.4 C4.9,13.6 2,12.8 1.7,14.7 L1.7,14.7 Z" id="Path" fill="#000000"></path>
                    <path d="M2.3,30.7 C2.3,37.1 3.4,47.8 9,52 C10.8,53.4 13.2,53.3 15,51.8 C17.3,49.8 17.2,46.7 16.9,43.9 C16.7,42 13.7,42 13.9,43.9 C14,44.7 14.1,45.5 14.1,46.3 C11.6,49.2 9.9,49.5 9.1,47.3 C7.9,46.3 7.4,43.6 7,42.1 C5.8,38.4 5.3,34.6 5.4,30.7 C5.3,28.7 2.3,28.7 2.3,30.7 L2.3,30.7 Z" id="Path" fill="#000000"></path>
                    <path d="M4.7,41.3 C4,46.4 4.3,51.5 5.9,56.4 C6.9,59.6 8.7,65.4 12.4,66.5 C20.3,68.8 18,53.7 17.2,50.1 C16.8,48.2 13.9,49 14.3,50.9 C14.9,53.7 15.2,56.5 15.1,59.3 C15.1,60.3 15,61.3 14.7,62.4 C13.6,62.2 12.5,62 11.4,61.8 C10.3,61 9.7,58.4 9.3,57.2 C7.4,52.1 7,46.8 7.7,41.4 C8,39.4 5,39.4 4.7,41.3 L4.7,41.3 Z" id="Path" fill="#000000"></path>
                    <path d="M7.2,60.3 C6.8,63.7 6.8,69.3 10.3,71.3 C13.9,73.3 16.2,69.9 16.7,66.8 C17,64.9 14.1,64.1 13.8,66 C13.7,66.7 13.6,67.9 13.1,68.4 C12,69.5 10.9,68 10.6,66.9 C9.9,64.8 9.9,62.4 10.2,60.2 C10.4,58.4 7.4,58.4 7.2,60.3 L7.2,60.3 Z" id="Path" fill="#000000"></path>
                </g>
                <g id="hand_left" transform="translate(319.000000, 166.000000)">
                    <path d="M102.5,223.4 C101.2,219.9 99.2,215.2 96.5,209.6 C95.4,207.4 92.8,202.1 88.9,195.7 C81.9,184.3 78.9,182.6 76.7,181.8 C76.3,181.7 70.6,179.7 68.6,182 C65.4,185.7 74.4,197.8 75.4,199.2 C72.7,199.7 68.5,200.5 63.4,201.3 C45.4,204.1 38.2,203.7 25.5,206 C11.5,208.5 5.2,207.9 3.9,211.6 C2.8,214.6 5.5,217.9 5.8,218.4 C8.9,222.2 15.2,223.3 21.3,220.6 C24.8,220.4 28.3,220.3 31.8,220.1 C31.4,222.6 31.1,226.2 32.1,230.4 C32.9,233.8 33.9,234.2 36.2,239.8 C38.9,246.5 38.4,247.9 40.6,251 C43.1,254.5 46.2,256.3 47.8,257.1 C55.3,261.3 63.3,259.8 78.6,257.8 C83.9,257.1 92.4,256 103.2,254.9 C103,244.4 102.7,233.9 102.5,223.4 Z" id="Path" fill="#FFFFFF"></path>
                    <path d="M193.6,12 C189.3,21.4 195.3,32.2 199,40 C199.4,40.8 204.7,66.4 215.3,117.8 C218.5,133.1 222.9,155.4 227.7,183.1 C218.8,188.5 209,193.7 198.1,198.7 C162.3,214.9 128.7,221.3 102.4,223.6 C101.1,226.2 98.2,232.9 99.3,241.5 C100.7,252.5 107.5,259.2 109.4,260.9 C120.1,257.8 135.4,253.3 153.7,247.7 C238,221.9 256.2,212.6 261.8,196.4 C264,189.9 262.4,187.7 257.6,162.7 C247.3,108.9 249,88.9 235.3,40.1 C227.8,13.4 222.4,2.1 213.5,0.4 C206.3,-1.1 197,4.5 193.6,12 Z" id="Path" stroke="#000000" stroke-width="3" fill="#FFFFFF"></path>
                    <path d="M118.6,222.1 C115.6,233.7 118,245.9 125.2,255.4 C126.4,256.9 129,255.4 127.8,253.9 C121,244.9 118.7,233.8 121.5,222.9 C122,221.1 119.1,220.3 118.6,222.1 L118.6,222.1 Z" id="Path" fill="#000000"></path>
                    <path d="M103.9,223 C100.7,214.6 96.9,206.5 92.4,198.7 C88.7,192.3 84.5,185.8 78.5,181.2 C75.4,178.9 70.3,175.4 67.7,180.2 C64.8,185.7 71.3,195.4 74.2,199.9 C75.2,201.5 77.8,200 76.8,198.4 C75.6,196.5 66.4,181.1 72.8,181.1 C74.9,181.1 77.9,184.5 79.4,185.8 C81.6,187.9 83.5,190.2 85.2,192.7 C91.9,202.2 96.9,213 101.1,223.8 C101.7,225.6 104.6,224.8 103.9,223 L103.9,223 Z" id="Path" fill="#000000"></path>
                    <path d="M74.1,199.3 C61.7,199.7 49.3,200.8 36.9,202.6 C30.8,203.5 24.8,204.6 18.7,205.8 C14.1,206.8 7.7,207.2 3.7,209.9 C1.6,211.4 0.2,214 1.2,216.6 C2.6,219.8 7.5,220.5 10.5,221.1 C22.2,223.3 34.8,222.3 46.6,222.5 C48.5,222.5 48.5,219.5 46.6,219.5 C37.6,219.4 28.6,219.4 19.6,219 C16.8,218.9 14,218.7 11.2,218.2 C10.1,218 7,217.8 6.1,216.9 C0.4,211.2 14.9,209.6 17.4,209.1 C36,205.1 54.9,202.9 73.8,202.3 C76,202.2 76,199.2 74.1,199.3 L74.1,199.3 Z" id="Path" fill="#000000"></path>
                    <path d="M29.4,222.3 C27.8,227.2 30.4,232 34.7,234.5 C41.1,238.1 49.7,236.2 56.6,235.7 C58.5,235.5 58.5,232.5 56.6,232.7 C52.2,233 47.7,233.7 43.3,233.5 C37.7,233.3 30,230.2 32.2,223.1 C32.9,221.2 30,220.4 29.4,222.3 L29.4,222.3 Z" id="Path" fill="#000000"></path>
                    <path d="M32.5,234.2 C33.9,246.1 46.9,246.7 56.2,245.4 C58.1,245.1 57.3,242.2 55.4,242.5 C48.3,243.5 36.6,243.8 35.5,234.2 C35.3,232.3 32.3,232.3 32.5,234.2 L32.5,234.2 Z" id="Path" fill="#000000"></path>
                    <path d="M36.9,243.7 C37.5,254.3 47.3,260.1 57.1,260.8 C64.6,261.4 72.2,260 79.5,259.1 C87.4,258.2 95.4,257.3 103.3,256.3 C105.2,256.1 105.2,253.1 103.3,253.3 C91.6,254.7 79.9,256.2 68.2,257.4 C57.7,258.5 40.8,257.7 39.9,243.6 C39.7,241.8 36.7,241.8 36.9,243.7 L36.9,243.7 Z" id="Path" fill="#000000"></path>
                    <path d="M142.6,219.8 C141.6,230 143.7,239.9 148.7,248.9 C149.6,250.6 152.2,249.1 151.3,247.4 C146.6,238.8 144.7,229.6 145.6,219.8 C145.8,217.8 142.8,217.9 142.6,219.8 L142.6,219.8 Z" id="Path" fill="#000000"></path>
                    <path d="M167.2,210.4 C167.3,221 169.7,231.2 174.2,240.8 C175,242.5 177.6,241 176.8,239.3 C172.5,230.1 170.4,220.5 170.2,210.4 C170.1,208.4 167.1,208.4 167.2,210.4 L167.2,210.4 Z" id="Path" fill="#000000"></path>
                    <path d="M188,203.8 C191.5,213.2 194.3,222.8 196.4,232.6 C196.8,234.5 199.7,233.7 199.3,231.8 C197.2,222 194.4,212.4 190.9,203 C190.3,201.2 187.4,202 188,203.8 L188,203.8 Z" id="Path" fill="#000000"></path>
                    <path d="M211,193.7 C216.8,203.1 220,213.6 220.4,224.7 C220.5,226.6 223.5,226.6 223.4,224.7 C223,213.1 219.7,202.1 213.6,192.2 C212.5,190.6 209.9,192.1 211,193.7 L211,193.7 Z" id="Path" fill="#000000"></path>
                    <path d="M227.9,185.6 C233.7,185.5 238.9,187.4 243.6,190.7 C245.9,192.3 248,194.2 250,196.1 C251,197.1 252,198.2 253,199.3 C254.7,201.2 254.5,200.6 256.9,201.5 C255.1,200.8 254.3,203.7 256.1,204.4 C256.3,204.5 256.4,204.5 256.6,204.6 C257.1,204.8 257.7,204.6 258.1,204.2 C259.2,203 259,202.1 258.3,200.8 C256.2,197.2 252.1,193.6 248.9,190.9 C242.9,185.8 235.8,182.4 227.9,182.5 C225.9,182.6 225.9,185.6 227.9,185.6 L227.9,185.6 Z" id="Path" fill="#000000"></path>
                    <path d="M227.6,168.6 C233.5,161.8 245.2,153.5 254.8,156.7 C256.6,157.3 257.4,154.4 255.6,153.8 C245,150.2 232.1,158.8 225.5,166.4 C224.2,168 226.3,170.1 227.6,168.6 L227.6,168.6 Z" id="Path" fill="#000000"></path>
                    <path d="M223.7,148.4 C228.9,137.2 241.9,136.5 252.7,136.3 C254.6,136.3 254.6,133.3 252.7,133.3 C240.9,133.5 226.8,134.8 221.2,146.9 C220.3,148.7 222.9,150.2 223.7,148.4 L223.7,148.4 Z" id="Path" fill="#000000"></path>
                    <path d="M218.7,123.3 C222.5,112.3 236.5,107.2 247.1,107.1 C249,107.1 249,104.1 247.1,104.1 C235,104.2 220,110.1 215.8,122.5 C215.2,124.3 218.1,125.1 218.7,123.3 L218.7,123.3 Z" id="Path" fill="#000000"></path>
                    <path d="M213.6,96.7 C215.1,90.8 220,87 224.7,83.3 C230.4,78.8 235.9,75.5 243.3,75.4 C245.2,75.4 245.2,72.4 243.3,72.4 C235.7,72.5 229.9,75.6 223.9,80.1 C218.4,84.3 212.6,88.8 210.7,95.8 C210.2,97.7 213.1,98.5 213.6,96.7 L213.6,96.7 Z" id="Path" fill="#000000"></path>
                    <path d="M208.1,70.9 C214.1,60.2 224.9,53.1 237.2,52.1 C239.1,51.9 239.1,48.9 237.2,49.1 C223.9,50.2 212.1,57.6 205.5,69.3 C204.6,71.1 207.2,72.6 208.1,70.9 L208.1,70.9 Z" id="Path" fill="#000000"></path>
                    <path d="M204.1,45.7 C207.2,41.6 211,38.3 215.5,35.8 C217.6,34.6 219.9,33.7 222.2,33 C223.2,32.7 224.2,32.4 225.2,32.2 C225.9,32 226.6,31.9 227.3,31.9 C228.6,32 229.5,31.4 229.8,30 C228.4,31.3 230.5,33.4 231.9,32.1 C232,32 232.1,31.9 232.2,31.8 C232.6,31.4 232.7,30.8 232.6,30.3 C232.6,30.1 232.5,30 232.5,29.8 C232.4,29.3 231.9,28.9 231.5,28.8 C226.5,27.7 220,30.2 215.5,32.4 C209.9,35.1 205.4,39.1 201.6,44 C200.3,45.7 202.9,47.2 204.1,45.7 L204.1,45.7 Z" id="Path" fill="#000000"></path>
                    <path d="M213.8,0.3 C216.5,10 220,23.5 223.5,39.7 C229.6,68 229,73.6 236.4,126.6 C242.5,169.5 244.9,180.2 237,192 C233.5,197.3 225.5,201.9 209.9,211.1 C188.8,223.4 173.8,232.2 151.3,239.5 C139.3,243.4 122.4,247.7 101.5,249.6 C97.6,250.2 92.6,250.8 86.7,251.3 C75.9,252.2 66.8,252.1 60,251.9 C54.4,251.7 47.7,251.2 40,250.2 C42.1,252.6 45.6,256 50.6,258.3 C59.3,262.4 67.7,261.3 82.3,259.3 C87.6,258.5 94.8,257.3 103.2,255.1 C105.3,257.1 107.4,259.1 109.6,261 C122.9,257 142.6,251.1 166.8,243.8 C296.9,204.5 196.7,233.3 213.5,228.4 C220.1,226.5 233.5,222.6 247.8,213 C255.4,207.9 260.2,203.1 262.1,196.5 C263.6,191.2 262.5,186.9 261.2,181.1 C258.9,170.5 258.1,159.7 255.4,149.2 C251,131.9 253.7,133.3 247.4,95.6 C240.1,51.4 238.6,62.5 234.4,36.1 C233.8,32.4 232.6,24.4 227.5,15.8 C223.1,8.1 217.7,3.2 213.8,0.3 Z" id="Path" fill="#828282" opacity="0.28"></path>
                </g>
                <g id="head" transform="translate(271.000000, 0.000000)">
                    <path d="M108.4,119.3 C110.1,124.2 112,129.3 114,134.5 C117.3,143 120.8,151.1 124.4,158.7 C128.7,157.9 133.9,156.6 139.5,154.4 C143.9,152.6 147.6,150.7 150.7,148.8 C148.4,136.1 146.1,123.5 143.8,110.8 C132,113.6 120.2,116.4 108.4,119.3 Z" id="Path" stroke="#000000" stroke-width="2" fill="#FFFFFF"></path>
                    <path d="M120.4,149.4 C131.9,153.5 143,147.8 150,138.7 C151.2,137.2 149.1,135.1 147.9,136.6 C141.5,144.9 131.8,150.4 121.2,146.6 C119.3,145.8 118.6,148.7 120.4,149.4 L120.4,149.4 Z" id="Path" fill="#000000"></path>
                    <path d="M115.2,138.6 C126.9,140.3 141.7,141.3 148.2,129.1 C149.1,127.4 146.5,125.9 145.6,127.6 C139.8,138.5 126.4,137.2 116,135.7 C114.1,135.4 113.3,138.3 115.2,138.6 L115.2,138.6 Z" id="Path" fill="#000000"></path>
                    <path d="M110.1,127 C122.2,130.5 135.2,128.1 145.2,120.5 C146.7,119.3 145.2,116.7 143.7,117.9 C134.2,125.1 122.3,127.4 110.9,124.1 C109.1,123.6 108.3,126.5 110.1,127 L110.1,127 Z" id="Path" fill="#000000"></path>
                    <polygon id="Path" stroke="#000000" stroke-width="3" fill="#000000" points="168.8 0.1 218.6 0.1 229.2 94 180.2 119.3"></polygon>
                    <polygon id="Path" stroke="#000000" stroke-width="3" fill="#FFFFFF" points="0.6 18.8 16.9 119.3 180.2 119.3 168.8 0.1"></polygon>
                    <polygon id="Path" stroke="#000000" stroke-width="3" fill="#FFFFFF" points="7.8 26.3 22.5 113.4 168.8 113.4 158.5 10"></polygon>
                    <ellipse id="Oval" stroke="#000000" stroke-width="2.999934" fill="#000000" transform="translate(43.098800, 64.511100) rotate(-30.000728) translate(-43.098800, -64.511100) " cx="43.0988" cy="64.5111" rx="3.8999142" ry="6.999846"></ellipse>
                    <ellipse id="Oval" stroke="#000000" stroke-width="2.999934" fill="#000000" transform="translate(111.792400, 59.682200) rotate(-30.000728) translate(-111.792400, -59.682200) " cx="111.7924" cy="59.6822" rx="3.8999142" ry="6.999846"></ellipse>
                    <path d="M70.4,81.5 C72.9,84.9 75.6,88.2 78.4,91.3 C79.2,92.2 80.6,91.6 80.9,90.6 C82.3,86.4 84,82.3 86,78.4 C86.8,76.7 84.3,75.1 83.4,76.9 C81.4,81.1 79.6,85.4 78,89.9 C78.8,89.7 79.7,89.5 80.5,89.2 C77.8,86.3 75.3,83.2 72.9,80 C71.8,78.5 69.2,80 70.4,81.5 L70.4,81.5 Z" id="Path" fill="#000000"></path>
                </g>
            </g>
        </g>
    </g>
</svg>